<svg enable-background="new 0 0 32 32" viewBox="0 0 32 32" xmlns="http://www.w3.org/2000/svg"><g id="Guides"/><g id="_x32_0"/><g id="_x31_9"/><g id="_x31_8"/><g id="_x31_7"/><g id="_x31_6"/><g id="_x31_5"><path d="m19.0761719 23.7207031c.2276001-.4320068.3989258-.887207.543396-1.3513184-.6626587-.3627319-1.2383423-.8584595-1.6763916-1.4691772l-.09552.4240112c-.1494141.6611328-.4111328 1.2919922-.7773438 1.8740234-.2011719.3193359-.2060547.7246094-.0117188 1.0478516l.7539063 1.2558594-.3105469.3105469-1.2558594-.7539063c-.3232422-.1933594-.7285156-.1894531-1.0478516.0117188-.5820313.3662109-1.2128906.6279297-1.8740234.7773438-.3691406.0830078-.6591797.3671875-.75.7333984l-.3554687 1.4189453h-.4375l-.3554688-1.4189453c-.0908203-.3662109-.3808594-.6503906-.75-.7333984-.6611328-.1494141-1.2919922-.4111328-1.8740234-.7773438-.3193359-.2011719-.7236328-.2050781-1.0478516-.0117188l-1.2558593.7539063-.3105469-.3105469.7539063-1.2558594c.1943359-.3232422.1894531-.7285156-.0117188-1.0478516-.3662109-.5820313-.6279297-1.2128906-.7773438-1.8740234-.0830078-.3691406-.3671875-.6591797-.7333984-.75l-1.4189453-.3554687v-.4375l1.4189453-.3554688c.3662109-.0908203.6503906-.3808594.7333984-.75.1494141-.6611328.4111328-1.2919922.7773438-1.8740234.2011719-.3193359.2060547-.7246094.0117188-1.0478516l-.7539063-1.2558593.3105469-.3105469 1.2558594.7539063c.3232422.1933594.7285156.1894531 1.0478516-.0117188.5820313-.3662109 1.2128906-.6279297 1.8740234-.7773438.3691406-.0830078.6591797-.3671875.75-.7333984l.3554687-1.4189453h.4375l.3554688 1.4189453c.0908203.3662109.3808594.6503906.75.7333984.5004883.1130981.9753418.3105469 1.4330444.5489502.1470947-.2835693.2427368-.5895385.2427368-.9122314v-1.1833496c-.2081299-.0845337-.4141846-.1748047-.6289063-.2414551l-.4013672-1.6064453c-.1103515-.4453125-.5107421-.7578125-.9697265-.7578125h-2c-.4589844 0-.859375.3125-.9697266.7578125l-.4013672 1.6064453c-.4658203.1445313-.9169922.3310547-1.3496094.5595703l-1.421875-.8525391c-.3935547-.2363281-.8974609-.1738281-1.2216797.1503906l-1.4140625 1.4140625c-.3242188.3242188-.3867188.828125-.1503906 1.2216797l.8525391 1.421875c-.2285156.4326172-.4150391.8837891-.5595703 1.3496094l-1.6064453.4013672c-.4453125.1103516-.7578125.5107422-.7578125.9697266v2c0 .4589844.3125.859375.7578125.9697266l1.6064453.4013672c.1445313.4658203.3310547.9169922.5595703 1.3496094l-.8525391 1.421875c-.2363281.3935547-.1738281.8974609.1503906 1.2216797l1.4140625 1.4140625c.3232422.3251953.828125.3857422 1.2216797.1503906l1.421875-.8525391c.4326172.2285156.8837891.4150391 1.3496094.5595703l.4013672 1.6064453c.1103516.4453125.5107422.7578125.9697266.7578125h2c.4589844 0 .859375-.3125.9697266-.7578125l.4013672-1.6064453c.4658203-.1445313.9169922-.3310547 1.3496094-.5595703l1.421875.8525391c.3935547.2353516.8974609.1748047 1.2216797-.1503906l1.4140625-1.4140625c.3242188-.3242188.3867188-.828125.1503906-1.2216797z"/><path d="m12 18c.1884766 0 .3673706.0346069.5404053.0836182l1.1357422-1.7034302c-.5114746-.2379151-1.0757447-.380188-1.6761475-.380188-2.2060547 0-4 1.7939453-4 4s1.7939453 4 4 4 4-1.7939453 4-4h-2c0 1.1025391-.8974609 2-2 2s-2-.8974609-2-2 .8974609-2 2-2z"/><path d="m29.8320313 17.4453125-1.328125-1.9921875c-.3300782-.4941406-.5039063-1.0693359-.5039063-1.6640625v-2.7890625c0-2.2151489-1.2095947-4.1488647-3-5.1882324v-.8117676c0-1.6542969-1.3457031-3-3-3s-3 1.3457031-3 3v.8117676c-1.7904053 1.0393677-3 2.9730835-3 5.1882324v2.7890625c0 .5947266-.1738281 1.1699219-.5039063 1.6640625l-1.328125 1.9921875c-.2041016.3066406-.2236328.7011719-.0498047 1.0263672s.5126954.5283203.881836.5283203h3.1419678c.4470825 1.72052 1.9993286 3 3.8580322 3s3.4109497-1.27948 3.8580322-3h3.1419678c.3691406 0 .7080078-.203125.8818359-.5283203s.1542969-.7197266-.0498046-1.0263672zm-8.8320313-12.4453125c0-.5517578.4482422-1 1-1s1 .4482422 1 1v.090332c-.3259888-.0550537-.6586304-.090332-1-.090332s-.6740112.0352783-1 .090332zm1 15c-.7366943 0-1.3746948-.4052124-1.7216797-1h3.4433594c-.3469849.5947876-.9849854 1-1.7216797 1zm-5.1318359-3 .2919922-.4375c.5498046-.8232422.8398437-1.7822266.8398437-2.7734375v-2.7890625c0-2.2060547 1.7939453-4 4-4s4 1.7939453 4 4v2.7890625c0 .9912109.2900391 1.9501953.8398438 2.7734375l.2919921.4375z"/></g><g id="_x31_4"/><g id="_x31_3"/><g id="_x31_2"/><g id="_x31_1"/><g id="_x31_0"/><g id="_x30_9"/><g id="_x30_8"/><g id="_x30_7"/><g id="_x30_6"/><g id="_x30_5"/><g id="_x30_4"/><g id="_x30_3"/><g id="_x30_2"/><g id="_x30_1"/></svg>