<svg id="Layer_1_1_" enable-background="new 0 0 64 64" height="512" viewBox="0 0 64 64" width="512" xmlns="http://www.w3.org/2000/svg"><path d="m4 48.987v12.013c0 .553.448 1 1 1h16c.552 0 1-.447 1-1v-11.378c-.074-2.908-1.833-5.084-4.273-5.474 1.393-1.281 2.273-3.111 2.273-5.148 0-3.859-3.14-7-7-7s-7 3.141-7 7c0 1.999.847 3.8 2.195 5.077-1.022.162-1.969.625-2.72 1.369-.951.943-1.475 2.2-1.475 3.541zm9-14.987c2.404 0 4.415 1.706 4.891 3.971-.143.013-.285.029-.431.029-1.396 0-2.752-.609-3.721-1.673-.379-.416-1.1-.416-1.479 0-.968 1.064-2.323 1.673-3.72 1.673-.146 0-.288-.016-.431-.029.476-2.265 2.487-3.971 4.891-3.971zm-4.902 5.969c1.727.101 3.529-.458 4.902-1.591 1.259 1.04 2.838 1.622 4.46 1.622.149 0 .294-.02.442-.03-.453 2.294-2.477 4.03-4.902 4.03s-4.449-1.737-4.902-4.031zm5.874 11.908-.972 2.431-.972-2.431.835-5.845.275.002zm-7.972-2.89c0-.804.314-1.557.884-2.122.568-.564 1.372-.876 2.122-.865l1.839.015-.835 5.843c-.025.174-.004.351.061.513l2 5c.153.38.52.629.929.629s.776-.249.929-.629l2-5c.065-.162.086-.339.061-.513l-.83-5.808 1.811.015c1.729.014 2.975 1.497 3.028 3.582v10.353h-13.999z"/><path d="m11.666 19c.273 0 .545-.111.742-.329l6.333-7-1.483-1.342-5.695 6.294-2.93-2.397-1.267 1.549 3.667 3c.186.151.41.225.633.225z"/><path d="m13 26c6.065 0 11-4.935 11-11s-4.935-11-11-11-11 4.935-11 11 4.935 11 11 11zm0-20c4.962 0 9 4.037 9 9s-4.038 9-9 9-9-4.037-9-9 4.038-9 9-9z"/><path d="m60 18h-3v-9c0-.553-.448-1-1-1h-10c-.552 0-1 .447-1 1v9h-3v-9c0-.553-.448-1-1-1h-10c-.552 0-1 .447-1 1v9h-3v2h33v16h-3v-9c0-.553-.448-1-1-1h-10c-.552 0-1 .447-1 1v9h-3v-9c0-.553-.448-1-1-1h-10c-.552 0-1 .447-1 1v9h-3v2h33v16h-3v-9c0-.553-.448-1-1-1h-10c-.552 0-1 .447-1 1v9h-3v-9c0-.553-.448-1-1-1h-10c-.552 0-1 .447-1 1v9h-3v2h33v6h2v-60h-2zm-20 0h-8v-8h8zm15 0h-8v-8h8zm-15 18h-8v-8h8zm15 0h-8v-8h8zm-15 18h-8v-8h8zm15 0h-8v-8h8z"/></svg>