<svg id="Layer_1" enable-background="new 0 0 70 70" height="512" viewBox="0 0 70 70" width="512" xmlns="http://www.w3.org/2000/svg"><g><path d="m51.344 27.145c-5.087 0-9.225 4.138-9.225 9.225s4.138 9.225 9.225 9.225 9.225-4.138 9.225-9.225-4.138-9.225-9.225-9.225zm0 16.949c-4.26 0-7.725-3.465-7.725-7.725s3.465-7.725 7.725-7.725 7.725 3.465 7.725 7.725-3.465 7.725-7.725 7.725z"/><path d="m64.166 2.252h-58.331c-1.977 0-3.585 1.607-3.585 3.584v31.804c0 1.977 1.608 3.585 3.585 3.585h2.472c-.216.868-.344 1.771-.344 2.705 0 6.182 5.028 11.21 11.21 11.21 6.188 0 11.221-5.028 11.221-11.21 0-.934-.128-1.837-.344-2.705h9.435c1.195 2.909 3.432 5.274 6.242 6.651h-8.146c-1.013 0-1.836.823-1.836 1.835v7.016c0 .115.014.227.034.336h-2.698c-1.012 0-1.835.823-1.835 1.835v7.016c0 1.012.823 1.835 1.835 1.835h27.269c1.012 0 1.835-.823 1.835-1.835v-7.016c0-.115-.014-.226-.034-.335h2.699c1.012 0 1.835-.823 1.835-1.836v-7.016c0-1.012-.823-1.835-1.835-1.835h-7.89c2.81-1.377 5.047-3.743 6.242-6.651h.963c1.977 0 3.584-1.608 3.584-3.585v-31.804c.001-1.977-1.606-3.584-3.583-3.584zm-44.993 51.388c-5.354 0-9.71-4.355-9.71-9.71s4.355-9.71 9.71-9.71c5.36 0 9.721 4.355 9.721 9.71s-4.361 9.71-9.721 9.71zm17.974 12.608h-4.066c-.185 0-.335-.15-.335-.335v-7.016c0-.185.15-.335.335-.335h4.066zm.098-9.521v-7.016c0-.185.15-.335.336-.335h4.065v7.687h-4.065c-.185 0-.336-.151-.336-.336zm5.781 9.521h-4.379v-7.686h4.379zm.12-16.872h4.379v7.687h-4.379zm5.759 16.872h-4.379v-7.686h4.379zm5.879 0h-4.379v-7.686h4.379zm-5.759-9.185v-7.687h4.379v7.687zm11.758-7.687h4.066c.185 0 .335.15.335.335v7.016c0 .186-.15.336-.335.336h-4.066zm-.098 9.521v7.016c0 .185-.15.335-.335.335h-4.065v-7.686h4.065c.184.001.335.151.335.335zm-1.402-9.521v7.687h-4.379v-7.687zm-7.939-1.687c-6.242 0-11.32-5.078-11.32-11.32s5.078-11.32 11.32-11.32 11.32 5.078 11.32 11.32-5.078 11.32-11.32 11.32zm14.906-10.049c0 1.149-.935 2.085-2.084 2.085h-.463c.291-1.072.461-2.193.461-3.355 0-7.069-5.751-12.82-12.82-12.82s-12.82 5.751-12.82 12.82c0 1.163.169 2.284.461 3.355h-9.417c-1.669-4.102-5.696-7.005-10.394-7.005-4.694 0-8.717 2.903-10.384 7.005h-2.955c-1.149 0-2.085-.936-2.085-2.085v-31.804c0-1.149.936-2.084 2.085-2.084h58.331c1.149 0 2.084.935 2.084 2.084z"/><path d="m51.344 33.188c.67 0 1.216.546 1.216 1.216 0 .414.336.75.75.75s.75-.336.75-.75c0-1.235-.835-2.269-1.966-2.597v-.547c0-.414-.336-.75-.75-.75s-.75.336-.75.75v.546c-1.131.328-1.966 1.362-1.966 2.597 0 1.497 1.219 2.716 2.716 2.716.67 0 1.216.545 1.216 1.216 0 .67-.546 1.216-1.216 1.216s-1.216-.546-1.216-1.216c0-.414-.336-.75-.75-.75s-.75.336-.75.75c0 1.235.835 2.269 1.966 2.597v.547c0 .414.336.75.75.75s.75-.336.75-.75v-.547c1.131-.328 1.966-1.362 1.966-2.597 0-1.497-1.219-2.716-2.716-2.716-.67 0-1.216-.545-1.216-1.216 0-.67.546-1.215 1.216-1.215z"/><path d="m20.93 40.496c-.364-.197-.818-.061-1.016.305l-2.997 5.566c-.196.364-.061.819.305 1.016.113.062.234.09.354.09.268 0 .525-.143.661-.395l2.997-5.566c.197-.365.061-.82-.304-1.016z"/><path d="m15.775 40.924c-.549.081-.926.59-.845 1.139.081.543.589.921 1.138.839.543-.081.921-.589.84-1.133-.081-.548-.589-.925-1.133-.845z"/><path d="m22.292 44.957c-.549.081-.926.59-.845 1.139.081.543.589.921 1.138.839.543-.081.921-.589.84-1.133-.08-.548-.589-.926-1.133-.845z"/><path d="m20.968 63.781-1.04 1.042v-5.397c0-.414-.336-.75-.75-.75s-.75.336-.75.75v5.4l-1.04-1.04c-.293-.293-.768-.293-1.061 0s-.293.768 0 1.061l2.32 2.32c.291.291.766.295 1.061-.001h.001l2.321-2.326c.292-.293.292-.768-.002-1.061-.292-.292-.768-.292-1.06.002z"/><path d="m13.052 59.183-1.039 1.042v-4.897c0-.414-.336-.75-.75-.75s-.75.336-.75.75v4.901l-1.04-1.041c-.293-.292-.767-.294-1.061 0-.293.293-.293.768 0 1.061l2.32 2.321c.294.294.77.291 1.061-.001h.001l2.32-2.327c.292-.293.292-.768-.002-1.061-.293-.292-.767-.292-1.06.002z"/><path d="m49.287 10.439c-2.015 0-3.653 1.639-3.653 3.653 0 .661.189 1.273.496 1.809l-8.202 7.303c-.634-.522-1.435-.849-2.319-.849-.8 0-1.534.266-2.137.703l-5.735-5.87c.382-.578.607-1.268.607-2.011 0-2.015-1.644-3.653-3.663-3.653-2.015 0-3.653 1.639-3.653 3.653 0 .65.184 1.251.481 1.781l-8.23 7.664c-.626-.499-1.41-.81-2.272-.81-2.015 0-3.653 1.639-3.653 3.653 0 2.02 1.639 3.663 3.653 3.663 2.02 0 3.663-1.644 3.663-3.663 0-.611-.166-1.18-.433-1.686l8.255-7.687c.612.463 1.365.749 2.189.749.735 0 1.417-.222 1.991-.596l5.795 5.932c-.317.541-.511 1.162-.511 1.833 0 2.02 1.639 3.663 3.653 3.663 2.02 0 3.663-1.644 3.663-3.663 0-.589-.154-1.139-.403-1.632l8.255-7.349c.607.452 1.352.728 2.164.728 2.02 0 3.663-1.644 3.663-3.663-.001-2.016-1.644-3.655-3.664-3.655zm-38.28 19.19c-1.188 0-2.153-.971-2.153-2.163 0-1.188.966-2.153 2.153-2.153 1.192 0 2.163.966 2.163 2.153 0 1.192-.971 2.163-2.163 2.163zm13.674-12.288c-1.188 0-2.153-.971-2.153-2.163 0-1.188.966-2.153 2.153-2.153 1.192 0 2.163.966 2.163 2.153 0 1.192-.971 2.163-2.163 2.163zm10.927 10.831c-1.188 0-2.153-.971-2.153-2.163 0-1.188.966-2.153 2.153-2.153 1.192 0 2.163.966 2.163 2.153 0 1.192-.97 2.163-2.163 2.163zm13.679-11.916c-1.188 0-2.153-.971-2.153-2.163 0-1.188.966-2.153 2.153-2.153 1.192 0 2.163.966 2.163 2.153 0 1.192-.971 2.163-2.163 2.163z"/><path d="m8.713 9.293h9.811c.414 0 .75-.336.75-.75s-.336-.75-.75-.75h-9.811c-.414 0-.75.336-.75.75s.336.75.75.75z"/><path d="m8.713 13.024h4.732c.414 0 .75-.336.75-.75s-.336-.75-.75-.75h-4.732c-.414 0-.75.336-.75.75s.336.75.75.75z"/></g></svg>