<svg id="Line" viewBox="0 0 64 64" xmlns="http://www.w3.org/2000/svg"><path d="m57 45v-23c0-2.7568-2.2432-5-5-5h-5.5v-3h4.5c1.6543 0 3-1.3457 3-3v-5c0-1.6543-1.3457-3-3-3h-16c-1.6543 0-3 1.3457-3 3v5c0 1.6543 1.3457 3 3 3h3.5v3h-9.5v-13c0-.3467-.1797-.6685-.4746-.8506-.2949-.1836-.6631-.1982-.9727-.0439l-2.5537 1.2769-2.5625-1.2773c-.2822-.1406-.6143-.1406-.8945.001l-2.543 1.2759-2.5518-1.2764c-.3096-.1538-.6777-.1387-.9727.0439-.2949.1821-.4746.5039-.4746.8506v13h-3c-2.7568 0-5 2.2432-5 5v23c-1.6543 0-3 1.3457-3 3v8c0 2.7568 2.2432 5 5 5h46c2.7568 0 5-2.2432 5-5v-8c0-1.6543-1.3457-3-3-3zm-23-34v-5c0-.5513.4482-1 1-1h16c.5518 0 1 .4487 1 1v5c0 .5513-.4482 1-1 1h-16c-.5518 0-1-.4487-1-1zm6.5 3h4v3h-4zm-23.5-8.3818 1.5527.7764c.2812.1406.6143.1411.8955-.0005l2.543-1.2759 2.5625 1.2769c.2822.1396.6133.1392.8936-.0005l1.5527-.7764v19.3818h-10zm-8 16.3818c0-1.6543 1.3457-3 3-3h3v6h-1c-.5527 0-1 .4478-1 1s.4473 1 1 1h16c.5527 0 1-.4478 1-1s-.4473-1-1-1h-1v-6h23c1.6543 0 3 1.3457 3 3v23h-46zm49 34c0 1.6543-1.3457 3-3 3h-46c-1.6543 0-3-1.3457-3-3v-8c0-.5513.4482-1 1-1h50c.5518 0 1 .4487 1 1zm-17-4.5v3c0 .5522-.4473 1-1 1s-1-.4478-1-1v-2h-14v2c0 .5522-.4473 1-1 1s-1-.4478-1-1v-3c0-.5522.4473-1 1-1h16c.5527 0 1 .4478 1 1zm9.5-25.5c0 .5522-.4473 1-1 1h-14c-.5527 0-1-.4478-1-1s.4473-1 1-1h14c.5527 0 1 .4478 1 1zm-30.5 8c0 .5522-.4473 1-1 1h-4c-.5527 0-1-.4478-1-1s.4473-1 1-1h4c.5527 0 1 .4478 1 1zm10 0c0 .5522-.4473 1-1 1h-4c-.5527 0-1-.4478-1-1s.4473-1 1-1h4c.5527 0 1 .4478 1 1zm10 0c0 .5522-.4473 1-1 1h-4c-.5527 0-1-.4478-1-1s.4473-1 1-1h4c.5527 0 1 .4478 1 1zm10 0c0 .5522-.4473 1-1 1h-4c-.5527 0-1-.4478-1-1s.4473-1 1-1h4c.5527 0 1 .4478 1 1zm-30 6c0 .5522-.4473 1-1 1h-4c-.5527 0-1-.4478-1-1s.4473-1 1-1h4c.5527 0 1 .4478 1 1zm10 0c0 .5522-.4473 1-1 1h-4c-.5527 0-1-.4478-1-1s.4473-1 1-1h4c.5527 0 1 .4478 1 1zm10 0c0 .5522-.4473 1-1 1h-4c-.5527 0-1-.4478-1-1s.4473-1 1-1h4c.5527 0 1 .4478 1 1zm10 0c0 .5522-.4473 1-1 1h-4c-.5527 0-1-.4478-1-1s.4473-1 1-1h4c.5527 0 1 .4478 1 1z"/></svg>