<svg height="512" viewBox="0 0 64 64" width="512" xmlns="http://www.w3.org/2000/svg"><g id="voucher_sale"><g><path d="m7 23h8c.552 0 1-.447 1-1s-.448-1-1-1h-8c-.552 0-1 .447-1 1s.448 1 1 1z"/><path d="m7 27h8c.552 0 1-.447 1-1s-.448-1-1-1h-8c-.552 0-1 .447-1 1s.448 1 1 1z"/><path d="m7 31h8c.552 0 1-.447 1-1s-.448-1-1-1h-8c-.552 0-1 .447-1 1s.448 1 1 1z"/><path d="m7 35h8c.552 0 1-.447 1-1s-.448-1-1-1h-8c-.552 0-1 .447-1 1s.448 1 1 1z"/><path d="m7 39h8c.552 0 1-.447 1-1s-.448-1-1-1h-8c-.552 0-1 .447-1 1s.448 1 1 1z"/><path d="m7 43h8c.552 0 1-.447 1-1s-.448-1-1-1h-8c-.552 0-1 .447-1 1s.448 1 1 1z"/><path d="m48.813 22.735v-2.435c0-1.558-1.268-2.825-2.826-2.825-1.56 0-2.828 1.268-2.828 2.825v2.436c0 1.561 1.269 2.83 2.828 2.83 1.558-.001 2.826-1.27 2.826-2.831zm-3.654 0v-2.435c0-.455.372-.825.828-.825.455 0 .826.37.826.825v2.436c0 .458-.371.83-.826.83-.456-.001-.828-.373-.828-.831z"/><path d="m57.341 33.7v-2.438c0-1.56-1.269-2.828-2.828-2.828-1.558 0-2.826 1.269-2.826 2.828v2.438c0 1.558 1.268 2.825 2.826 2.825 1.559 0 2.828-1.267 2.828-2.825zm-3.654 0v-2.438c0-.457.371-.828.826-.828.457 0 .828.371.828.828v2.438c0 .455-.372.825-.828.825-.455 0-.826-.37-.826-.825z"/><path d="m47.445 36.383 7.458-18c.211-.51-.031-1.096-.541-1.307-.51-.212-1.095.031-1.307.541l-7.458 18c-.211.51.031 1.096.541 1.307.125.052.255.076.383.076.392 0 .764-.232.924-.617z"/><path d="m22.5 10c.552 0 1-.447 1-1v-4c0-.553-.448-1-1-1s-1 .447-1 1v4c0 .553.448 1 1 1z"/><path d="m17.929 10.221c.147.406.531.658.939.658.114 0 .229-.02.342-.061.519-.188.787-.763.598-1.281l-1.368-3.759c-.189-.52-.763-.785-1.281-.598-.519.188-.787.763-.598 1.281z"/><path d="m25.79 10.818c.113.041.228.061.342.061.408 0 .792-.252.939-.658l1.368-3.759c.189-.519-.079-1.093-.598-1.281-.517-.188-1.093.078-1.281.598l-1.368 3.759c-.189.518.079 1.092.598 1.28z"/><path d="m22.5 54c-.552 0-1 .447-1 1v4c0 .553.448 1 1 1s1-.447 1-1v-4c0-.553-.448-1-1-1z"/><path d="m19.21 53.182c-.517-.188-1.093.078-1.281.598l-1.368 3.759c-.189.519.079 1.093.598 1.281.113.041.228.061.342.061.408 0 .792-.252.939-.658l1.368-3.759c.189-.52-.079-1.094-.598-1.282z"/><path d="m27.071 53.779c-.188-.52-.763-.785-1.281-.598-.519.188-.787.763-.598 1.281l1.368 3.759c.147.406.531.658.939.658.114 0 .229-.02.342-.061.519-.188.787-.763.598-1.281z"/><path d="m37 35c.552 0 1-.447 1-1s-.448-1-1-1h-6c-1.654 0-3 1.346-3 3s1.346 3 3 3h6c.552 0 1-.447 1-1s-.448-1-1-1h-1v-2zm-3 2h-3c-.551 0-1-.448-1-1s.449-1 1-1h3z"/><path d="m37 47c.552 0 1-.447 1-1v-2c0-1.654-1.346-3-3-3s-3 1.346-3 3c0 .552-.449 1-1 1s-1-.448-1-1v-2c0-.553-.448-1-1-1s-1 .447-1 1v2c0 1.654 1.346 3 3 3s3-1.346 3-3c0-.552.449-1 1-1s1 .448 1 1v2c0 .553.448 1 1 1z"/><path d="m38 26c0-.553-.448-1-1-1s-1 .447-1 1v3h-7c-.552 0-1 .447-1 1s.448 1 1 1h8c.552 0 1-.447 1-1z"/><path d="m38 18c0-.553-.448-1-1-1s-1 .447-1 1v3h-2v-2c0-.553-.448-1-1-1s-1 .447-1 1v2h-2v-3c0-.553-.448-1-1-1s-1 .447-1 1v4c0 .553.448 1 1 1h8c.552 0 1-.447 1-1z"/><path d="m22 47c0-.553-.448-1-1-1v-1c.552 0 1-.447 1-1s-.448-1-1-1v-1c.552 0 1-.447 1-1s-.448-1-1-1v-1c.552 0 1-.447 1-1s-.448-1-1-1v-1c.552 0 1-.447 1-1s-.448-1-1-1v-1c.552 0 1-.447 1-1s-.448-1-1-1v-1c.552 0 1-.447 1-1s-.448-1-1-1v-1c.552 0 1-.447 1-1s-.448-1-1-1v-1c.552 0 1-.447 1-1s-.448-1-1-1v-1c.552 0 1-.447 1-1s-.448-1-1-1v-1c.552 0 1-.447 1-1s-.448-1-1-1c0-.266-.105-.52-.293-.707l-2-2c-.187-.188-.442-.293-.707-.293h-16c-.552 0-1 .447-1 1v3c0 .553.448 1 1 1s1-.447 1-1v-2h14.586l1.414 1.414v31.172l-1.414 1.414h-14.586v-28c0-.553-.448-1-1-1s-1 .447-1 1v29c0 .553.448 1 1 1h16c.265 0 .52-.105.707-.293l2-2c.188-.187.293-.441.293-.707.552 0 1-.447 1-1z"/><path d="m62 13h-35c-.265 0-.52.105-.707.293l-2 2c-.188.187-.293.441-.293.707-.552 0-1 .447-1 1s.448 1 1 1v1c-.552 0-1 .447-1 1s.448 1 1 1v1c-.552 0-1 .447-1 1s.448 1 1 1v1c-.552 0-1 .447-1 1s.448 1 1 1v1c-.552 0-1 .447-1 1s.448 1 1 1v1c-.552 0-1 .447-1 1s.448 1 1 1v1c-.552 0-1 .447-1 1s.448 1 1 1v1c-.552 0-1 .447-1 1s.448 1 1 1v1c-.552 0-1 .447-1 1s.448 1 1 1v1c-.552 0-1 .447-1 1s.448 1 1 1v1c-.552 0-1 .447-1 1s.448 1 1 1c0 .266.105.52.293.707l2 2c.187.188.442.293.707.293h27c.552 0 1-.447 1-1s-.448-1-1-1h-26.586l-1.414-1.414v-31.172l1.414-1.414h33.586v34h-3c-.552 0-1 .447-1 1s.448 1 1 1h4c.552 0 1-.447 1-1v-36c0-.553-.448-1-1-1z"/><path d="m41.5 41.5v3c0 1.379 1.122 2.5 2.5 2.5s2.5-1.121 2.5-2.5v-3c0-1.379-1.122-2.5-2.5-2.5s-2.5 1.121-2.5 2.5zm2 0c0-.271.229-.5.5-.5s.5.229.5.5v3c0 .271-.229.5-.5.5s-.5-.229-.5-.5z"/><path d="m52 41c.552 0 1-.447 1-1s-.448-1-1-1h-3c-.552 0-1 .447-1 1v6c0 .553.448 1 1 1s1-.447 1-1v-2h1c.552 0 1-.447 1-1s-.448-1-1-1h-1v-1z"/><path d="m57 44c.552 0 1-.447 1-1s-.448-1-1-1h-1v-1h2c.552 0 1-.447 1-1s-.448-1-1-1h-3c-.552 0-1 .447-1 1v6c0 .553.448 1 1 1s1-.447 1-1v-2z"/></g></g></svg>