<svg id="Layer_1" enable-background="new 0 0 512 512" viewBox="0 0 512 512" xmlns="http://www.w3.org/2000/svg"><path d="m66.127 348.9c-4.418 0-8 3.582-8 8v89.071c0 4.418 3.582 8 8 8h59.196c4.418 0 8-3.582 8-8v-89.071c0-4.418-3.582-8-8-8zm51.196 89.071h-43.196v-73.071h43.196zm58.722-188.944c-4.418 0-8 3.582-8 8v188.945c0 4.418 3.582 8 8 8h59.196c4.418 0 8-3.582 8-8v-188.945c0-4.418-3.582-8-8-8zm51.196 188.945h-43.196v-172.945h43.196zm11.765-245.745c-.619-17.873-15.343-32.224-33.364-32.224-18.413 0-33.394 14.98-33.394 33.393 0 4.843 1.045 9.443 2.907 13.601l-58.784 45.773c-5.687-4.488-12.856-7.177-20.646-7.177-18.413 0-33.393 14.98-33.393 33.393s14.979 33.394 33.393 33.394 33.393-14.98 33.393-33.394c0-4.842-1.044-9.442-2.906-13.6l58.784-45.773c5.687 4.488 12.856 7.177 20.646 7.177 13.224 0 24.677-7.727 30.082-18.903l46.473 9.758c.619 17.873 15.343 32.224 33.365 32.224 18.413 0 33.394-14.98 33.394-33.394 0-5.65-1.416-10.973-3.902-15.643l60.266-53.902c5.363 3.673 11.844 5.827 18.821 5.827 18.413 0 33.394-14.98 33.394-33.393s-14.98-33.394-33.394-33.394-33.394 14.98-33.394 33.394c0 5.65 1.416 10.974 3.903 15.644l-60.266 53.902c-5.363-3.673-11.844-5.827-18.821-5.827-13.225 0-24.678 7.727-30.083 18.903zm-143.28 104.151c-9.59 0-17.393-7.803-17.393-17.394s7.803-17.393 17.393-17.393 17.393 7.802 17.393 17.393-7.804 17.394-17.393 17.394zm109.917-85.589c-9.591 0-17.394-7.803-17.394-17.394s7.803-17.393 17.394-17.393 17.394 7.802 17.394 17.393-7.804 17.394-17.394 17.394zm218.498-108.82c9.591 0 17.394 7.803 17.394 17.394s-7.803 17.393-17.394 17.393-17.394-7.802-17.394-17.393 7.803-17.394 17.394-17.394zm-108.579 97.112c9.591 0 17.394 7.802 17.394 17.393s-7.803 17.394-17.394 17.394c-9.592 0-17.395-7.803-17.395-17.394s7.804-17.393 17.395-17.393zm188.339 213.816c0-31.663-16.24-59.6-40.824-75.932v-157.589c0-4.418-3.582-8-8-8h-59.197c-4.418 0-8 3.582-8 8v145.884c-12.981 3.696-24.789 10.207-34.72 18.825v-46.686c0-4.418-3.582-8-8-8h-59.196c-4.418 0-8 3.582-8 8v148.574c0 4.418 3.582 8 8 8h45.535c2.079 4.097 4.456 8.019 7.106 11.732h-292.211v-449.705c0-4.418-3.582-8-8-8h-22.295c-4.418 0-8 3.582-8 8v480c0 4.418 3.582 8 8 8h405.669c1.306 0 2.535-.319 3.624-.874 44.295-6.152 78.509-44.267 78.509-90.229zm-100.021-225.521h43.197v141.12c-10.587-4.315-22.158-6.7-34.277-6.7-3.01 0-5.984.151-8.92.437zm-109.916 250.597v-132.574h43.196v56.777c-9.76 14.507-15.462 31.961-15.462 50.721 0 8.694 1.226 17.106 3.511 25.075h-31.245zm-269.865 50.027v-464h6.295v449.705c0 4.418 3.582 8 8 8h314.761c2.588 2.247 5.308 4.347 8.14 6.295zm388.701 0c-41.411 0-75.102-33.691-75.102-75.103s33.69-75.102 75.102-75.102 75.102 33.69 75.102 75.102-33.691 75.103-75.102 75.103zm34.455-56.613c.871 7.171-1.063 13.731-5.595 18.97-4.728 5.466-12.248 9.277-20.86 10.731v4.396c0 4.418-3.582 8-8 8s-8-3.582-8-8v-4.526c-13.203-2.591-23.346-11.432-26.422-23.772-1.068-4.287 1.541-8.629 5.827-9.697 4.29-1.069 8.63 1.54 9.698 5.827 2.357 9.458 12.136 12.587 19.791 12.416 6.604-.157 12.979-2.505 15.864-5.842 1.562-1.806 2.139-3.896 1.813-6.575-.552-4.547-3.301-10.114-19.792-12.823-24.462-4.017-30.174-16.766-30.658-26.754-.672-13.816 8.896-25.371 23.809-28.753.023-.005.047-.011.069-.016v-4.659c0-4.418 3.582-8 8-8s8 3.582 8 8v4.588c9.721 2.066 19.015 8.16 23.842 19.657 1.711 4.074-.205 8.763-4.279 10.473-4.068 1.709-8.763-.205-10.473-4.279-3.99-9.503-13.739-11.951-21.62-10.162-5.723 1.298-11.714 5.23-11.367 12.374.119 2.456.436 8.978 17.27 11.742 20.206 3.319 31.337 12.297 33.083 26.684zm-385.294-344.852h43.9c4.418 0 8-3.582 8-8v-43.901c0-4.418-3.582-8-8-8h-43.9c-4.418 0-8 3.582-8 8v43.901c0 4.419 3.582 8 8 8zm8-43.901h27.9v27.901h-27.9zm59.704-1.044c0-4.418 3.582-8 8-8h100.485c4.418 0 8 3.582 8 8s-3.582 8-8 8h-100.485c-4.418 0-8-3.582-8-8zm0 29.989c0-4.418 3.582-8 8-8h137.847c4.418 0 8 3.582 8 8s-3.582 8-8 8h-137.847c-4.418 0-8-3.582-8-8zm-67.704 84.93h43.9c4.418 0 8-3.582 8-8v-43.901c0-4.418-3.582-8-8-8h-43.9c-4.418 0-8 3.582-8 8v43.901c0 4.418 3.582 8 8 8zm8-43.902h27.9v27.901h-27.9zm59.704-1.044c0-4.418 3.582-8 8-8h100.485c4.418 0 8 3.582 8 8s-3.582 8-8 8h-100.485c-4.418 0-8-3.581-8-8zm0 29.99c0-4.418 3.582-8 8-8h137.847c4.418 0 8 3.582 8 8s-3.582 8-8 8h-137.847c-4.418 0-8-3.582-8-8z"/></svg>