<svg id="_x33_0" enable-background="new 0 0 64 64" height="512" viewBox="0 0 64 64" width="512" xmlns="http://www.w3.org/2000/svg"><g><path d="m57.748 8.665-1.496-1.33-7.295 8.208-2.25-2.25-1.414 1.414 3.75 3.75z"/><path d="m63 12c0-6.065-4.935-11-11-11s-11 4.935-11 11c0 1.801.444 3.498 1.214 5h-5.867l.501-3.006c.101-.606.152-1.223.152-1.835 0-6.153-5.006-11.159-11.159-11.159h-7.682c-6.153 0-11.159 5.006-11.159 11.159 0 .611.051 1.229.152 1.835l.756 4.537c-.541.682-.877 1.533-.877 2.469 0 2.206 1.794 4 4 4h.396c.805 2.832 2.711 5.201 5.232 6.608l-.506 2.53-7.08 1.287c-2.334.425-4.436 1.679-5.919 3.531-1.389 1.736-2.154 3.918-2.154 6.142v17.902h42v-4h20zm-11-9c4.962 0 9 4.038 9 9s-4.038 9-9 9-9-4.038-9-9 4.038-9 9-9zm0 20c3.72 0 7.008-1.861 9-4.695v6.695h-27.969c2.206 0 4-1.794 4-4 0-.732-.212-1.409-.556-2h7.047c2.019 2.441 5.07 4 8.478 4zm-19-1v-3h.031c1.103 0 2 .897 2 2s-.897 2-2 2h-.081c.029-.33.05-.662.05-1zm-14.841-19h7.682c5.05 0 9.159 4.109 9.159 9.159 0 .502-.042 1.009-.125 1.506l-.593 3.555c-.395-.131-.811-.22-1.251-.22h-.587c-.694-1.19-1.97-2-3.444-2h-5.031c-2.818 0-5.509-1.346-7.2-3.6l-.602-.803-.801.605c-1.924 1.454-3.286 3.514-3.934 5.798h-.402c-.461 0-.898.094-1.31.239l-.596-3.573c-.082-.498-.124-1.005-.124-1.507 0-5.05 4.109-9.159 9.159-9.159zm-7.128 20c-1.103 0-2-.897-2-2s.897-2 2-2h.027c-.03.324-.058.648-.058.975v2.025c0 .338.021.67.051 1zm1.969-1v-2.025c0-2.484 1.048-4.874 2.843-6.562 2.07 2.263 5.036 3.587 8.126 3.587h5.031c1.103 0 2 .897 2 2v3c0 4.962-4.038 9-9 9s-9-4.038-9-9zm24 14.055c-.663-.281-1.355-.499-2.073-.629l-7.08-1.288-.227-1.138h9.38zm-16.153 8.945h2.306l2.667 16h-7.64zm2.367-2h-2.428l-.559-2.301 1.773-1.418 1.772 1.418zm.534-4.883 3.444-2.066 1.178.214-1.771 4.133zm-1.748-5.117c1.212 0 2.375-.205 3.467-.568l.415 2.073-3.882 2.329-3.881-2.329.415-2.073c1.091.363 2.254.568 3.466.568zm-5.192 3.051 3.444 2.066-2.851 2.281-1.771-4.133zm-13.808 9.047c0-1.771.609-3.509 1.716-4.892 1.181-1.477 2.855-2.476 4.715-2.813l4.181-.76 2.987 6.969 1.906-1.524.476 1.96-2.828 16.962h-5.153v-14h-2v14h-6zm38 15.902h-6v-14h-2v14h-5.153l-2.827-16.963.476-1.96 1.906 1.524 2.987-6.969 4.181.761c1.859.337 3.534 1.336 4.715 2.813 1.106 1.383 1.715 3.12 1.715 4.892zm2-14h4v4h-4zm0 10v-4h6v-8h-6.004c-.022-2.19-.781-4.333-2.15-6.044-.539-.673-1.162-1.265-1.846-1.769v-6.187h-10.695c1.462-1.027 2.66-2.4 3.481-4h29.214v30z"/><path d="m51 53h8v-8h-8zm2-6h4v4h-4z"/><path d="m43 31h16v2h-16z"/><path d="m43 35h16v2h-16z"/><path d="m43 39h8v2h-8z"/><path d="m53 39h2v2h-2z"/><path d="m57 39h2v2h-2z"/></g></svg>