<?xml version="1.0" encoding="UTF-8"?>
<svg xmlns="http://www.w3.org/2000/svg" viewBox="0 0 60 60" width="512" height="512"><g id="Icons"><path d="M55,41a2,2,0,0,1-2-2,1,1,0,0,0-1-1H24a1,1,0,0,0-1,1,2,2,0,0,1-2,2,1,1,0,0,0-1,1V52a1,1,0,0,0,1,1,2,2,0,0,1,2,2,1,1,0,0,0,1,1H52a1,1,0,0,0,1-1,2,2,0,0,1,2-2,1,1,0,0,0,1-1V42A1,1,0,0,0,55,41ZM54,51.126A4.016,4.016,0,0,0,51.126,54H24.874A4.016,4.016,0,0,0,22,51.126V42.874A4.016,4.016,0,0,0,24.874,40H51.126A4.016,4.016,0,0,0,54,42.874Z"/><path d="M27,44a3,3,0,1,0,3,3A3,3,0,0,0,27,44Zm0,4a1,1,0,1,1,1-1A1,1,0,0,1,27,48Z"/><path d="M49,44a3,3,0,1,0,3,3A3,3,0,0,0,49,44Zm0,4a1,1,0,1,1,1-1A1,1,0,0,1,49,48Z"/><path d="M38,42a5,5,0,1,0,5,5A5.006,5.006,0,0,0,38,42Zm0,8a3,3,0,1,1,3-3A3,3,0,0,1,38,50Z"/><path d="M58,34H44V9a5.006,5.006,0,0,0-5-5H31.722A1.993,1.993,0,0,0,30,3H26.582a5,5,0,0,0-9.164,0H14a1.993,1.993,0,0,0-1.722,1H5A5.006,5.006,0,0,0,0,9V51a5.006,5.006,0,0,0,5,5H16v2a2,2,0,0,0,2,2H58a2,2,0,0,0,2-2V36A2,2,0,0,0,58,34ZM42,9V34H40V10a2,2,0,0,0-2-2H32V6h7A3,3,0,0,1,42,9ZM14,5h4.13a1,1,0,0,0,.969-.753,3,3,0,0,1,5.8,0A1,1,0,0,0,25.87,5H30V9H14ZM5,54a3,3,0,0,1-3-3V9A3,3,0,0,1,5,6h7V8H6a2,2,0,0,0-2,2V50a2,2,0,0,0,2,2H16v2ZM16,36V50H6V10h6.278A1.993,1.993,0,0,0,14,11H30a1.993,1.993,0,0,0,1.722-1H38V34H18A2,2,0,0,0,16,36Zm2,22V36H58V58Z"/><path d="M12.2,15.4,9.892,18.478l-.185-.185a1,1,0,0,0-1.414,1.414l1,1A1,1,0,0,0,10,21l.071,0a1,1,0,0,0,.729-.4l3-4a1,1,0,1,0-1.6-1.2Z"/><path d="M18,17H34a1,1,0,0,0,0-2H18a1,1,0,0,0,0,2Z"/><path d="M18,21H28a1,1,0,0,0,0-2H18a1,1,0,0,0,0,2Z"/><path d="M12.2,26.4,9.892,29.478l-.185-.185a1,1,0,0,0-1.414,1.414l1,1A1,1,0,0,0,10,32l.071,0a1,1,0,0,0,.729-.4l3-4a1,1,0,0,0-1.6-1.2Z"/><path d="M18,28H34a1,1,0,0,0,0-2H18a1,1,0,0,0,0,2Z"/><path d="M28,32a1,1,0,0,0,0-2H18a1,1,0,0,0,0,2Z"/><path d="M12.2,37.4,9.892,40.478l-.185-.185a1,1,0,0,0-1.414,1.414l1,1A1,1,0,0,0,10,43l.071,0a1,1,0,0,0,.729-.4l3-4a1,1,0,1,0-1.6-1.2Z"/></g></svg>
