<svg id="Layer_1" enable-background="new 0 0 500 500" viewBox="0 0 500 500" xmlns="http://www.w3.org/2000/svg"><g><path d="m314.411 135.212c-4.62 0-8.364-3.745-8.364-8.365 0-14.84-12.071-26.91-26.91-26.91h-22.622c-4.621 0-8.365-3.744-8.365-8.365 0-16.528-13.448-29.975-29.979-29.975-16.527 0-29.975 13.448-29.975 29.975 0 4.621-3.745 8.365-8.365 8.365h-22.621c-14.84 0-26.91 12.07-26.91 26.91 0 4.62-3.744 8.365-8.365 8.365s-8.365-3.745-8.365-8.365c0-24.062 19.578-43.64 43.64-43.64h15.008c3.952-21.774 23.054-38.34 45.954-38.34s42.003 16.566 45.956 38.34h15.009c24.062 0 43.638 19.578 43.638 43.64.001 4.62-3.743 8.365-8.364 8.365z"/><path d="m384.576 392.358h-332.805c-14.761 0-26.771-12.008-26.771-26.769v-220.338c0-14.761 12.01-26.768 26.771-26.768h70.165c4.621 0 8.365 3.744 8.365 8.365 0 2.886 1.125 5.595 3.17 7.632 2.034 2.026 4.732 3.142 7.602 3.142.038 0 44.464-.15 44.464-.15 4.635 0 8.376 3.728 8.392 8.338.017 4.618-3.716 8.375-8.337 8.392l-44.426.15c-7.182-.044-14.289-2.827-19.503-8.022-3.175-3.164-5.481-6.964-6.802-11.117h-63.09c-5.538 0-10.042 4.503-10.042 10.039v220.339c0 5.536 4.504 10.039 10.042 10.039h332.806c5.536 0 10.04-4.503 10.04-10.039v-220.34c0-5.536-4.504-10.039-10.04-10.039h-63.088c-1.32 4.149-3.627 7.951-6.801 11.115-5.212 5.197-12.204 7.869-19.507 8.024l-44.426-.15c-4.621-.017-8.354-3.774-8.337-8.392.016-4.61 3.757-8.338 8.365-8.338.027 0 44.453.15 44.453.15 2.907 0 5.608-1.117 7.643-3.145 2.045-2.037 3.17-4.746 3.17-7.629 0-4.621 3.744-8.365 8.364-8.365h70.165c14.761 0 26.768 12.008 26.768 26.768v220.339c-.002 14.761-12.009 26.769-26.77 26.769z"/><path d="m416.403 423.747h-332.805c-14.761 0-26.768-12.009-26.768-26.768v-12.988c0-4.621 3.744-8.365 8.365-8.365s8.365 3.744 8.365 8.365v12.988c0 5.535 4.503 10.039 10.039 10.039h332.805c5.536 0 10.04-4.504 10.04-10.039v-220.339c0-5.536-4.504-10.04-10.04-10.04h-13.423c-4.621 0-8.365-3.744-8.365-8.364 0-4.621 3.744-8.365 8.365-8.365h13.423c14.761 0 26.769 12.008 26.769 26.768v220.339c0 14.76-12.009 26.769-26.77 26.769z"/><path d="m448.232 455.133h-332.807c-14.761 0-26.768-12.008-26.768-26.768v-12.982c0-4.621 3.744-8.365 8.365-8.365s8.365 3.744 8.365 8.365v12.982c0 5.536 4.503 10.039 10.038 10.039h332.807c5.535 0 10.039-4.503 10.039-10.039v-220.339c0-5.536-4.504-10.039-10.039-10.039h-13.424c-4.621 0-8.365-3.744-8.365-8.365s3.744-8.365 8.365-8.365h13.424c14.76 0 26.768 12.008 26.768 26.768v220.339c0 14.761-12.009 26.769-26.768 26.769z"/><path d="m80.913 355.024c-11.351 0-20.585-9.233-20.585-20.585v-48.68c0-21.962 17.87-39.832 39.833-39.832 4.62 0 8.364 3.744 8.364 8.365s-3.744 8.365-8.364 8.365c-12.741 0-23.104 10.363-23.104 23.103v48.68c0 2.127 1.729 3.856 3.855 3.856 2.127 0 3.856-1.729 3.856-3.856v-30.436c0-4.621 3.744-8.365 8.365-8.365s8.365 3.744 8.365 8.365v30.436c0 11.351-9.233 20.584-20.585 20.584z"/><path d="m172.565 355.024c-11.352 0-20.585-9.233-20.585-20.585v-30.436c0-4.621 3.744-8.365 8.365-8.365 4.62 0 8.364 3.744 8.364 8.365v30.436c0 2.127 1.73 3.856 3.856 3.856 2.127 0 3.855-1.729 3.855-3.856v-48.68c0-12.74-10.363-23.103-23.103-23.103-4.621 0-8.365-3.744-8.365-8.365s3.744-8.365 8.365-8.365c21.962 0 39.832 17.87 39.832 39.832v48.68c0 11.353-9.233 20.586-20.584 20.586z"/><path d="m126.739 244.883c-19.284 0-34.97-15.687-34.97-34.97s15.686-34.97 34.97-34.97c19.283 0 34.97 15.687 34.97 34.97s-15.687 34.97-34.97 34.97zm0-53.21c-10.059 0-18.241 8.182-18.241 18.24s8.182 18.24 18.241 18.24c10.058 0 18.24-8.182 18.24-18.24s-8.182-18.24-18.24-18.24z"/><path d="m126.739 274.477c-7.401 0-14.801-2.172-21.261-6.518l-9.992-6.727c-3.831-2.582-4.844-7.779-2.263-11.614 2.582-3.826 7.773-4.838 11.613-2.263l9.982 6.726c7.246 4.871 16.601 4.868 23.836.002l9.99-6.728c3.84-2.581 9.032-1.563 11.61 2.266 2.582 3.833 1.566 9.031-2.265 11.61l-9.993 6.727c-6.455 4.346-13.857 6.519-21.257 6.519z"/><path d="m172.565 355.024h-91.652c-4.62 0-8.364-3.744-8.364-8.365 0-4.62 3.744-8.364 8.364-8.364h91.652c4.621 0 8.365 3.744 8.365 8.364-.001 4.621-3.744 8.365-8.365 8.365z"/><path d="m335.233 213.11h-79.251c-4.621 0-8.365-3.744-8.365-8.365s3.744-8.365 8.365-8.365h79.251c4.621 0 8.365 3.744 8.365 8.365s-3.744 8.365-8.365 8.365z"/><path d="m360.215 258.69h-129.216c-4.62 0-8.364-3.744-8.364-8.365s3.744-8.365 8.364-8.365h129.216c4.621 0 8.365 3.744 8.365 8.365s-3.744 8.365-8.365 8.365z"/><path d="m360.215 295.173h-129.216c-4.62 0-8.364-3.744-8.364-8.365s3.744-8.365 8.364-8.365h129.216c4.621 0 8.365 3.744 8.365 8.365s-3.744 8.365-8.365 8.365z"/><path d="m360.215 331.655h-129.216c-4.62 0-8.364-3.745-8.364-8.365 0-4.621 3.744-8.365 8.364-8.365h129.216c4.621 0 8.365 3.744 8.365 8.365-.001 4.62-3.744 8.365-8.365 8.365z"/></g></svg>