<svg id="Layer_1" viewBox="0 0 512 512" xmlns="http://www.w3.org/2000/svg" data-name="Layer 1"><path d="m104.69 48.33c-18.49 0-33.54 15.05-33.54 33.54s15.05 33.54 33.54 33.54 33.54-15.05 33.54-33.54-15.05-33.54-33.54-33.54zm0 53.08c-10.78 0-19.54-8.77-19.54-19.54s8.77-19.54 19.54-19.54 19.54 8.77 19.54 19.54-8.77 19.54-19.54 19.54zm186.96 78.75h-131.2c-3.87 0-7-3.13-7-7s3.13-7 7-7h131.2c3.87 0 7 3.13 7 7s-3.13 7-7 7zm-31.66 48.01h-99.54c-3.87 0-7-3.13-7-7s3.13-7 7-7h99.54c3.87 0 7 3.13 7 7s-3.13 7-7 7zm-54.99 48.01h-44.55c-3.87 0-7-3.13-7-7s3.13-7 7-7h44.55c3.87 0 7 3.13 7 7s-3.13 7-7 7zm-17.77 48.01h-26.78c-3.87 0-7-3.13-7-7s3.13-7 7-7h26.78c3.87 0 7 3.13 7 7s-3.13 7-7 7zm-16.11 34.01c3.87 0 7 3.13 7 7s-3.13 7-7 7h-10.67c-3.87 0-7-3.13-7-7s3.13-7 7-7zm162.59-204.33h28.27c3.87 0 7-3.13 7-7v-28.27c0-3.87-3.13-7-7-7h-28.27c-3.87 0-7 3.13-7 7v28.27c0 3.87 3.13 7 7 7zm7-28.27h14.27v14.27h-14.27zm-14 78.73c0 3.87 3.13 7 7 7h28.27c3.87 0 7-3.13 7-7v-28.27c0-3.87-3.13-7-7-7h-28.27c-3.87 0-7 3.13-7 7zm14-21.27h14.27v14.27h-14.27zm135.98 204.43-59.13-34.14c-2.17-1.25-4.83-1.25-7 0l-59.14 34.14c-2.17 1.25-3.5 3.56-3.5 6.06v68.28c0 2.5 1.33 4.81 3.5 6.06l59.14 34.14c1.08.62 2.29.94 3.5.94s2.42-.31 3.5-.94l59.13-34.14c2.17-1.25 3.5-3.56 3.5-6.06v-68.28c0-2.5-1.33-4.81-3.5-6.06zm-62.63-20 45.13 26.06-45.13 26.06-45.14-26.06zm-52.14 38.18 45.14 26.06v52.12l-45.14-26.06zm59.14 78.18v-52.12l45.13-26.06v52.12zm-14.76-136.8c2.17-1.25 3.5-3.56 3.5-6.06v-68.28c0-2.5-1.33-4.81-3.5-6.06l-11.51-6.65v-181.44c0-3.87-3.13-7-7-7h-71.94l-1.55-7.38c-.68-3.24-3.54-5.56-6.85-5.56h-104.79c-3.31 0-6.17 2.32-6.85 5.56l-1.55 7.38h-17.02c-.62-2-2.13-3.66-4.16-4.45l-12.25-4.74c-.76-2.18-1.65-4.33-2.66-6.41l5.31-12.02c1.17-2.64.59-5.73-1.45-7.78l-11.64-11.64c-2.04-2.04-5.14-2.62-7.78-1.45l-12.02 5.31c-2.08-1.01-4.22-1.9-6.41-2.66l-4.74-12.26c-1.04-2.7-3.64-4.47-6.53-4.47h-16.46c-2.89 0-5.48 1.78-6.53 4.47l-4.74 12.26c-2.18.76-4.32 1.65-6.41 2.66l-12.02-5.31c-2.64-1.17-5.74-.59-7.78 1.45l-11.64 11.64c-2.04 2.04-2.62 5.13-1.45 7.78l5.31 12.02c-1.01 2.08-1.9 4.22-2.66 6.41l-12.25 4.74c-2.7 1.04-4.47 3.64-4.47 6.53v16.46c0 2.89 1.78 5.48 4.47 6.53l12.26 4.74c.76 2.18 1.65 4.32 2.66 6.41l-5.31 12.03c-1.17 2.64-.59 5.73 1.45 7.78l11.64 11.64c2.04 2.04 5.14 2.62 7.78 1.45l12.02-5.31c2.08 1.01 4.22 1.9 6.41 2.66l4.74 12.25c1.04 2.7 3.64 4.47 6.53 4.47h16.46c.84 0 1.65-.17 2.41-.44v257.5c0 3.87 3.13 7 7 7h84.81v43.05c0 2.5 1.33 4.81 3.5 6.06l59.14 34.14c1.08.62 2.29.94 3.5.94s2.42-.31 3.5-.94l59.14-34.14c2.17-1.25 3.5-3.56 3.5-6.06v-68.28c0-2.5-1.33-4.81-3.5-6.06l-59.14-34.14c-2.17-1.25-4.83-1.25-7 0l-59.14 34.14c-2.17 1.25-3.5 3.56-3.5 6.06v11.23h-77.81v-268.88c.42-.19.85-.37 1.27-.57l12.03 5.31c2.64 1.17 5.73.59 7.78-1.45l7.54-7.54c.78.3 1.63.47 2.51.47h131.2c3.87 0 7-3.13 7-7s-3.13-7-7-7h-128.88l-4.59-10.38c1.01-2.08 1.9-4.22 2.66-6.41l12.26-4.74c2.7-1.04 4.47-3.64 4.47-6.53v-4.54h13.76l-1.93 9.21c-.43 2.06.09 4.21 1.42 5.85s3.33 2.59 5.43 2.59h117.64c2.11 0 4.11-.95 5.43-2.59 1.33-1.64 1.85-3.79 1.42-5.85l-1.93-9.21h62v166.38l-33.62-19.41c-2.17-1.25-4.83-1.25-7 0l-59.14 34.14c-2.17 1.25-3.5 3.56-3.5 6.06v68.28c0 2.5 1.33 4.81 3.5 6.06l59.13 34.14s0 0 .01 0c.81.47 1.7.76 2.6.88.3.04.6.06.9.06s.6-.02.9-.06c.9-.12 1.78-.41 2.6-.88h.01l59.12-34.14zm-185.16 58.62 45.14 26.06v52.12l-45.14-26.06zm59.14 78.18v-52.12l45.14-26.06v52.12zm-7-116.36 45.14 26.06-45.14 26.06-45.14-26.06zm-109.72-282.18-10.92 4.23c-2.06.8-3.62 2.51-4.21 4.64-.97 3.46-2.36 6.8-4.12 9.93-1.08 1.92-1.19 4.24-.3 6.26l4.74 10.72-4.85 4.85-10.72-4.74c-2.02-.89-4.34-.78-6.26.3-3.14 1.77-6.48 3.15-9.93 4.12-2.12.6-3.84 2.16-4.64 4.21l-4.23 10.92h-6.87l-4.23-10.92c-.8-2.06-2.51-3.62-4.64-4.21-3.46-.97-6.8-2.36-9.93-4.12-1.92-1.08-4.24-1.19-6.26-.3l-10.72 4.74-4.85-4.85 4.74-10.72c.89-2.02.78-4.34-.3-6.26-1.76-3.14-3.15-6.48-4.12-9.93-.6-2.12-2.16-3.84-4.21-4.64l-10.92-4.23v-6.87l10.92-4.23c2.06-.8 3.62-2.51 4.21-4.64.97-3.45 2.35-6.8 4.12-9.93 1.08-1.92 1.19-4.24.3-6.26l-4.74-10.72 4.85-4.85 10.72 4.74c2.02.89 4.34.78 6.26-.3 3.14-1.77 6.48-3.15 9.93-4.12 2.12-.6 3.84-2.16 4.64-4.21l4.23-10.92h6.87l4.23 10.92c.8 2.06 2.51 3.62 4.64 4.21 3.45.97 6.79 2.35 9.93 4.12 1.92 1.08 4.24 1.19 6.26.3l10.72-4.74 4.85 4.85-4.74 10.72c-.89 2.02-.78 4.34.3 6.26 1.76 3.14 3.15 6.48 4.12 9.93.6 2.12 2.16 3.84 4.21 4.64l10.92 4.23zm41.3 3.91 1.93-9.2s.01-.05.02-.07l1.54-7.32h93.42l1.54 7.33s0 .04.01.07l1.93 9.2h-100.39zm145.8 273.82v-52.12l45.14-26.06v52.12zm-7-116.36 45.14 26.06-45.14 26.06-45.14-26.06zm-52.14 38.18 45.14 26.06v52.12l-45.14-26.06z" fill="rgb(0,0,0)"/></svg>