<svg id="Layer_1" height="512" viewBox="0 0 512 512" width="512" xmlns="http://www.w3.org/2000/svg" data-name="Layer 1"><path d="m442.531 385.925-13.122-144.319h13.712a28.788 28.788 0 1 0 0-57.576h-21.766a28.491 28.491 0 0 0 -19.311 7.622 7.007 7.007 0 0 0 -2.1-.425v-28.788a21.551 21.551 0 0 0 -15.546-20.623c-2.315-8.184-9.163-15.17-20.438-15.361h-14.399a21.591 21.591 0 1 0 0 43.181h14.513c9.78-.162 16.213-5.549 19.238-12.368a7.143 7.143 0 0 1 2.233 5.171v28.788h-39.583a17.993 17.993 0 0 0 0 35.985h25.768l9.128 109.543a45.01 45.01 0 0 1 -44.9 48.79h-.063a45 45 0 0 1 -44.805-48.323 50.448 50.448 0 0 0 12.095-15.55 20.513 20.513 0 0 0 -18.344-29.687h-129.648a20.51 20.51 0 0 0 -18.344 29.68 50.668 50.668 0 0 0 8.515 12.149l-11.645 31.052a23.426 23.426 0 1 0 -15.647 44.1 35.653 35.653 0 0 0 16.841 36.045c1.449 30.67 24.947 47.4 48.59 48.113 24.928.665 47.169-15.393 51.234-42.8h151.429c4.119 29.334 27.9 42.8 49.751 42.8h.014c21.854-.006 45.635-13.473 49.752-42.8 5 0 7.817-3.416 7.817-7.2a57.655 57.655 0 0 0 -50.969-57.199zm4.254-186.953a14.309 14.309 0 0 1 -.008 27.711c-7.769-1.783-10.614-8.449-10.614-13.851s2.837-12.052 10.622-13.86zm-82.9-43.73h-14.324a7.2 7.2 0 0 1 0-14.394h14.274c6.768.113 7.113 6.024 7.113 7.2s-.348 7.052-7.064 7.194zm-241.568 240.028a9.06 9.06 0 1 1 5.838-17.125l.508.2zm299.4-196.846h3.733a29.955 29.955 0 0 0 0 28.788h-3.79c-10.542-.3-14.285-7.927-14.285-14.387 0-6.48 3.753-14.134 14.345-14.401zm-75.758 14.394a3.6 3.6 0 0 1 0-7.2h48a30.312 30.312 0 0 0 -.982 7.2zm-190.766 93.561h129.644a6.122 6.122 0 0 1 5.468 8.862 35.8 35.8 0 0 1 -32.2 19.919l-76.165.007a35.9 35.9 0 0 1 -32.211-19.933 6.118 6.118 0 0 1 5.464-8.855zm28.739 172.355c-15.4-.465-30.711-9.553-34.061-28.644 3.145.329-2.737.228 70.25.228-4.021 20.067-20.752 28.868-36.189 28.416zm251.992-.007h-.007c-15.491 0-31.295-8.9-35.073-28.409h70.162c-3.771 19.498-19.577 28.409-35.082 28.409zm-282.324-42.803a21.569 21.569 0 0 1 -20.221-29.167l23.892-63.7a50.25 50.25 0 0 0 24.66 6.5l76.165-.007a50.462 50.462 0 0 0 18.684-3.65 59.442 59.442 0 0 0 59.1 54.035h.077a59.466 59.466 0 0 0 59.243-64.375l-9.024-108.348h10.524a27.083 27.083 0 0 0 18.181 13.611l13.874 152.577a7.2 7.2 0 0 0 7.169 6.543 43.215 43.215 0 0 1 42.532 35.985zm59.213-71.969h-28.783a21.614 21.614 0 0 0 -21.591 21.59v21.591a7.193 7.193 0 0 0 7.2 7.2h57.576a7.193 7.193 0 0 0 7.2-7.2v-21.591a21.614 21.614 0 0 0 -21.597-21.59zm7.2 35.984h-43.18v-14.394a7.2 7.2 0 0 1 7.2-7.2h28.788a7.2 7.2 0 0 1 7.2 7.2zm24.707-220.266-12.083-10.247c-4.757-46.131-39.27-67.3-70.092-67.353h-.1c-30.84 0-65.4 21.164-70.266 67.407l-11.802 10.02c-4.575 3.577-2.572 8.561-.45 13.832 2.346 5.839 6.333 13.86 11.794 19.337v9.191c0 10.795 7.351 19.988 17.416 21.843a287.523 287.523 0 0 0 53.274 5.1 287.478 287.478 0 0 0 53.247-5.088c9.98-1.821 17.5-11.218 17.5-21.858v-9.418c9.059-8.621 13.36-23.552 13.86-25.408a7.191 7.191 0 0 0 -2.298-7.358zm-82.281-63.206h.085c24.376.033 50.047 15.688 55.36 50.337a529.5 529.5 0 0 1 -110.93 0c5.418-34.711 31.111-50.337 55.485-50.337zm56.325 105.39c0 3.732-2.5 7.119-5.777 7.717a272.887 272.887 0 0 1 -50.576 4.835 272.718 272.718 0 0 1 -50.589-4.849c-3.254-.6-5.707-3.915-5.707-7.7v-3.168c9.241-.074 14.384-3.671 18.133-6.321 3.219-2.277 5.165-3.654 9.881-3.654 4.808 0 6.881 1.469 10.016 3.69 3.964 2.811 8.9 6.311 18.2 6.311 9.383 0 14.345-3.507 18.33-6.333 3.233-2.284 5.187-3.668 9.945-3.668 4.807 0 6.881 1.469 10.022 3.69 3.957 2.8 8.882 6.267 18.119 6.3zm3.107-18.618a5.3 5.3 0 0 1 -2.966 1.082c-4.758 0-6.712-1.385-9.945-3.669-3.992-2.825-8.954-6.332-18.337-6.332-9.334 0-14.282 3.5-18.26 6.311-3.247 2.305-5.208 3.69-10.015 3.69-4.716 0-6.663-1.378-9.882-3.662-3.774-2.671-8.947-6.339-18.337-6.339-9.291 0-14.225 3.493-18.2 6.3-3.148 2.228-5.229 3.7-10.8 3.739a2.453 2.453 0 0 1 -1.256-.3 7.25 7.25 0 0 0 -.963-.65c-3.36-2.554-7.625-10.148-9.856-15.808l8.125-6.888a545.1 545.1 0 0 0 122.5-.007l8.047 6.824c-2.126 5.75-5.751 12.883-9.855 15.709zm-79.336-59.158a7.2 7.2 0 0 1 .324 10.177l-4.541 4.836a7.2 7.2 0 0 1 -10.5-9.854l4.54-4.835a7.2 7.2 0 0 1 10.177-.324zm17.339-5.032-5.391-5.749a7.2 7.2 0 0 1 10.5-9.84l5.39 5.75a7.195 7.195 0 1 1 -10.5 9.839zm22.533 7.795a7.2 7.2 0 0 1 9.832-2.636l4.534 2.615a7.2 7.2 0 0 1 -7.2 12.468l-4.534-2.615a7.2 7.2 0 0 1 -2.632-9.832zm-163.907 310.671v-403.03a36.027 36.027 0 0 1 35.985-35.985h215.909a36.027 36.027 0 0 1 35.985 35.985v217.638a7.2 7.2 0 1 1 -14.394 0v-217.638a21.615 21.615 0 0 0 -21.591-21.591h-215.909a21.615 21.615 0 0 0 -21.591 21.591v403.03a21.615 21.615 0 0 0 21.591 21.591h72.975a7.2 7.2 0 1 1 0 14.394h-72.975a36.027 36.027 0 0 1 -35.985-35.985zm244.7-185.68v-202.956a7.2 7.2 0 0 0 -7.2-7.2h-187.121a7.2 7.2 0 0 0 -7.2 7.2v374.242a7.2 7.2 0 0 0 7.2 7.2h46.71a7.2 7.2 0 1 1 0 14.394h-46.71a21.615 21.615 0 0 1 -21.591-21.591v-374.245a21.615 21.615 0 0 1 21.591-21.591h187.121a21.615 21.615 0 0 1 21.591 21.591v202.956a7.2 7.2 0 1 1 -14.394 0zm-21.591 7.014h-158.336v-14.394h158.333zm-115.151 27.53h-43.185v-14.394h43.182zm0 25.189h-43.185v-14.394h43.182zm-43.182 10.8h43.182v14.394h-43.185zm74.054-261.183a7.306 7.306 0 0 1 0-10.219c2.362-2.362 6.311-3.141 10.219 0a7.226 7.226 0 1 1 -10.219 10.219z"/></svg>