<svg id="Layer_5" enable-background="new 0 0 64 64" height="512" viewBox="0 0 64 64" width="512" xmlns="http://www.w3.org/2000/svg"><g><path d="m27 50c-9.925 0-18-8.075-18-18s8.075-18 18-18c2.976 0 5.924.741 8.526 2.143l1.474.795v-6.765l-.607-.26c-1.233-.526-2.518-.949-3.826-1.261l-.833-2.652h-9.469l-.833 2.652c-2.476.588-4.826 1.563-7.001 2.905l-2.469-1.29-6.695 6.695 1.289 2.469c-1.342 2.176-2.317 4.526-2.904 7.002l-2.652.833v9.469l2.653.832c.587 2.476 1.563 4.826 2.904 7.002l-1.289 2.469 6.695 6.695 2.469-1.29c2.175 1.342 4.525 2.317 7.001 2.905l.833 2.652h9.469l.833-2.652c1.308-.312 2.592-.734 3.826-1.261l.606-.26v-6.765l-1.474.795c-2.602 1.402-5.55 2.143-8.526 2.143zm8 2.495c-1.109.434-2.257.777-3.422 1.024l-.572.121-.74 2.36h-6.531l-.74-2.359-.572-.121c-2.636-.558-5.125-1.59-7.396-3.068l-.49-.319-2.196 1.147-4.621-4.618 1.147-2.197-.319-.489c-1.479-2.272-2.511-4.762-3.068-7.397l-.121-.572-2.359-.741v-6.531l2.359-.74.121-.572c.558-2.636 1.59-5.125 3.068-7.397l.319-.489-1.147-2.199 4.619-4.617 2.196 1.147.49-.319c2.271-1.479 4.76-2.511 7.396-3.068l.572-.121.741-2.36h6.531l.74 2.359.572.121c1.165.247 2.313.591 3.422 1.024v2.161c-2.508-1.093-5.244-1.665-7.999-1.665-11.028 0-20 8.972-20 20s8.972 20 20 20c2.755 0 5.491-.572 8-1.666z"/><path d="m51 19h8v2h-8z"/><path d="m50 13h10c1.654 0 3-1.346 3-3v-4c0-1.654-1.346-3-3-3h-10c-1.654 0-3 1.346-3 3v1h-6v24h-4v-7c0-1.654-1.346-3-3-3h-16c-1.654 0-3 1.346-3 3v16c0 1.654 1.346 3 3 3h16c1.654 0 3-1.346 3-3v-7h4v24h6v1c0 1.654 1.346 3 3 3h10c1.654 0 3-1.346 3-3v-4c0-1.654-1.346-3-3-3h-10c-1.654 0-3 1.346-3 3v1h-4v-10h4v1c0 1.654 1.346 3 3 3h10c1.654 0 3-1.346 3-3v-4c0-1.654-1.346-3-3-3h-10c-1.654 0-3 1.346-3 3v1h-4v-10h4v1c0 1.654 1.346 3 3 3h10c1.654 0 3-1.346 3-3v-4c0-1.654-1.346-3-3-3h-10c-1.654 0-3 1.346-3 3v1h-4v-10h4v1c0 1.654 1.346 3 3 3h10c1.654 0 3-1.346 3-3v-4c0-1.654-1.346-3-3-3h-10c-1.654 0-3 1.346-3 3v1h-4v-10h4v1c0 1.654 1.346 3 3 3zm-27 10h6v4h-6zm12 17c0 .552-.449 1-1 1h-16c-.551 0-1-.448-1-1v-16c0-.552.449-1 1-1h3v6h10v-6h3c.551 0 1 .448 1 1zm14 14c0-.552.449-1 1-1h10c.551 0 1 .448 1 1v4c0 .552-.449 1-1 1h-10c-.551 0-1-.448-1-1zm0-12c0-.552.449-1 1-1h10c.551 0 1 .448 1 1v4c0 .552-.449 1-1 1h-10c-.551 0-1-.448-1-1zm0-12c0-.552.449-1 1-1h10c.551 0 1 .448 1 1v4c0 .552-.449 1-1 1h-10c-.551 0-1-.448-1-1zm0-12c0-.552.449-1 1-1h10c.551 0 1 .448 1 1v4c0 .552-.449 1-1 1h-10c-.551 0-1-.448-1-1zm0-12c0-.552.449-1 1-1h10c.551 0 1 .448 1 1v4c0 .552-.449 1-1 1h-10c-.551 0-1-.448-1-1z"/><path d="m51 7h8v2h-8z"/><path d="m51 31h8v2h-8z"/><path d="m51 43h8v2h-8z"/><path d="m51 55h8v2h-8z"/></g></svg>