<svg clip-rule="evenodd" fill-rule="evenodd" height="173.397mm" image-rendering="optimizeQuality" shape-rendering="geometricPrecision" text-rendering="geometricPrecision" viewBox="0 0 173.397 173.397" width="173.397mm" xmlns="http://www.w3.org/2000/svg"><g id="Layer_x0020_1"><g id="_219256360"><path id="_219258304" d="m64.9229 26.1674h-22.5877c-.9228 0-1.6714-.745-1.6714-1.671.0006-.9227.7485-1.6711 1.671-1.6711l22.5881-.0001c.9219 0 1.6704.7486 1.6704 1.6712.0004.926-.7486 1.671-1.6704 1.671zm33.0692 0h-22.5869c-.9227 0-1.6715-.745-1.6715-1.671.0007-.9227.7485-1.6711 1.671-1.6711l22.5874-.0001c.9227 0 1.6711.7486 1.6711 1.6712.0006.926-.7487 1.671-1.6711 1.671zm33.07 0h-22.5868c-.9228 0-1.6717-.745-1.6717-1.671.0001-.9227.7484-1.6711 1.6711-1.6711l22.5874-.0001c.9228 0 1.671.7486 1.671 1.6712.0007.926-.7486 1.671-1.671 1.671zm25.8424 137.07h-140.412c-2.2599 0-4.1015-1.8415-4.1015-4.1045l.0001-132.203c0-2.2631 1.8415-4.1047 4.101-4.1047l15.3604-.0001c.9228 0 1.6707.7486 1.6707 1.6712.0002.926-.7485 1.671-1.6712 1.671h-15.3595c-.4175 0-.7593.3412-.7593.7626l.0003 132.203c0 .4212.3408.7624.7586.7624h140.412c.4183 0 .7588-.3412.7588-.7624l.0003-132.203c0-.2717-.1395-.4527-.2231-.5362-.0832-.0836-.2645-.2264-.5361-.2264h-15.3599c-.9219 0-1.6711-.745-1.6711-1.671.0002-.9227.7485-1.6711 1.6711-1.6711l15.36-.0001s-.0001.0001-.0001.0001c1.0936-.0001 2.1237.4282 2.9001 1.2046.7769.7763 1.201 1.8068 1.201 2.9001l.0005 132.203c0 2.2629-1.8387 4.1045-4.1015 4.1045z"/><path id="_219258088" d="m147.867 151.766h-122.336c-.9229 0-1.6717-.7449-1.6717-1.6711v-95.4322c0-.9226.7484-1.671 1.6712-1.671.9224-.0001 1.6708.7485 1.6708 1.671l.0004 93.7612h118.994v-93.7612c0-.9226.7484-1.671 1.6709-1.671.9227-.0001 1.671.7485 1.671 1.671l.0005 95.4322c0 .9262-.749 1.6711-1.6715 1.6711z"/><path id="_219257392" d="m159.334 56.3339h-145.271c-.9228 0-1.6717-.7487-1.6717-1.6712.0001-.9226.7485-1.671 1.6711-1.671l145.272-.0001c.9267 0 1.6711.7486 1.6711 1.6711.0005.9225-.7449 1.6712-1.6711 1.6712z"/><path id="_219258040" d="m136.306 13.502c-1.9709 0-3.5726 1.6015-3.5726 3.5686l.0007 14.855c0 1.9671 1.6006 3.5685 3.5712 3.5685 1.9676 0 3.5684-1.6014 3.5684-3.5684l.0002-14.8552c0-1.967-1.6017-3.5684-3.5679-3.5685zm0 25.3343c-3.8124 0-6.9148-3.0985-6.9148-6.9106l.0005-14.8552c0-3.8121 3.1014-6.9105 6.9136-6.9105 3.8123 0 6.9105 3.0985 6.9105 6.9106l.0006 14.855c0 3.8121-3.099 6.9107-6.9104 6.9107z"/><path id="_219257872" d="m103.236 13.502c-1.9709 0-3.5725 1.6015-3.5725 3.5686l.0006 14.855c0 1.9671 1.6007 3.5685 3.5713 3.5685 1.9675 0 3.5685-1.6014 3.5685-3.5684l.0001-14.8552c0-1.967-1.6016-3.5684-3.568-3.5685zm0 25.3343c-3.8124 0-6.9147-3.0985-6.9147-6.9106l.0003-14.8552c0-3.8121 3.1017-6.9105 6.9138-6.9105s6.9105 3.0985 6.9105 6.9106l.0004 14.855c0 3.8121-3.0988 6.9107-6.9103 6.9107z"/><path id="_219257824" d="m70.1656 13.502c-1.9709 0-3.5723 1.6015-3.5723 3.5686l.0004 14.855c0 1.9671 1.6009 3.5685 3.5715 3.5685 1.9673 0 3.5685-1.6014 3.5685-3.5684l.0007-14.8552c0-1.967-1.6022-3.5684-3.5688-3.5685zm0 25.3343c-3.8124 0-6.9145-3.0985-6.9145-6.9106l.0002-14.8552c0-3.8121 3.1017-6.9105 6.9139-6.9105 3.8089 0 6.9105 3.0985 6.9105 6.9106l.0003 14.855c0 3.8121-3.1021 6.9107-6.9104 6.9107z"/><path id="_219257728" d="m37.0956 13.502c-1.9701 0-3.5721 1.6015-3.5721 3.5686l.0002 14.855c0 1.9671 1.6012 3.5685 3.5717 3.5685 1.9671 0 3.5684-1.6014 3.5684-3.5684l.0006-14.8552c0-1.967-1.602-3.5684-3.5688-3.5685zm0 25.3343c-3.8124 0-6.9143-3.0985-6.9143-6.9106v-14.8552c0-3.8121 3.1019-6.9105 6.9141-6.9105 3.8087 0 6.9105 3.0985 6.9105 6.9106l.0001 14.855c0 3.8121-3.1019 6.9107-6.9104 6.9107z"/><path id="_219257680" d="m123.441 66.6666c-.4558 0-.8425.3899-.8425.846l.0006 11.5757c0 .456.3858.846.8418.846h11.576c.4598 0 .8457-.39.8457-.846l.0003-11.5757c0-.4561-.3868-.846-.8463-.846zm11.5759 16.6063h-11.5759c-2.3075 0-4.1847-1.8765-4.1847-4.1846l.0003-11.5757c0-2.3082 1.8762-4.1881 4.1843-4.1881h11.576c2.3085 0 4.1879 1.8799 4.1879 4.1881l.0005 11.5757c0 2.3081-1.8805 4.1846-4.1884 4.1846z"/><path id="_219257968" d="m94.1351 66.6666c-.4599 0-.8464.3899-.8464.846l.0004 11.5757c0 .456.386.846.8456.846h11.5723c.4598 0 .8459-.39.8459-.846l.0001-11.5757c0-.4561-.3866-.846-.8462-.846zm11.5719 16.6063h-11.5719c-2.3116 0-4.1886-1.8765-4.1886-4.1846l.0002-11.5757c0-2.3082 1.8763-4.1881 4.188-4.1881h11.5723c2.3084 0 4.188 1.8799 4.188 4.1881l.0004 11.5757c0 2.3081-1.8804 4.1846-4.1884 4.1846z"/><path id="_219257632" d="m67.6904 66.6666c-.456 0-.8465.3899-.8465.846l.0004 11.5757c0 .456.3895.846.8457.846h11.5762c.4559 0 .8454-.39.8454-.846l.0006-11.5757c0-.4561-.3905-.846-.8466-.846zm11.5758 16.6063h-11.5758c-2.3085 0-4.1886-1.8765-4.1886-4.1846l.0002-11.5757c0-2.3082 1.8798-4.1881 4.188-4.1881h11.5762c2.3076 0 4.184 1.8799 4.184 4.1881l.0004 11.5757c0 2.3081-1.8768 4.1846-4.1844 4.1846z"/><path id="_219257800" d="m38.3802 66.6666c-.4558 0-.8461.3899-.8461.846l.0002 11.5757c0 .456.3897.846.8457.846h11.5761c.4558 0 .8421-.39.8421-.846v-11.5757c0-.4561-.3865-.846-.8425-.846zm11.5759 16.6063h-11.5759c-2.3084 0-4.1883-1.8765-4.1883-4.1846v-11.5757c0-2.3082 1.8799-4.1881 4.1881-4.1881h11.5761c2.3084 0 4.1843 1.8799 4.1843 4.1881l.0002 11.5757c0 2.3081-1.8767 4.1846-4.1845 4.1846z"/><path id="_219257032" d="m38.3802 95.7468c-.4558 0-.8461.3864-.8461.8459l.0002 11.5757c0 .456.3897.8426.8457.8426h11.5761c.4558 0 .8421-.3865.8421-.8426v-11.5757c0-.4595-.3865-.8459-.8425-.8459zm11.5759 16.6063h-11.5759c-2.3084 0-4.1883-1.8765-4.1883-4.1847v-11.5757c0-2.3081 1.8799-4.1881 4.1881-4.1881h11.5761c2.3084 0 4.1843 1.88 4.1843 4.1881l.0002 11.5757c0 2.3082-1.8767 4.1847-4.1845 4.1847z"/><path id="_219256816" d="m67.6904 95.7468c-.456 0-.8465.3864-.8465.8459l.0004 11.5757c0 .456.3895.8426.8457.8426h11.5762c.4559 0 .8454-.3865.8454-.8426l.0006-11.5757c0-.4595-.3905-.8459-.8466-.8459zm11.5758 16.6063h-11.5758c-2.3085 0-4.1886-1.8765-4.1886-4.1847l.0002-11.5757c0-2.3081 1.8798-4.1881 4.188-4.1881h11.5762c2.3076 0 4.184 1.88 4.184 4.1881l.0004 11.5757c0 2.3082-1.8768 4.1847-4.1844 4.1847z"/><path id="_219256792" d="m67.6904 124.827c-.456 0-.8465.3863-.8465.8459l.0004 11.5722c0 .4595.3895.8459.8457.8459h11.5762c.4559 0 .8454-.3864.8454-.8459l.0006-11.5722c0-.4596-.3905-.8459-.8466-.8459zm11.5758 16.6062h-11.5758c-2.3085 0-4.1886-1.8764-4.1886-4.1881l.0002-11.5722c0-2.3081 1.8798-4.1881 4.188-4.1881l11.5762-.0001c2.3076 0 4.184 1.8801 4.184 4.1882l.0004 11.5722c0 2.3117-1.8768 4.1881-4.1844 4.1881z"/><path id="_219257200" d="m38.3802 124.827c-.4558 0-.8461.3863-.8461.8459l.0002 11.5722c0 .4595.3897.8459.8457.8459h11.5761c.4558 0 .8421-.3864.8421-.8459v-11.5722c0-.4596-.3865-.8459-.8425-.8459zm11.5759 16.6062h-11.5759c-2.3084 0-4.1883-1.8764-4.1883-4.1881v-11.5722c0-2.3081 1.8799-4.1881 4.1881-4.1881l11.5761-.0001c2.3084 0 4.1843 1.8801 4.1843 4.1882l.0002 11.5722c0 2.3117-1.8767 4.1881-4.1845 4.1881z"/><path id="_219256720" d="m159.334 47.4388h-145.271c-.9228 0-1.6717-.7485-1.6717-1.6711.0001-.9226.7485-1.671 1.6711-1.671l145.272-.0001c.9267 0 1.6711.7486 1.6711 1.6711.0005.9226-.7449 1.6712-1.6711 1.6711z"/><path id="_219256672" d="m114.285 106.003c-5.7966 0-10.5103 4.7174-10.5103 10.5104.0006 5.7966 4.7136 10.5104 10.5103 10.5104 5.7934 0 10.5103-4.7138 10.5103-10.5104.0002-5.793-4.7173-10.5104-10.5103-10.5104zm0 24.3629c-7.6382 0-13.8526-6.2142-13.8526-13.8525.0004-7.6382 6.2143-13.8525 13.8526-13.8525 7.6382 0 13.8525 6.2144 13.8525 13.8525.0005 7.6383-6.2143 13.8525-13.8525 13.8525z"/><path id="_219256600" d="m114.285 98.8766c-.9219 0-1.6711-.7485-1.6711-1.6712l.0003-3.941c0-.9225.7482-1.6709 1.6708-1.6709.9227 0 1.6711.7484 1.6711 1.671l.0005 3.9409c0 .9226-.7491 1.6712-1.6716 1.6712z"/><path id="_219257056" d="m100.631 104.53c-.4276 0-.8566-.1602-1.1803-.4875l-2.788-2.7851c-.6509-.6545-.6516-1.7128-.0007-2.3639.6548-.6545 1.7129-.6544 2.3639 0l2.7887 2.7852c.6517.6544.651 1.7094-.0001 2.3638-.3265.3273-.7554.4875-1.1835.4875z"/><path id="_219256912" d="m94.9779 118.184h-3.9416c-.9219 0-1.6712-.7485-1.6712-1.6711.0003-.9225.7486-1.671 1.6712-1.671h3.9416c.922 0 1.6703.7485 1.6703 1.671.0005.9226-.7484 1.6711-1.6703 1.6711z"/><path id="_219256744" d="m97.8465 134.624c-.4285 0-.8571-.1636-1.1844-.4874-.6502-.6545-.6509-1.7128 0-2.3638l2.7894-2.7887c.6509-.651 1.7086-.6509 2.3631 0 .6518.6546.6511 1.7128 0 2.3639l-2.7885 2.7886c-.3235.3238-.752.4874-1.1796.4874z"/><path id="_219256624" d="m114.285 141.433c-.9219 0-1.6711-.7485-1.6711-1.6711l.0003-3.941c0-.9225.7482-1.6709 1.6708-1.6709.9227-.0001 1.6711.7484 1.6711 1.6709l.0005 3.941c0 .9226-.7491 1.6711-1.6716 1.6711z"/><path id="_219256120" d="m130.725 134.624c-.4285 0-.8567-.1636-1.1839-.4874l-2.7851-2.7886c-.6509-.6511-.651-1.7093-.0001-2.3639.655-.651 1.7129-.6509 2.3638 0l2.7858 2.7886c.6541.6511.654 1.7094-.0006 2.3639-.3237.3238-.752.4874-1.1799.4874z"/><path id="_219255808" d="m137.534 118.184h-3.9409c-.9219 0-1.6711-.7485-1.6711-1.6711.0004-.9225.7485-1.671 1.671-1.671h3.941c.9227 0 1.6711.7485 1.6711 1.671.0005.9226-.7486 1.6711-1.6711 1.6711z"/><path id="_219256096" d="m127.939 104.53c-.4277 0-.8564-.1602-1.1837-.4875-.6508-.6544-.6509-1.7094 0-2.3638l2.7856-2.7852c.6541-.6545 1.7124-.6544 2.3634 0 .6547.6511.6546 1.7095 0 2.3639l-2.7849 2.7851c-.3274.3273-.7556.4875-1.1804.4875z"/></g></g></svg>