<svg id="Capa_1" enable-background="new 0 0 512 512" height="512" viewBox="0 0 512 512" width="512" xmlns="http://www.w3.org/2000/svg"><g><g id="Page-1_19_"><g id="_x30_20---Meal-Timing"><path id="Shape_58_" d="m42.684 512h307.2c64.888.07 123.55-38.603 149.059-98.266 25.508-59.663 12.935-128.793-31.947-175.654l14.174-20.659c6.614-8.782 7.869-20.488 3.266-30.472s-14.318-16.632-25.292-17.307c-10.973-.674-21.43 4.735-27.22 14.08l-13.329 19.541c-11.036-5.256-22.637-9.23-34.577-11.844v-22.323c11.747-4.137 18.796-16.144 16.686-28.418s-12.765-21.236-25.219-21.212h-17.067v-17.066c-.028-23.552-19.114-42.638-42.667-42.667h-43.878c-3.879-15.025-17.404-25.542-32.922-25.6-.001-18.851-15.283-34.133-34.134-34.133h-51.2c-18.851 0-34.133 15.282-34.133 34.133-15.517.058-29.042 10.575-32.922 25.6h-43.878c-23.553.029-42.639 19.115-42.667 42.667v366.933c.028 23.553 19.114 42.639 42.667 42.667zm307.2-17.067c-80.118 0-145.067-64.949-145.067-145.067s64.949-145.066 145.067-145.066 145.066 64.949 145.066 145.067c-.089 80.081-64.985 144.977-145.066 145.066zm-238.934-375.466h136.533c7.24-.023 14.129-3.126 18.944-8.533h40.789v15.189c-6.742 5.983-9.806 15.092-8.05 23.933s8.067 16.088 16.584 19.041v22.323c-11.939 2.603-23.541 6.565-34.577 11.81l-13.338-19.55c-5.785-9.362-16.25-14.785-27.235-14.111s-20.709 7.333-25.307 17.332-3.325 21.716 3.314 30.494l14.165 20.651c-59.736 62.112-60.09 160.213-.802 222.754h-180.753v-349.867h40.789c4.815 5.408 11.704 8.511 18.944 8.534zm134.366 106.666-12.629-18.423c-3.36-5.791-1.69-13.193 3.831-16.98s13.028-2.679 17.22 2.542l12.314 18.048c-7.288 4.388-14.222 9.341-20.736 14.813zm200.704-32.853c2.421-4.131 6.946-6.566 11.727-6.31s9.02 3.159 10.987 7.525 1.332 9.464-1.645 13.215l-12.629 18.423c-6.519-5.47-13.455-10.424-20.745-14.814zm-96.136-5.547c-5.701.006-11.398.311-17.067.913v-17.98h34.133v17.98c-5.669-.601-11.365-.906-17.066-.913zm34.133-42.666c0 4.713-3.82 8.533-8.533 8.533h-51.2c-4.713 0-8.533-3.821-8.533-8.533 0-4.713 3.82-8.533 8.533-8.533h51.2c4.713-.001 8.533 3.82 8.533 8.533zm-42.667-42.667v17.067h-17.067v-17.067c0-4.713-3.82-8.533-8.533-8.533h-42.667v-17.067h42.667c14.139 0 25.6 11.462 25.6 25.6zm-238.933-34.133c0-9.426 7.641-17.067 17.067-17.067h8.533c4.713 0 8.533-3.821 8.533-8.533v-8.533c0-9.426 7.641-17.067 17.067-17.067h51.2c9.426 0 17.067 7.641 17.067 17.067v8.533c0 4.713 3.821 8.533 8.533 8.533h8.533c9.426 0 17.067 7.641 17.067 17.067v25.6c0 4.713-3.821 8.533-8.533 8.533h-136.534c-4.713 0-8.533-3.821-8.533-8.533zm-85.333 34.133c0-14.138 11.462-25.6 25.6-25.6h42.666v17.067h-42.666c-4.713 0-8.533 3.821-8.533 8.533v366.933c0 4.713 3.821 8.533 8.533 8.533h208.051c8.472 6.575 17.576 12.292 27.179 17.067h-235.23c-14.138 0-25.6-11.462-25.6-25.6z"/><path id="Shape_57_" d="m349.884 221.867c-70.692 0-128 57.308-128 128s57.308 128 128 128 128-57.308 128-128c-.08-70.66-57.341-127.92-128-128zm8.533 238.498v-8.098c0-4.713-3.82-8.533-8.533-8.533s-8.533 3.82-8.533 8.533v8.098c-54.456-4.25-97.714-47.509-101.965-101.965h8.098c4.713 0 8.533-3.821 8.533-8.533 0-4.713-3.821-8.533-8.533-8.533h-8.098c4.25-54.456 47.509-97.714 101.965-101.965v8.098c0 4.713 3.82 8.533 8.533 8.533s8.533-3.82 8.533-8.533v-8.098c54.456 4.25 97.714 47.509 101.965 101.965h-8.098c-4.713 0-8.533 3.821-8.533 8.533 0 4.713 3.82 8.533 8.533 8.533h8.098c-4.25 54.456-47.509 97.714-101.965 101.965z"/><path id="Shape_56_" d="m358.417 325.837v-44.237c0-4.713-3.82-8.533-8.533-8.533s-8.533 3.82-8.533 8.533v44.237c-11.755 4.156-18.806 16.176-16.698 28.465s12.763 21.271 25.231 21.271 23.123-8.982 25.231-21.271-4.943-24.309-16.698-28.465zm-8.533 32.563c-4.713 0-8.533-3.821-8.533-8.533 0-4.713 3.82-8.533 8.533-8.533s8.533 3.821 8.533 8.533-3.82 8.533-8.533 8.533z"/><path id="Shape_55_" d="m101.922 297.711-6.4 102.912c-.547 8.973 2.626 17.776 8.772 24.337 6.132 6.575 14.732 10.288 23.723 10.24 17.972.005 32.555-14.54 32.597-32.512 0-.512 0-1.024-.102-2.065l-6.4-102.912c19.618-4.277 33.614-21.632 33.638-41.711v-85.333c.045-10.117-5.898-19.303-15.145-23.409s-20.047-2.354-27.521 4.465c-9.647-8.875-24.486-8.875-34.133 0-7.475-6.818-18.274-8.57-27.521-4.465-9.247 4.106-15.19 13.292-15.145 23.409v85.333c.023 20.079 14.019 37.434 33.637 41.711zm-16.572-127.044c0-4.713 3.821-8.533 8.533-8.533 4.713 0 8.533 3.821 8.533 8.533v59.733c0 4.713 3.821 8.533 8.533 8.533 4.713 0 8.533-3.821 8.533-8.533v-59.733c0-4.713 3.821-8.533 8.533-8.533 4.713 0 8.533 3.821 8.533 8.533v59.733c0 4.713 3.82 8.533 8.533 8.533s8.533-3.821 8.533-8.533v-59.733c0-4.713 3.821-8.533 8.533-8.533 4.713 0 8.533 3.821 8.533 8.533v85.333c0 14.139-11.462 25.6-25.6 25.6-2.358-.005-4.613.967-6.229 2.683-1.616 1.717-2.451 4.026-2.304 6.379l6.912 110.49c-.001.513.028 1.026.085 1.536-.033 8.55-6.981 15.46-15.531 15.445-4.278.009-8.369-1.755-11.299-4.873s-4.437-7.31-4.163-11.579l6.929-111.019c.146-2.353-.688-4.662-2.304-6.379s-3.871-2.688-6.229-2.683c-14.138 0-25.6-11.461-25.6-25.6v-85.333z"/><path id="Path_75_" clip-rule="evenodd" d="m162.15 85.333h34.133c4.713 0 8.533-3.82 8.533-8.533s-3.821-8.533-8.533-8.533h-34.133c-4.713 0-8.533 3.821-8.533 8.533 0 4.713 3.821 8.533 8.533 8.533z" fill-rule="evenodd"/></g></g></g></svg>