<svg id="Capa_1" enable-background="new 0 0 512 512" height="512" viewBox="0 0 512 512" width="512" xmlns="http://www.w3.org/2000/svg"><g><path d="m480.25 165.6h-36v-23.1c0-46.87-38.13-85-85-85h-88.3v-27.5h17.3c8.284 0 15-6.716 15-15s-6.716-15-15-15h-64.5c-8.284 0-15 6.716-15 15s6.716 15 15 15h17.2v27.5h-88.2c-46.87 0-85 38.13-85 85v23.1h-36c-8.284 0-15 6.716-15 15s6.716 15 15 15h36v155c0 8.28 6.72 15 15 15h38.19c-6.355 78.909 56.198 146.4 135.06 146.4 78.875 0 141.414-67.503 135.06-146.4h38.19c8.28 0 15-6.72 15-15v-155h36c8.284 0 15-6.716 15-15s-6.716-15-15-15zm-224.25 316.4c-75.81 0-126.266-77.596-97.25-146.4 16.01-37.92 53.58-64.6 97.25-64.6 58.236 0 105.5 47.399 105.5 105.5 0 58.17-47.33 105.5-105.5 105.5zm158.25-146.4h-29.06c-17.38-54.78-68.73-94.6-129.19-94.6s-111.81 39.82-129.19 94.6h-29.06v-140h316.5zm0-170h-316.5v-23.1c0-30.33 24.67-55 55-55h206.5c30.33 0 55 24.67 55 55z"/><path d="m290.39 325.16c-14.417 12.998-6.058 5.461-34.37 30.99l-15.71-14.66c-6.06-5.65-15.55-5.32-21.2.74s-5.32 15.55.74 21.2c3.122 2.908-.853-.802 25.76 24.04 5.684 5.289 14.484 5.399 20.28.17 29.464-26.56 19.252-17.353 44.59-40.2 6.139-5.537 6.657-15.001 1.09-21.19-5.54-6.15-15.03-6.64-21.18-1.09z"/></g></svg>