<?xml version="1.0"?>
<svg xmlns="http://www.w3.org/2000/svg" id="Icons" viewBox="0 0 60 60"><title/><path d="M7,4a3,3,0,1,0,3,3A3,3,0,0,0,7,4ZM7,8A1,1,0,1,1,8,7,1,1,0,0,1,7,8Z"/><path d="M7,16a3,3,0,1,0,3,3A3,3,0,0,0,7,16Zm0,4a1,1,0,1,1,1-1A1,1,0,0,1,7,20Z"/><path d="M7,28a3,3,0,1,0,3,3A3,3,0,0,0,7,28Zm0,4a1,1,0,1,1,1-1A1,1,0,0,1,7,32Z"/><path d="M26,4H25a1,1,0,0,0,0,2h1a1,1,0,0,0,0-2Z"/><path d="M26,8H25a1,1,0,0,0,0,2h1a1,1,0,0,0,0-2Z"/><path d="M31,4H30a1,1,0,0,0,0,2h1a1,1,0,0,0,0-2Z"/><path d="M31,8H30a1,1,0,0,0,0,2h1a1,1,0,0,0,0-2Z"/><path d="M36,4H35a1,1,0,0,0,0,2h1a1,1,0,0,0,0-2Z"/><path d="M36,8H35a1,1,0,0,0,0,2h1a1,1,0,0,0,0-2Z"/><path d="M13,5a1,1,0,0,0-1,1V8a1,1,0,0,0,2,0V6A1,1,0,0,0,13,5Z"/><path d="M26,16H25a1,1,0,0,0,0,2h1a1,1,0,0,0,0-2Z"/><path d="M26,20H25a1,1,0,0,0,0,2h1a1,1,0,0,0,0-2Z"/><path d="M31,16H30a1,1,0,0,0,0,2h1a1,1,0,0,0,0-2Z"/><path d="M31,20H30a1,1,0,0,0,0,2h1a1,1,0,0,0,0-2Z"/><path d="M36,16H35a1,1,0,0,0,0,2h1a1,1,0,0,0,0-2Z"/><path d="M36,20H35a1,1,0,0,0,0,2h1a1,1,0,0,0,0-2Z"/><path d="M13,17a1,1,0,0,0-1,1v2a1,1,0,0,0,2,0V18A1,1,0,0,0,13,17Z"/><path d="M25,30h1a1,1,0,0,0,0-2H25a1,1,0,0,0,0,2Z"/><path d="M25,34h1a1,1,0,0,0,0-2H25a1,1,0,0,0,0,2Z"/><path d="M30,30h1a1,1,0,0,0,0-2H30a1,1,0,0,0,0,2Z"/><path d="M30,34h1a1,1,0,0,0,0-2H30a1,1,0,0,0,0,2Z"/><path d="M35,30h1a1,1,0,0,0,0-2H35a1,1,0,0,0,0,2Z"/><path d="M35,34h1a1,1,0,0,0,0-2H35a1,1,0,0,0,0,2Z"/><path d="M13,29a1,1,0,0,0-1,1v2a1,1,0,0,0,2,0V30A1,1,0,0,0,13,29Z"/><path d="M47.168,42.445l-2,3a1,1,0,0,0,.125,1.262l1,1a1,1,0,0,0,1.414-1.414l-.42-.42,1.545-2.318a1,1,0,1,0-1.664-1.11Z"/><path d="M59.787,43.568c0-.019-.016-.034-.021-.054a13.946,13.946,0,0,0-3.2-6.668l.139-.139a1,1,0,0,0-1.414-1.414l-.139.139c-.037-.033-.072-.068-.11-.1-.018-.017-.026-.04-.045-.056s-.029-.013-.042-.022A13.919,13.919,0,0,0,47,32.051V30a1,1,0,0,0,0-2H45a1,1,0,0,0,0,2v2.051a13.834,13.834,0,0,0-3,.539V28a3.975,3.975,0,0,0-1.382-3A3.975,3.975,0,0,0,42,22V16a3.975,3.975,0,0,0-1.382-3A3.975,3.975,0,0,0,42,10V4a4,4,0,0,0-4-4H4A4,4,0,0,0,0,4v6a3.975,3.975,0,0,0,1.382,3A3.975,3.975,0,0,0,0,16v6a3.975,3.975,0,0,0,1.382,3A3.975,3.975,0,0,0,0,28v6a4,4,0,0,0,4,4H20v3H16a2,2,0,0,0-2,2H7a1,1,0,0,0,0,2h7a2,2,0,0,0,2,2H26a2,2,0,0,0,2-2h4.051c-.024.332-.051.662-.051,1a13.9,13.9,0,0,0,1.851,6.929c.011.023.011.048.024.071a.922.922,0,0,0,.09.116,14.05,14.05,0,0,0,7.179,6c.025.011.042.032.068.041a.885.885,0,0,0,.087.016,13.743,13.743,0,0,0,9.4,0,.885.885,0,0,0,.087-.016.766.766,0,0,0,.068-.041,14.05,14.05,0,0,0,7.179-6,.922.922,0,0,0,.09-.116c.013-.023.013-.048.024-.071a13.68,13.68,0,0,0,1.636-9.288A.588.588,0,0,0,59.787,43.568ZM2,10V4A2,2,0,0,1,4,2H38a2,2,0,0,1,2,2v6a2,2,0,0,1-2,2H4A2,2,0,0,1,2,10ZM2,22V16a2,2,0,0,1,2-2H38a2,2,0,0,1,2,2v6a2,2,0,0,1-2,2H4A2,2,0,0,1,2,22ZM2,34V28a2,2,0,0,1,2-2H38a2,2,0,0,1,2,2v5.37a13.986,13.986,0,0,0-2.957,1.883c-.013.009-.029.012-.042.022s-.027.039-.045.056c-.253.215-.5.437-.735.669H4A2,2,0,0,1,2,34Zm14,9h4.7l-3,2H16Zm5.3,2,3-2H26v2ZM26,41H22V38H34.527a13.925,13.925,0,0,0-2.2,5H28A2,2,0,0,0,26,41ZM51.025,56.883,50.7,56a1,1,0,1,0-1.879.684l.324.888a11.653,11.653,0,0,1-6.294,0l.324-.888A1,1,0,1,0,41.3,56l-.323.888a12.071,12.071,0,0,1-4.822-4.043l.821-.474a1,1,0,1,0-1-1.732l-.818.472A11.921,11.921,0,0,1,34,46c0-.368.023-.731.055-1.091l.938.165a.95.95,0,0,0,.175.016,1,1,0,0,0,.173-1.985l-.931-.164a12,12,0,0,1,3.143-5.454l.611.729A1,1,0,1,0,39.7,36.931l-.607-.724A11.921,11.921,0,0,1,45,34.051V35a1,1,0,0,0,2,0v-.949a11.921,11.921,0,0,1,5.912,2.156l-.607.724a1,1,0,1,0,1.531,1.285l.611-.729a12,12,0,0,1,3.143,5.454l-.931.164a1,1,0,0,0,.173,1.985.95.95,0,0,0,.175-.016l.938-.165c.032.36.055.723.055,1.091a11.921,11.921,0,0,1-1.156,5.106l-.818-.472a1,1,0,0,0-1,1.732l.821.474A12.071,12.071,0,0,1,51.025,56.883Z"/><path d="M47,18a1,1,0,0,0-1,1v2a1,1,0,0,0,2,0V19A1,1,0,0,0,47,18Z"/><path d="M45.707,7.707,46,7.414V15a1,1,0,0,0,2,0V7.414l.293.293a1,1,0,0,0,1.414-1.414l-2-2a1,1,0,0,0-1.414,0l-2,2a1,1,0,0,0,1.414,1.414Z"/><path d="M55,17a1,1,0,0,0-2,0v2a1,1,0,0,0,2,0Z"/><path d="M54,22a1,1,0,0,0-1,1v2a1,1,0,0,0,2,0V23A1,1,0,0,0,54,22Z"/><path d="M52.707,3.707,53,3.414V13a1,1,0,0,0,2,0V3.414l.293.293a1,1,0,0,0,1.414-1.414l-2-2a1,1,0,0,0-1.414,0l-2,2a1,1,0,0,0,1.414,1.414Z"/></svg>
