<svg id="Capa_1" enable-background="new 0 0 512 512" height="512" viewBox="0 0 512 512" width="512" xmlns="http://www.w3.org/2000/svg"><g><path d="m266.492 115.95c-1.149-.406-2.318-.828-3.489-1.26v-21.697c.659.276 1.233.565 1.708.835 1.301.741 2.814 1.023 4.306.886l.44-.04c3.562-.326 6.375-3.165 6.668-6.73.233-2.832-1.182-5.537-3.634-6.972-2.516-1.473-5.737-2.831-9.487-3.598v-3.607c0-4.143-3.357-7.5-7.5-7.5-4.142 0-7.5 3.357-7.5 7.5v4.128c-.346.093-.689.175-1.039.28-8.56 2.579-14.951 9.881-16.681 19.058-1.589 8.433 1.157 16.6 7.167 21.315 2.756 2.162 6.105 4.145 10.553 6.199v29.263c-2.928-.487-5.249-1.574-8.829-3.915-3.752-2.452-8.888-1.115-10.891 3.077-1.639 3.429-.321 7.527 2.866 9.597 6.361 4.133 11.051 5.765 16.854 6.335v4.064c0 4.143 3.358 7.5 7.5 7.5 4.143 0 7.5-3.357 7.5-7.5v-4.78c11.789-3.128 19.344-13.255 21.023-23.244 2.182-12.984-4.865-24.716-17.535-29.194zm-18.489-8.271c-.454-.308-.893-.619-1.295-.934-1.564-1.226-2.224-3.869-1.685-6.734.353-1.868 1.311-3.982 2.979-5.551v13.219zm21.231 34.976c-.596 3.546-2.706 7.269-6.23 9.542v-21.487c6.856 3.207 6.669 9.335 6.23 11.945z"/><path d="m453.956 357.771c-18.034-10.131-34.127-5.491-44.715 3.349-10.588-8.84-26.681-13.48-44.716-3.349-12.331 6.929-19.017 21.239-17.883 38.282 1.465 22.029 17.47 53.447 57.754 69.493h.001c1.562.622 3.202.933 4.843.933 1.642 0 3.282-.31 4.845-.933 40.284-16.046 56.289-47.464 57.754-69.493 1.133-17.043-5.552-31.354-17.883-38.282zm2.916 37.287c-1.167 17.55-14.355 42.735-47.632 56.269-33.275-13.533-46.464-38.719-47.631-56.269-.74-11.133 3.097-20.183 10.264-24.209 4.897-2.752 9.305-3.797 13.177-3.797 8.807 0 14.842 5.408 17.548 8.469 1.683 1.902 4.103 2.993 6.643 2.993s4.961-1.091 6.644-2.993c3.896-4.406 14.69-13.683 30.725-4.672 7.165 4.026 11.002 13.076 10.262 24.209z"/><path d="m409.241 306.483c-2.969 0-5.908.134-8.814.382l-56.483-96.833c21.953-22.299 35.522-52.876 35.522-86.566-.001-68.079-55.387-123.466-123.467-123.466s-123.467 55.387-123.467 123.467c0 33.689 13.568 64.264 35.519 86.563l-18.494 31.705c-2.087 3.578-.878 8.171 2.699 10.258 1.189.693 2.489 1.022 3.773 1.022 2.58 0 5.092-1.333 6.485-3.722l16.931-29.027c9.045 7.168 19.114 13.093 29.948 17.525l-73.68 126.311c-3.719-12.614-11.674-23.423-22.216-30.78l31.68-54.31c2.087-3.578.878-8.171-2.699-10.258-3.578-2.088-8.171-.879-10.258 2.699l-32.059 54.959c-6.036-2.172-12.537-3.363-19.312-3.363-31.54 0-57.199 25.66-57.199 57.2 0 14.566 5.481 27.87 14.477 37.979-19.261 7.708-33.496 25.656-35.806 46.977l-2.181 20.135c-.735 6.785 1.457 13.589 6.016 18.668 4.559 5.078 11.086 7.991 17.91 7.991h15.024c4.143 0 7.5-3.357 7.5-7.5s-3.357-7.5-7.5-7.5h-15.023c-2.608 0-5.005-1.069-6.747-3.011-1.742-1.941-2.547-4.439-2.267-7.033l2.181-20.135c2.034-18.767 16.584-33.992 35.018-37.065 8.42 4.883 18.184 7.694 28.597 7.694s20.178-2.811 28.598-7.694c18.433 3.073 32.984 18.298 35.018 37.065l2.182 20.135c.28 2.594-.525 5.092-2.267 7.033s-4.139 3.011-6.748 3.011h-61.56c-4.142 0-7.5 3.357-7.5 7.5s3.358 7.5 7.5 7.5h61.56c6.824 0 13.353-2.913 17.911-7.991 4.559-5.079 6.751-11.883 6.016-18.668l-2.182-20.135c-.418-3.855-1.236-7.595-2.392-11.189h159.778c16.669 34.291 51.857 57.984 92.478 57.984 56.661 0 102.758-46.097 102.758-102.758s-46.097-102.759-102.758-102.759zm-56.627 17.056-50.015-85.745c10.834-4.432 20.904-10.357 29.949-17.525l52.038 89.212c-11.545 2.854-22.326 7.663-31.972 14.058zm-167.789-118.291 12.855-12.855c13.957 11.828 31.537 19.501 50.818 21.093v18.184c-24.273-1.666-46.377-11.35-63.673-26.422zm-37.029-74.281h18.184c1.592 19.281 9.266 36.861 21.094 50.818l-12.855 12.855c-15.074-17.296-24.757-39.4-26.423-63.673zm26.421-78.674 12.855 12.855c-11.827 13.957-19.501 31.538-21.093 50.819h-18.184c1.667-24.274 11.35-46.378 26.422-63.674zm189.984 63.674h-18.184c-1.592-19.281-9.266-36.861-21.093-50.819l12.855-12.855c15.073 17.296 24.756 39.4 26.422 63.674zm-26.421 78.674-12.855-12.855c11.828-13.957 19.501-31.537 21.093-50.818h18.184c-1.667 24.272-11.35 46.376-26.422 63.673zm-81.781 4.159c-41.539 0-75.333-33.794-75.333-75.333s33.794-75.334 75.333-75.334 75.333 33.795 75.333 75.334-33.794 75.333-75.333 75.333zm58.318-144.259c-13.957-11.828-31.538-19.502-50.819-21.094v-18.183c24.274 1.666 46.378 11.35 63.674 26.422zm-65.818-21.094c-19.281 1.592-36.861 9.266-50.819 21.094l-12.855-12.855c17.296-15.072 39.4-24.756 63.674-26.422zm15 180.039c19.281-1.592 36.861-9.266 50.818-21.093l12.855 12.855c-17.296 15.072-39.4 24.756-63.674 26.422v-18.184zm-7.5 33.448c11.098 0 21.855-1.48 32.093-4.239l52.557 90.103c-16.249 14.594-27.833 34.279-32.221 56.519h-170.056l85.529-146.623c10.239 2.759 20.998 4.24 32.098 4.24zm-217.349 133.316c0-23.27 18.931-42.2 42.199-42.2 23.27 0 42.2 18.931 42.2 42.2s-18.931 42.2-42.2 42.2c-23.268 0-42.199-18.93-42.199-42.2zm110.927 58.767c-6.4-9.255-15.444-16.561-26.006-20.788 3.688-4.144 6.781-8.826 9.15-13.913h173.881c-.078 1.633-.121 3.274-.121 4.926 0 10.35 1.544 20.346 4.404 29.774h-161.308zm259.664 57.983c-48.391 0-87.759-39.368-87.759-87.758 0-48.391 39.368-87.759 87.759-87.759 48.39 0 87.758 39.368 87.758 87.759 0 48.39-39.369 87.758-87.758 87.758z"/></g></svg>