<?xml version="1.0"?>
<svg xmlns="http://www.w3.org/2000/svg" id="Layer_1" data-name="Layer 1" viewBox="0 0 64 64"><path d="M42.73,22.87a1,1,0,0,0-1.27.54l-1.73,4.33A1,1,0,0,0,40.26,29l1.57.64q0,.62,0,1.23l-1.55.66a1,1,0,0,0-.51,1.27l1.81,4.3a1,1,0,0,0,.53.53,1,1,0,0,0,.74,0L44.4,37a7.58,7.58,0,0,0,.85.85l-.64,1.59a1,1,0,0,0,.53,1.26l4.28,1.75a1,1,0,0,0,.37.08,1,1,0,0,0,.38-.08,1,1,0,0,0,.52-.53l.63-1.59a9.28,9.28,0,0,0,1.18,0l.66,1.57a1,1,0,0,0,.53.53,1,1,0,0,0,.75,0l4.25-1.83a1,1,0,0,0,.51-1.26l-.67-1.59a9.73,9.73,0,0,0,.84-.86l1.55.64a1,1,0,0,0,.75,0,.93.93,0,0,0,.52-.53l1.73-4.33a1,1,0,0,0-.53-1.26l-1.57-.64a10.1,10.1,0,0,0,0-1.23l1.56-.66a1,1,0,0,0,.51-1.27l-1.81-4.3a1,1,0,0,0-.53-.53,1,1,0,0,0-.74,0l-1.55.67a7.58,7.58,0,0,0-.85-.85l.64-1.6a1,1,0,0,0-.53-1.25l-4.28-1.75a1,1,0,0,0-1.27.53l-.63,1.59a9.28,9.28,0,0,0-1.18,0l-.66-1.57A1,1,0,0,0,50,18a1,1,0,0,0-.75,0L45,19.8a1,1,0,0,0-.52,1.26l.67,1.59a8.53,8.53,0,0,0-.84.86Zm2.63,2.38a8.36,8.36,0,0,1,1.53-1.56,1,1,0,0,0,.29-1.14l-.57-1.35,2.47-1.06.56,1.33a1,1,0,0,0,1.06.58,8.06,8.06,0,0,1,2.14,0,1,1,0,0,0,1-.6l.54-1.35,2.48,1-.54,1.36a1,1,0,0,0,.32,1.13,8,8,0,0,1,1.54,1.54,1,1,0,0,0,1.15.31l1.31-.57,1.06,2.52L60.39,28A1,1,0,0,0,59.82,29a8.29,8.29,0,0,1,0,2.17,1,1,0,0,0,.59,1l1.34.55-1,2.53-1.31-.54a1,1,0,0,0-1.15.33,8.36,8.36,0,0,1-1.53,1.56,1,1,0,0,0-.29,1.14L57,39.13l-2.47,1.06L54,38.86A1,1,0,0,0,53,38.28a8.06,8.06,0,0,1-2.14,0,.94.94,0,0,0-1,.6l-.54,1.35-2.48-1,.54-1.36A1,1,0,0,0,47,36.73a8,8,0,0,1-1.54-1.54,1,1,0,0,0-1.15-.31L43,35.45l-1.06-2.52,1.33-.56a1,1,0,0,0,.58-1,.17.17,0,0,1,0-.07,8.21,8.21,0,0,1,0-2.16,1,1,0,0,0-.59-1l-1.34-.55,1-2.53,1.31.54A1,1,0,0,0,45.36,25.25Zm-2.5,6.19Z"/><path d="M51.83,36A5.87,5.87,0,1,0,46,30.16,5.85,5.85,0,0,0,51.83,36Zm0-9.79A3.93,3.93,0,1,1,48,30.16,3.9,3.9,0,0,1,51.83,26.24Z"/><path d="M27.67,4.38h-.29A5.32,5.32,0,0,0,22.16,0h-6.1a5.32,5.32,0,0,0-5.23,4.38h-.29A2.06,2.06,0,0,0,8.48,6.44V8.07h-5A3.48,3.48,0,0,0,0,11.55V51.73a3.48,3.48,0,0,0,3.48,3.48H34.27l.56,2.91a1,1,0,0,0,1,.79h1a3.28,3.28,0,1,0,5.5,0H45.9a3.27,3.27,0,1,0,5.45-.08,1,1,0,0,0,.56-.55l4.48-11.75a.92.92,0,0,0-.11-.89,1,1,0,0,0-.79-.42H38.21V11.55a3.49,3.49,0,0,0-3.49-3.48h-5V6.44A2.06,2.06,0,0,0,27.67,4.38ZM16.06,1.94h6.1A3.37,3.37,0,0,1,25.4,4.38H12.81A3.39,3.39,0,0,1,16.06,1.94Zm-5.64,4.5a.12.12,0,0,1,.12-.12H27.67a.12.12,0,0,1,.13.12v3.89a.12.12,0,0,1-.13.12H10.54a.12.12,0,0,1-.12-.12ZM39.58,62.06a1.37,1.37,0,1,1,1.34-1.37A1.35,1.35,0,0,1,39.58,62.06Zm9.07,0A1.37,1.37,0,1,1,50,60.69,1.35,1.35,0,0,1,48.65,62.06Zm5.43-14.9L50.34,57H36.58L36,54.07h0a0,0,0,0,0,0,0l-1.31-6.88ZM34.72,10a1.55,1.55,0,0,1,1.55,1.54V45.22H34.33l-1.22-5.76a1,1,0,0,0-.81-.76L29,38.25a1,1,0,0,0-1.09.82,1,1,0,0,0,.83,1.1l2.58.36,1.23,5.84h0l1.31,6.91H3.49A1.55,1.55,0,0,1,2,51.73V11.55A1.54,1.54,0,0,1,3.49,10h5v.32a2.06,2.06,0,0,0,2.06,2.06H27.67a2.06,2.06,0,0,0,2.06-2.06V10Z"/><path d="M12.57,17.71,9.13,21.2l-.92-.93a1,1,0,1,0-1.38,1.36l1.61,1.63a1,1,0,0,0,.69.29,1,1,0,0,0,.69-.29L14,19.07a1,1,0,1,0-1.38-1.36Z"/><path d="M12.57,29.59,9.13,33.08l-.92-.93a1,1,0,0,0-1.37,0,1,1,0,0,0,0,1.38l1.61,1.62a1,1,0,0,0,.69.29,1,1,0,0,0,.69-.29L14,31a1,1,0,0,0-1.38-1.36Z"/><path d="M12.57,41.47,9.13,45,8.21,44a1,1,0,0,0-1.37,0,1,1,0,0,0,0,1.38L8.44,47a1,1,0,0,0,.69.29A1,1,0,0,0,9.82,47L14,42.84a1,1,0,0,0,0-1.38A1,1,0,0,0,12.57,41.47Z"/><path d="M30.9,33.6H18.17a1,1,0,0,0,0,1.94H30.9a1,1,0,1,0,0-1.94Z"/><path d="M18.17,31.13H27.7a1,1,0,1,0,0-1.93H18.17a1,1,0,1,0,0,1.93Z"/><path d="M17.2,46.45a1,1,0,0,0,1,1H30.9a1,1,0,0,0,0-1.94H18.17A1,1,0,0,0,17.2,46.45Z"/><path d="M18.17,41.08a1,1,0,0,0,0,1.94H27.7a1,1,0,1,0,0-1.94Z"/><path d="M17.2,22.39a1,1,0,0,0,1,1H30.9a1,1,0,1,0,0-1.94H18.17A1,1,0,0,0,17.2,22.39Z"/><path d="M18.17,19H27.7a1,1,0,1,0,0-1.93H18.17a1,1,0,1,0,0,1.93Z"/></svg>
