<svg id="Layer_1" enable-background="new 0 0 512 512" viewBox="0 0 512 512" xmlns="http://www.w3.org/2000/svg"><path d="m256.001 143.336c-62.123 0-112.664 50.541-112.664 112.664s50.541 112.663 112.664 112.663 112.663-50.539 112.663-112.663-50.54-112.664-112.663-112.664zm0 209.328c-53.301 0-96.664-43.363-96.664-96.663 0-53.301 43.363-96.664 96.664-96.664 53.3 0 96.663 43.363 96.663 96.664 0 53.299-43.363 96.663-96.663 96.663zm0-177.717c-44.693 0-81.054 36.36-81.054 81.054 0 44.692 36.36 81.053 81.054 81.053 44.692 0 81.053-36.36 81.053-81.053 0-44.694-36.361-81.054-81.053-81.054zm0 146.106c-35.871 0-65.054-29.183-65.054-65.053 0-35.871 29.183-65.054 65.054-65.054 35.87 0 65.053 29.183 65.053 65.054s-29.183 65.053-65.053 65.053zm24.911-49.842c0 10.617-7.164 19.592-16.912 22.344v5.865c0 4.418-3.582 8-8 8s-8-3.582-8-8v-5.528c-5.527-1.21-10.518-4.431-13.904-9.114-2.589-3.58-1.785-8.581 1.795-11.17 3.581-2.59 8.581-1.784 11.17 1.795 1.368 1.892 3.556 3.021 5.851 3.021h4.789c3.977 0 7.212-3.235 7.212-7.213 0-3.977-3.235-7.211-7.212-7.211h-3.4c-12.799 0-23.212-10.413-23.212-23.213 0-10.616 7.164-19.591 16.912-22.344v-5.864c0-4.418 3.582-8 8-8s8 3.582 8 8v5.528c5.527 1.21 10.518 4.431 13.904 9.114 2.589 3.58 1.785 8.581-1.795 11.17-3.582 2.589-8.582 1.784-11.17-1.795-1.368-1.892-3.556-3.021-5.851-3.021h-4.789c-3.977 0-7.212 3.235-7.212 7.212 0 3.978 3.235 7.213 7.212 7.213h3.4c12.799 0 23.212 10.413 23.212 23.211zm209.619-270.211h-140.844c-4.418 0-8 3.582-8 8v52.992c0 2.775 1.438 5.354 3.802 6.81 2.363 1.457 5.312 1.584 7.792.338 13.658-6.866 29.498-6.979 40.354-.286 3.799 2.342 10.17 7.638 10.17 16.803s-6.371 14.461-10.17 16.803c-10.856 6.692-26.696 6.582-40.354-.286-2.48-1.246-5.429-1.119-7.792.338-2.363 1.456-3.802 4.034-3.802 6.81v52.993c0 4.418 3.582 8 8 8h41.308c-4.465 15.589-2.812 31.791 4.926 44.344 6.964 11.295 18.052 17.773 30.423 17.773s23.459-6.479 30.423-17.773c7.738-12.553 9.391-28.755 4.926-44.344h41.307c4.418 0 8-3.582 8-8v-140.846c0-11.286-9.183-20.469-20.469-20.469zm4.469 153.314h-44.993c-2.775 0-5.354 1.438-6.81 3.802-1.457 2.363-1.585 5.312-.338 7.792 6.867 13.657 6.979 29.497.286 40.354-2.342 3.798-7.638 10.169-16.803 10.169s-14.461-6.371-16.803-10.169c-6.693-10.857-6.581-26.697.286-40.354 1.247-2.479 1.119-5.429-.338-7.792-1.456-2.363-4.034-3.802-6.81-3.802h-44.992v-33.309c15.589 4.464 31.792 2.812 44.344-4.926 11.295-6.964 17.773-18.052 17.773-30.423s-6.479-23.459-17.773-30.423c-12.552-7.738-28.754-9.392-44.344-4.926v-33.307h132.845c2.422 0 4.469 2.047 4.469 4.469v132.845zm8 187.372h-41.309c4.465-15.589 2.812-31.791-4.926-44.344-6.964-11.295-18.052-17.773-30.423-17.773s-23.459 6.479-30.423 17.773c-7.738 12.553-9.391 28.755-4.926 44.344h-41.308c-4.418 0-8 3.582-8 8v52.993c0 2.775 1.438 5.354 3.802 6.81 2.363 1.457 5.313 1.583 7.792.338 13.658-6.866 29.498-6.979 40.354-.286 3.799 2.342 10.17 7.638 10.17 16.803s-6.371 14.461-10.17 16.803c-10.856 6.693-26.696 6.579-40.354-.286-2.479-1.244-5.427-1.119-7.792.338-2.363 1.456-3.802 4.034-3.802 6.81v52.991c0 4.418 3.582 8 8 8h140.845c11.286 0 20.469-9.183 20.469-20.469v-140.845c.001-4.418-3.581-8-7.999-8zm-8 148.845c0 2.422-2.047 4.469-4.469 4.469h-132.844v-33.308c15.589 4.465 31.792 2.812 44.344-4.926 11.295-6.964 17.773-18.052 17.773-30.423s-6.479-23.459-17.773-30.423c-12.552-7.738-28.754-9.391-44.344-4.926v-33.309h44.992c2.775 0 5.354-1.438 6.81-3.802 1.457-2.363 1.585-5.312.338-7.792-6.867-13.657-6.979-29.497-.286-40.354 2.342-3.798 7.638-10.169 16.803-10.169s14.461 6.371 16.803 10.169c6.693 10.857 6.581 26.697-.286 40.354-1.247 2.479-1.119 5.429.338 7.792 1.456 2.363 4.034 3.802 6.81 3.802h44.991zm-486-320.217h41.309c-4.465 15.589-2.812 31.791 4.926 44.344 6.964 11.295 18.052 17.773 30.423 17.773s23.459-6.479 30.423-17.773c7.738-12.553 9.391-28.755 4.926-44.344h41.309c4.418 0 8-3.582 8-8v-52.993c0-2.775-1.438-5.354-3.802-6.81-2.363-1.457-5.313-1.584-7.792-.338-13.657 6.868-29.496 6.979-40.354.286-3.798-2.342-10.169-7.638-10.169-16.803s6.371-14.461 10.169-16.803c10.857-6.694 26.695-6.581 40.354.286 2.479 1.245 5.429 1.119 7.792-.338 2.363-1.456 3.802-4.034 3.802-6.81v-52.991c0-4.418-3.582-8-8-8h-140.846c-11.287 0-20.47 9.183-20.47 20.469v140.845c0 4.418 3.582 8 8 8zm8-148.845c0-2.422 2.047-4.469 4.47-4.469h132.845v33.308c-15.589-4.466-31.792-2.812-44.344 4.926-11.295 6.964-17.773 18.052-17.773 30.423s6.479 23.459 17.773 30.423c12.552 7.738 28.755 9.392 44.344 4.926v33.309h-44.993c-2.775 0-5.354 1.438-6.81 3.802-1.457 2.363-1.585 5.312-.338 7.792 6.867 13.657 6.979 29.497.286 40.354-2.342 3.798-7.638 10.169-16.803 10.169s-14.461-6.371-16.803-10.169c-6.693-10.857-6.581-26.697.286-40.354 1.247-2.479 1.119-5.429-.338-7.792-1.456-2.363-4.034-3.802-6.81-3.802h-44.992zm145.314 320.217h-41.309c4.465-15.589 2.812-31.791-4.926-44.344-6.964-11.295-18.052-17.773-30.423-17.773s-23.459 6.479-30.423 17.773c-7.738 12.553-9.391 28.755-4.926 44.344h-41.307c-4.418 0-8 3.582-8 8v140.845c0 11.286 9.183 20.469 20.47 20.469h140.845c4.418 0 8-3.582 8-8v-52.992c0-2.775-1.438-5.354-3.802-6.81-2.363-1.457-5.314-1.584-7.792-.338-13.657 6.868-29.496 6.979-40.354.286-3.798-2.342-10.169-7.638-10.169-16.803s6.371-14.461 10.169-16.803c10.857-6.694 26.695-6.581 40.354.286 2.479 1.245 5.429 1.12 7.792-.338 2.363-1.456 3.802-4.034 3.802-6.81v-52.993c-.001-4.417-3.583-7.999-8.001-7.999zm-8 49.309c-15.589-4.465-31.792-2.812-44.344 4.926-11.295 6.964-17.773 18.052-17.773 30.423s6.479 23.459 17.773 30.423c12.552 7.738 28.755 9.391 44.344 4.926v33.307h-132.844c-2.423 0-4.47-2.047-4.47-4.469v-132.845h44.993c2.775 0 5.354-1.438 6.81-3.802 1.457-2.363 1.585-5.312.338-7.792-6.867-13.657-6.979-29.497-.286-40.354 2.342-3.798 7.638-10.169 16.803-10.169s14.461 6.371 16.803 10.169c6.693 10.857 6.581 26.697-.286 40.354-1.247 2.479-1.119 5.429.338 7.792 1.456 2.363 4.034 3.802 6.81 3.802h44.993v33.309z"/></svg>