<?xml version="1.0" encoding="UTF-8"?>
<svg xmlns="http://www.w3.org/2000/svg" id="Layer_3" data-name="Layer 3" viewBox="0 0 64 64" width="512" height="512"><path d="M56.839,40.05,54.205,26H57a1,1,0,0,0,1-1V15a1,1,0,0,0-1-1H50a6.006,6.006,0,0,0-5.91,5H40v2h4.09A6.011,6.011,0,0,0,48,25.65V38a5.006,5.006,0,0,1-5,5H39a1,1,0,0,1-1-1V32.649A3.492,3.492,0,0,0,36.5,26H33V10a3,3,0,0,0-3-3H4a3,3,0,0,0-3,3V30a3,3,0,0,0,3,3H9.356A8.983,8.983,0,0,0,6,40v5a5,5,0,0,0,4.092,4.908A7.1,7.1,0,0,0,10,51a7,7,0,0,0,14,0,7.088,7.088,0,0,0-.084-1H47.084A7.088,7.088,0,0,0,47,51a7,7,0,0,0,14,0,7.088,7.088,0,0,0-.084-1H62a1,1,0,0,0,1-1V47A7.01,7.01,0,0,0,56.839,40.05ZM56,24H54V16h2Zm-9.858-3H48V19H46.142A4,4,0,0,1,50,16h2v8H50A4,4,0,0,1,46.142,21ZM36.5,28a1.5,1.5,0,0,1,0,3H33V28ZM4,31a1,1,0,0,1-1-1V10A1,1,0,0,1,4,9H30a1,1,0,0,1,1,1V31H4Zm11,2H36v9a3,3,0,0,0,3,3h4a7.008,7.008,0,0,0,7-7V26h2.17l2.766,14.753L49.5,48H28V47a9.01,9.01,0,0,0-9-9H8.3A7.009,7.009,0,0,1,15,33ZM55,51a1,1,0,1,1-1-1A1,1,0,0,1,55,51ZM8,45V40H19a7.008,7.008,0,0,1,7,7v1H11A3,3,0,0,1,8,45Zm10,6a1,1,0,1,1-1-1A1,1,0,0,1,18,51Zm4,0a5,5,0,1,1-9.889-1h2.073A2.966,2.966,0,0,0,14,51a3,3,0,0,0,6,0,2.966,2.966,0,0,0-.184-1h2.073A4.981,4.981,0,0,1,22,51Zm37,0a5,5,0,1,1-9.889-1h2.073A2.966,2.966,0,0,0,51,51a3,3,0,0,0,6,0,2.966,2.966,0,0,0-.184-1h2.073A4.981,4.981,0,0,1,59,51Zm2-3H52l4.464-5.953A4.989,4.989,0,0,1,61,47Z" style="fill:#fff"/><path d="M28,23H25.941A9.014,9.014,0,0,0,20,15.525V14a3,3,0,0,0-6,0v1.525A9.014,9.014,0,0,0,8.059,23H6a1,1,0,0,0-1,1v2a3,3,0,0,0,3,3H26a3,3,0,0,0,3-3V24A1,1,0,0,0,28,23ZM16,14a1,1,0,0,1,2,0v1.059a8.5,8.5,0,0,0-2,0Zm1,3a7,7,0,0,1,6.92,6H10.08A7,7,0,0,1,17,17Zm10,9a1,1,0,0,1-1,1H8a1,1,0,0,1-1-1V25H27Z" style="fill:#fff"/></svg>
