<?xml version="1.0" encoding="UTF-8"?>
<svg xmlns="http://www.w3.org/2000/svg" id="Icons" viewBox="0 0 60 60" width="512" height="512"><path d="M9,60H51a5.006,5.006,0,0,0,5-5V25.576A5,5,0,0,0,59,21V17a1,1,0,0,0-.128-.49L51.019,2.549A5.009,5.009,0,0,0,46.661,0H13.339A5.009,5.009,0,0,0,8.981,2.549L1.128,16.51A1,1,0,0,0,1,17v4a5,5,0,0,0,3,4.576V55A5.006,5.006,0,0,0,9,60ZM57,21a3,3,0,0,1-6,0V18h6ZM46.661,2a3,3,0,0,1,2.614,1.529L56.29,16h-5.6L45.443,2ZM43.307,2l5.25,14H42.83L40.205,2ZM49,18v3a3,3,0,0,1-6,0V18ZM38.17,2,40.8,16H34.939L34.064,2ZM41,18v3a3,3,0,0,1-6,0V18ZM27.939,2h4.122l.875,14H27.064ZM27,18h6v3a3,3,0,0,1-6,0Zm3,8a4.982,4.982,0,0,0,4-2.031,4.954,4.954,0,0,0,8,0,4.954,4.954,0,0,0,8,0A4.982,4.982,0,0,0,54,26V55a3,3,0,0,1-3,3H9a3,3,0,0,1-3-3V26a4.982,4.982,0,0,0,4-2.031,4.954,4.954,0,0,0,8,0,4.954,4.954,0,0,0,8,0A4.982,4.982,0,0,0,30,26ZM11,21V18h6v3a3,3,0,0,1-6,0Zm8,0V18h6v3a3,3,0,0,1-6,0ZM25.936,2l-.875,14H19.2L21.83,2ZM19.8,2,17.17,16H11.443l5.25-14Zm-9.07,1.529A3,3,0,0,1,13.339,2h1.218L9.307,16H3.71ZM3,21V18H9v3a3,3,0,0,1-6,0Z"/><path d="M21.781,31.825l-1.966,1.966a2.2,2.2,0,0,0-.217,2.825l.9,1.264a.2.2,0,0,1-.131.314l-1.525.252A2.193,2.193,0,0,0,17,40.616v2.768a2.193,2.193,0,0,0,1.842,2.17l1.525.252a.2.2,0,0,1,.131.313L19.6,47.377a2.205,2.205,0,0,0,.222,2.842l1.966,1.967a2.2,2.2,0,0,0,2.825.216l1.265-.9a.2.2,0,0,1,.313.131l.252,1.525A2.192,2.192,0,0,0,28.617,55h2.766a2.192,2.192,0,0,0,2.171-1.842l.252-1.525a.2.2,0,0,1,.313-.131l1.258.895a2.207,2.207,0,0,0,2.842-.222l1.966-1.966a2.2,2.2,0,0,0,.217-2.825l-.9-1.264a.2.2,0,0,1,.131-.314l1.525-.252A2.193,2.193,0,0,0,43,43.384V40.616a2.193,2.193,0,0,0-1.842-2.17l-1.526-.252a.2.2,0,0,1-.13-.313l.895-1.258a2.205,2.205,0,0,0-.222-2.842l-1.966-1.967a2.2,2.2,0,0,0-2.825-.216l-1.265.9a.2.2,0,0,1-.193.022.191.191,0,0,1-.12-.153l-.252-1.525A2.192,2.192,0,0,0,31.383,29H28.617a2.192,2.192,0,0,0-2.171,1.842l-.252,1.525a.191.191,0,0,1-.12.153.2.2,0,0,1-.193-.022L24.623,31.6A2.2,2.2,0,0,0,21.781,31.825Zm5.062,2.541a2.19,2.19,0,0,0,1.325-1.673l.251-1.525a.2.2,0,0,1,.2-.168h2.766a.2.2,0,0,1,.2.168l.251,1.525a2.2,2.2,0,0,0,3.447,1.434l1.271-.905a.2.2,0,0,1,.255.017l1.945,1.947a.2.2,0,0,1,.023.27l-.9,1.266a2.2,2.2,0,0,0,1.434,3.445l1.525.252a.2.2,0,0,1,.168.2v2.768a.2.2,0,0,1-.168.2l-1.525.252a2.2,2.2,0,0,0-1.434,3.446l.905,1.272a.2.2,0,0,1-.017.254L36.815,50.75a.2.2,0,0,1-.271.023l-1.266-.9a2.2,2.2,0,0,0-3.446,1.434l-.251,1.525a.2.2,0,0,1-.2.168H28.617a.2.2,0,0,1-.2-.168l-.251-1.525a2.19,2.19,0,0,0-1.325-1.673,2.193,2.193,0,0,0-2.122.239l-1.271.905a.2.2,0,0,1-.255-.017L21.25,48.814a.2.2,0,0,1-.023-.27l.9-1.266a2.2,2.2,0,0,0-1.434-3.445l-1.525-.252a.2.2,0,0,1-.168-.2V40.616a.2.2,0,0,1,.168-.2l1.525-.252a2.2,2.2,0,0,0,1.434-3.446l-.9-1.272a.2.2,0,0,1,.017-.254l1.946-1.945a.2.2,0,0,1,.271-.023l1.266.9A2.189,2.189,0,0,0,26.843,34.366Z"/><path d="M30,48a6,6,0,1,0-6-6A6.006,6.006,0,0,0,30,48Zm0-10a4,4,0,1,1-4,4A4,4,0,0,1,30,38Z"/></svg>
