<svg id="Outline_cut" enable-background="new 0 0 64 64" height="512" viewBox="0 0 64 64" width="512" xmlns="http://www.w3.org/2000/svg"><g><path d="m60.98 49.136c-.411-13.675-10.523-25.351-23.98-27.693v-.723c0-1.256-.542-2.482-1.494-3.367-.95-.873-2.196-1.353-3.506-1.353-2.757 0-5 2.118-5 4.72v.72c-.047.008-.093.016-.139.024-.245-.57-.533-1.126-.857-1.662l.842-.854c.374-.383.578-.886.576-1.417-.003-.538-.217-1.041-.601-1.416l-2.133-2.093c-.378-.378-.874-.582-1.418-.581-.539.003-1.041.216-1.414.599l-.838.857c-.955-.552-1.964-.987-3.017-1.302v-1.874c.595-.347 1-.985 1-1.722v-.999c0-1.103-.897-2-2-2h-6c-1.104 0-2.001.897-2.001 2v1c0 .737.405 1.375 1 1.722v1.872c-.977.292-1.914.688-2.798 1.183l-.895-.914c-.774-.774-2.042-.782-2.827-.016l-2.146 2.106c-.775.774-.784 2.042-.013 2.832l.808.814c-1.391 2.212-2.129 4.751-2.129 7.401 0 4.4 2.069 8.485 5.543 11.123-1.563 3.485-2.409 7.181-2.52 11.011-.692.174-1.332.519-1.851 1.038-.755.757-1.172 1.762-1.172 2.828 0 2.206 1.794 4 4 4h56c1.067 0 2.071-.416 2.827-1.173.756-.756 1.173-1.761 1.173-2.827 0-1.866-1.289-3.424-3.02-3.864zm-28.98-31.136c.808 0 1.573.293 2.149.822.541.503.851 1.195.851 1.898v.458c-2.026-.211-4.08-.207-6-.011v-.447c0-1.5 1.346-2.72 3-2.72zm-8.72-2.556 2.138 2.104-.586.594c-.63-.775-1.343-1.478-2.133-2.104zm-7.28-3.444v1.16c-1.322-.189-2.679-.189-4 0v-1.16zm-5-3h6l-.003 1h-5.997zm-6.115 6.27.606.619c-.802.608-1.527 1.301-2.172 2.07l-.579-.585zm-2.885 11.73c0-2.5.76-4.886 2.201-6.914.025-.033.051-.063.071-.098.884-1.246 1.985-2.29 3.288-3.107 1.127-.724 2.362-1.248 3.673-1.559 1.787-.429 3.746-.429 5.535 0 1.375.328 2.675.891 3.859 1.67 1.308.869 2.41 1.958 3.28 3.244.583.846 1.047 1.75 1.383 2.693.471 1.302.71 2.672.71 4.071 0 6.617-5.383 12-12 12-2.377 0-4.682-.699-6.666-2.022-3.34-2.23-5.334-5.96-5.334-9.978zm59.413 27.413c-.378.379-.88.587-1.413.587h-56c-1.103 0-2-.897-2-2 0-.532.208-1.034.587-1.413s.88-.587 1.413-.587h8c.552 0 1-.447 1-1s-.448-1-1-1h-6.972c.122-3.386.86-6.657 2.203-9.752 2.071 1.147 4.388 1.752 6.769 1.752 7.72 0 14-6.28 14-14 0-1.234-.161-2.448-.476-3.622.208-.035.407-.08.62-.109 2.402-.351 5.123-.368 7.714.011 12.862 1.839 22.636 12.804 23.119 25.72h-41.977c-.552 0-1 .447-1 1s.448 1 1 1h43c1.103 0 2 .897 2 2 0 .532-.208 1.034-.587 1.413z"/><path d="m21.777 34.777c.682-.682 1.271-1.448 1.75-2.276.276-.479.113-1.09-.365-1.367-.478-.276-1.09-.113-1.367.365-.226.39-.489.758-.772 1.111l-.657-.657c-.391-.391-1.023-.391-1.414 0-.391.39-.391 1.023 0 1.414l.661.661c-1.331 1.067-2.92 1.726-4.614 1.912v-.94c0-.553-.448-1-1-1s-1 .447-1 1v.941c-1.694-.187-3.283-.845-4.614-1.912l.661-.661c.391-.391.391-1.024 0-1.414-.391-.391-1.024-.391-1.414 0l-.661.661c-1.067-1.332-1.725-2.92-1.912-4.615h.941c.552 0 1-.448 1-1s-.448-1-1-1h-.941c.187-1.695.845-3.283 1.913-4.614l.661.661c.195.195.451.293.707.293s.512-.098.707-.293c.391-.391.391-1.023 0-1.414l-.661-.661c1.331-1.067 2.919-1.726 4.614-1.913v.941c0 .552.448 1 1 1s1-.448 1-1v-.941c1.695.187 3.283.845 4.614 1.913l-.661.661c-.391.391-.391 1.023 0 1.414.195.195.451.293.707.293s.512-.098.707-.293l.661-.661c1.067 1.331 1.726 2.919 1.913 4.614h-.941c-.552 0-1 .448-1 1s.448 1 1 1h.94c-.03.268-.068.536-.122.8-.11.542.239 1.069.78 1.18.546.114 1.069-.239 1.18-.78.147-.723.222-1.463.222-2.2 0-2.937-1.145-5.699-3.223-7.777s-4.84-3.223-7.777-3.223-5.699 1.145-7.777 3.223-3.223 4.84-3.223 7.777 1.145 5.699 3.223 7.777 4.84 3.223 7.777 3.223 5.698-1.145 7.777-3.223z"/><path d="m14 21c-.552 0-1 .448-1 1v4h-2c-.552 0-1 .448-1 1s.448 1 1 1h3c.552 0 1-.448 1-1v-5c0-.552-.448-1-1-1z"/></g></svg>