<svg id="Layer_1" enable-background="new 0 0 512 512" viewBox="0 0 512 512" xmlns="http://www.w3.org/2000/svg"><path d="m344.411 13.046c-1.313-1.313-3.094-2.05-4.95-2.05s-3.637.737-4.949 2.05l-75.409 75.408c-1.312 1.312-2.05 3.093-2.05 4.95s.737 3.637 2.051 4.95l10.513 10.512h-26.612l-24.835-92.682c-1.001-3.735-4.842-5.949-8.573-4.95l-103.009 27.601c-1.793.481-3.322 1.654-4.251 3.262-.928 1.608-1.18 3.519-.699 5.312l27.602 103.008c.838 3.128 3.667 5.19 6.757 5.19.6 0 1.21-.078 1.816-.24l54.233-14.532v57.529h-87.412l-2.068-18.357c-3.5-31.062-29.68-54.486-60.896-54.486h-3.555c-12.987 0-23.554 10.566-23.554 23.554s10.566 23.553 23.554 23.553h3.555c7.371 0 13.316 5.286 14.137 12.568l24.146 214.291c3.5 31.062 29.68 54.486 60.896 54.486h3.298c-4.961 5.211-8.017 12.252-8.017 19.999 0 16.007 13.022 29.029 29.03 29.029 16.007 0 29.029-13.022 29.029-29.029 0-7.746-3.056-14.788-8.017-19.999h102.466c-4.961 5.211-8.017 12.252-8.017 19.999 0 16.007 13.022 29.029 29.029 29.029s29.029-13.022 29.029-29.029c0-7.746-3.056-14.788-8.017-19.999h38.644c12.987 0 23.554-10.566 23.554-23.553s-10.566-23.554-23.554-23.554h-228.458c-7.371 0-13.316-5.286-14.137-12.568l-1.752-15.546h194.179c15.334 0 26.907-10.291 30.22-26.864l26.932-122.726c.026-.12.05-.24.069-.36 1.294-7.835-.652-15.284-5.48-20.974-5.177-6.102-13.153-9.462-22.458-9.462h-35.732v-46.426l21.823 21.822c1.366 1.367 3.158 2.05 4.949 2.05s3.583-.684 4.95-2.05l75.407-75.407c2.733-2.734 2.733-7.166 0-9.899zm-179.251 475.954c-8.288 0-15.03-6.742-15.03-15.029 0-8.288 6.742-15.03 15.03-15.03 8.287 0 15.029 6.742 15.029 15.03 0 8.287-6.742 15.029-15.029 15.029zm144.49 0c-8.287 0-15.029-6.742-15.029-15.029 0-8.288 6.742-15.03 15.029-15.03s15.029 6.742 15.029 15.03c0 8.287-6.742 15.029-15.029 15.029zm67.835-423.08-21.17 21.17-10.542-10.542 21.17-21.17zm-132.572 56.945h14.909v29.939h-14.909zm-68.247-57.318-14.401 3.858-7.749-28.918 14.402-3.859zm-35.715 74.485-23.978-89.485 24.019-6.436 9.56 35.68c.838 3.128 3.666 5.19 6.757 5.19.6 0 1.21-.078 1.816-.24l27.925-7.482c1.793-.48 3.322-1.654 4.251-3.262.928-1.608 1.18-3.519.699-5.312l-9.561-35.68 24.019-6.436 22.051 82.296h-29.463c-3.866 0-7 3.134-7 7v10.476zm158.576 127.599h53.988l-8.847 40.316h-49.685zm-122.444 0h108.354l-4.544 40.316h-99.267zm6.123 54.316h96.11l-4.824 42.804h-86.462zm-7.701-68.316-4.651-41.267h120.812l-4.651 41.267zm-63.066 14h50.556l4.544 40.316h-50.557zm44.327-55.267 4.651 41.267h-50.555l-4.65-41.267zm-15.918 208.501h228.458c5.268 0 9.554 4.286 9.554 9.554s-4.286 9.553-9.554 9.553h-228.458c-24.085 0-44.283-18.079-46.984-42.053l-24.146-214.291c-1.606-14.252-13.664-25-28.049-25h-3.555c-5.268 0-9.554-4.286-9.554-9.553 0-5.268 4.286-9.554 9.554-9.554h3.555c24.085 0 44.283 18.079 46.984 42.054l21.508 190.888c0 .004.001.008.001.013l2.636 23.39c1.608 14.251 13.665 24.999 28.05 24.999zm-22.289-98.918h50.558l4.824 42.804h-50.558zm217.11 27.005c-.011.046-.021.093-.029.14-2.002 10.098-7.862 15.659-16.502 15.659h-30.558l4.824-42.804h48.19zm24.534-132.068c2.093 2.466 2.932 5.825 2.369 9.473l-5.985 27.274h-55.481l4.651-41.267h42.665c5.123 0 9.308 1.605 11.781 4.52zm-154.157-18.52v-75.499h24.866v36.939c0 3.866 3.134 7 7 7h28.909c3.866 0 7-3.134 7-7v-36.939h24.866v75.499zm133.414-39.453-26.772-26.772v-16.274c0-3.866-3.134-7-7-7h-16.274l-15.462-15.462 65.509-65.508 17.583 17.583-26.12 26.12c-2.733 2.733-2.733 7.166 0 9.899l20.441 20.442c1.313 1.312 3.094 2.05 4.95 2.05s3.637-.737 4.95-2.05l26.12-26.12 17.583 17.584zm-299.213-66.29c-2.798-2.667-2.904-7.099-.236-9.896 2.666-2.799 7.098-2.905 9.896-.237l6.806 6.488v-72.976c0-3.866 3.134-7 7-7s7 3.134 7 7v72.975l6.807-6.488c2.799-2.667 7.229-2.562 9.897.237 2.667 2.798 2.561 7.229-.237 9.896l-18.637 17.764c-1.353 1.289-3.092 1.933-4.83 1.933-1.739 0-3.478-.644-4.83-1.933zm455.022 0-18.637 17.764c-1.353 1.289-3.091 1.933-4.83 1.933s-3.478-.645-4.83-1.933l-18.637-17.764c-2.798-2.667-2.904-7.098-.237-9.896 2.668-2.799 7.099-2.905 9.897-.237l6.807 6.488v-72.976c0-3.866 3.134-7 7-7s7 3.134 7 7v72.975l6.807-6.488c2.799-2.667 7.229-2.562 9.897.237 2.667 2.799 2.561 7.229-.237 9.897z"/></svg>