<svg id="Capa_1" enable-background="new 0 0 512.003 512.003" height="512" viewBox="0 0 512.003 512.003" width="512" xmlns="http://www.w3.org/2000/svg"><g><g><path d="m365.444 242h-130c-4.143 0-7.5-3.358-7.5-7.5s3.357-7.5 7.5-7.5h130c4.143 0 7.5 3.358 7.5 7.5s-3.358 7.5-7.5 7.5z"/><path d="m365.444 282h-130c-4.143 0-7.5-3.358-7.5-7.5s3.357-7.5 7.5-7.5h130c4.143 0 7.5 3.358 7.5 7.5s-3.358 7.5-7.5 7.5z"/><path d="m365.444 202h-130c-4.143 0-7.5-3.358-7.5-7.5s3.357-7.5 7.5-7.5h130c4.143 0 7.5 3.358 7.5 7.5s-3.358 7.5-7.5 7.5z"/><path d="m365.444 322h-130c-4.143 0-7.5-3.358-7.5-7.5s3.357-7.5 7.5-7.5h130c4.143 0 7.5 3.358 7.5 7.5s-3.358 7.5-7.5 7.5z"/><circle cx="198.226" cy="234.5" r="7.5"/><circle cx="198.226" cy="274.5" r="7.5"/><circle cx="198.226" cy="194.5" r="7.5"/><circle cx="198.226" cy="314.5" r="7.5"/></g><g><path d="m265.365 448.28c-.49 0-.98-.05-1.47-.15-.48-.09-.95-.24-1.4-.43-.45-.18-.89-.41-1.3-.68-.41-.28-.79-.59-1.141-.94-1.39-1.39-2.189-3.33-2.189-5.3 0-1.98.8-3.91 2.189-5.3.351-.35.73-.66 1.141-.94.41-.27.85-.5 1.3-.69.45-.18.92-.33 1.4-.42.97-.2 1.97-.2 2.93 0 .479.09.95.24 1.41.42.45.19.89.42 1.29.69.41.28.8.59 1.14.94 1.4 1.39 2.2 3.32 2.2 5.3 0 1.97-.8 3.91-2.2 5.3-.34.35-.729.66-1.14.94-.4.27-.84.5-1.29.68-.46.19-.931.34-1.41.43-.481.1-.97.15-1.46.15z"/><path d="m242.275 425.19c-.49 0-.99-.05-1.471-.15-.479-.1-.949-.24-1.399-.43-.46-.19-.89-.42-1.3-.69s-.79-.58-1.141-.93c-.34-.34-.66-.73-.93-1.14s-.5-.84-.69-1.29c-.189-.46-.329-.93-.43-1.41-.09-.48-.14-.97-.14-1.46s.05-.98.14-1.47c.101-.48.24-.95.43-1.4s.421-.89.69-1.3c.27-.41.59-.79.93-1.14.351-.34.73-.65 1.141-.93.41-.27.84-.5 1.3-.69.45-.19.92-.33 1.399-.43 2.44-.49 5.03.31 6.771 2.05.34.35.66.73.93 1.14.271.41.5.85.69 1.3.189.45.33.92.43 1.4.101.49.141.98.141 1.47s-.04.98-.141 1.46c-.1.48-.24.95-.43 1.41-.19.45-.42.88-.69 1.29s-.59.8-.93 1.14c-1.401 1.4-3.33 2.2-5.3 2.2z"/><path d="m297.895 445.43c-1.98 0-3.91-.8-5.301-2.19-1.399-1.4-2.199-3.33-2.199-5.31 0-.48.05-.98.149-1.46.09-.48.24-.95.42-1.41.19-.45.42-.88.69-1.29.28-.41.59-.79.939-1.14 1.391-1.4 3.32-2.2 5.301-2.2 1.97 0 3.909.8 5.3 2.2.35.35.66.73.939 1.14.271.41.5.84.69 1.29.18.46.33.93.42 1.41.1.48.15.98.15 1.46 0 1.98-.801 3.91-2.2 5.31-1.389 1.39-3.328 2.19-5.298 2.19z"/></g><path d="m474.485 0h-332.8c-26.191 0-47.5 21.309-47.5 47.5v58.342c-16.279-.324-32.84 3.637-47.939 12.353-44.166 25.499-59.354 82.182-33.856 126.355 5.553 9.619 16.081 14.462 30.466 14.461 10.277 0 22.522-2.473 36.323-7.443l8.658 19.186c1.52 3.367 3.692 6.36 6.348 8.828v33.709c-10.823 3.747-21.943 9.321-32.3 17.531-3.246 2.573-3.791 7.291-1.218 10.537 2.572 3.245 7.29 3.79 10.536 1.218 27.844-22.073 62.555-22.233 76.197-21.275 1.217.083 2.198 1.064 2.282 2.293 1.101 15.667.56 55.209-28.172 83.931-24.451 24.451-56.916 28.465-75.865 28.418l59.819-59.819c2.929-2.929 2.929-7.678 0-10.606-2.93-2.929-7.678-2.929-10.607 0l-59.864 59.864c-.073-14.69 2.302-37.534 14.891-58.503 2.132-3.551.98-8.159-2.57-10.291-3.552-2.132-8.157-.982-10.291 2.57-23.469 39.095-16.01 82.593-15.681 84.425.554 3.087 2.97 5.503 6.057 6.057.851.153 8.178 1.404 19.135 1.404 12.551 0 29.862-1.642 47.65-8.458v1.913c0 20.678 16.822 37.5 37.5 37.5h72.373c10.556 10.137 23.307 18.232 37.752 23.49 12.088 4.399 24.534 6.513 36.834 6.513 27.569 0 54.362-10.635 74.471-30.003h61.37c20.678 0 37.5-16.822 37.5-37.5v-209.5h22.5c20.678 0 37.5-16.822 37.5-37.5v-160c.001-20.678-16.821-37.5-37.499-37.5zm-408.613 222.082 5.55 12.298c-7.039-1.501-15.946-5.199-20.063-12.331-13.093-22.678-5.289-51.786 17.403-64.89 2.659-1.54 5.497-2.83 8.435-3.833 3.92-1.338 6.013-5.601 4.675-9.521-1.339-3.921-5.602-6.014-9.521-4.675-3.863 1.319-7.6 3.017-11.099 5.043-29.846 17.235-40.111 55.534-22.885 85.374 3.427 5.937 8.566 10.404 14.265 13.63-13.734 2.157-23.632.144-27.254-6.128-21.362-37.01-8.638-84.5 28.364-105.865 37.012-21.364 84.508-8.639 105.876 28.364 3.625 6.278.416 15.861-8.329 26.677.059-6.553-1.236-13.241-4.662-19.178-7.665-13.272-19.918-23.238-34.501-28.06-3.934-1.302-8.175.833-9.476 4.766-1.3 3.933.834 8.175 4.767 9.475 11.085 3.666 20.397 11.237 26.219 21.318 4.114 7.128 2.863 16.689.643 23.537l-7.874-10.954c-10.577-14.715-30.389-18.978-46.082-9.917-15.692 9.064-21.905 28.352-14.451 44.87zm35.637 42.502-21.965-48.672c-4.271-9.464-.711-20.516 8.281-25.707 3.179-1.835 6.651-2.716 10.082-2.716 6.272 0 12.402 2.948 16.32 8.398l31.169 43.358c2.088 2.905 2.823 6.43 2.07 9.927-.752 3.496-2.872 6.407-5.97 8.195l-22.345 12.9c-3.099 1.788-6.68 2.169-10.082 1.073-3.404-1.096-6.088-3.496-7.56-6.756zm253.48 192.062c-23.819 34.945-68.251 49.235-108.048 34.749-39.798-14.485-64.649-53.991-60.435-96.071.377-3.766 2.451-7.093 5.69-9.128 2.047-1.286 4.356-1.942 6.689-1.942 1.449 0 2.907.253 4.315.766l.322.117c-9.861 38.156 10.767 78.411 48.546 92.162 8.721 3.174 17.646 4.678 26.43 4.678 29.271 0 56.944-16.716 70-44.073l.322.117c3.676 1.337 6.473 4.244 7.675 7.974 1.175 3.641.626 7.523-1.506 10.651zm-137.287-66.349 116.621 42.447c-14.075 27.8-47.125 41.378-77.122 30.459-30.001-10.919-46.591-42.56-39.499-72.906zm279.283-192.797c0 12.407-10.094 22.5-22.5 22.5h-22.5v-75.66c0-4.142-3.357-7.5-7.5-7.5s-7.5 3.358-7.5 7.5v300.16c0 12.407-10.094 22.5-22.5 22.5h-48.432c.449-.63.893-1.265 1.33-1.906 4.759-6.981 5.994-15.62 3.391-23.699-2.633-8.169-8.764-14.537-16.821-17.469l-145.62-53.001c-8.058-2.932-16.848-1.996-24.116 2.57-7.188 4.516-11.793 11.927-12.636 20.334-2.674 26.697 4.715 52.502 19.5 73.172h-59.396c-12.406 0-22.5-10.093-22.5-22.5v-8.955c7.917-4.468 15.688-10.166 22.933-17.411 33.097-33.086 33.773-77.871 32.529-95.577-.593-8.653-7.565-15.626-16.208-16.219-8.043-.565-22.612-.772-39.254 2.786v-22.437c1.231.167 2.469.25 3.706.25 4.785 0 9.544-1.245 13.762-3.681l22.345-12.9c6.716-3.877 11.503-10.448 13.134-18.029 1.632-7.581-.028-15.541-4.555-21.838l-12.29-17.096c26.897-22.705 36.85-44.845 27.324-61.345-14.085-24.39-37.681-39.942-63.426-44.685v-59.864c0-17.92 14.579-32.5 32.5-32.5h302.817c-4.718 6.271-7.518 14.065-7.518 22.5v71.84c0 4.142 3.357 7.5 7.5 7.5s7.5-3.358 7.5-7.5v-71.84c0-12.407 10.094-22.5 22.5-22.5s22.5 10.093 22.5 22.5v160z"/><g><path d="m301.996 65.58c-4.143 0-7.5 3.358-7.5 7.5 0 3.835-3.12 6.956-6.955 6.956-3.836 0-6.956-3.12-6.956-6.956 0-4.142-3.357-7.5-7.5-7.5s-7.5 3.358-7.5 7.5c0 3.835-3.12 6.956-6.955 6.956-3.836 0-6.956-3.12-6.956-6.956 0-4.142-3.357-7.5-7.5-7.5s-7.5 3.358-7.5 7.5c0 12.106 9.85 21.956 21.956 21.956 5.531 0 10.591-2.056 14.455-5.444 3.865 3.388 8.925 5.444 14.456 5.444 12.106 0 21.955-9.849 21.955-21.956 0-4.142-3.358-7.5-7.5-7.5z"/><path d="m211.562 40c-11.726 0-21.265 9.54-21.265 21.265 0 4.142 3.357 7.5 7.5 7.5s7.5-3.358 7.5-7.5c0-3.455 2.811-6.265 6.265-6.265 3.455 0 6.266 2.811 6.266 6.265 0 4.142 3.357 7.5 7.5 7.5s7.5-3.358 7.5-7.5c0-11.725-9.54-21.265-21.266-21.265z"/><path d="m334.607 40c-11.726 0-21.265 9.54-21.265 21.265 0 4.142 3.357 7.5 7.5 7.5s7.5-3.358 7.5-7.5c0-3.455 2.811-6.265 6.265-6.265 3.455 0 6.266 2.811 6.266 6.265 0 4.142 3.357 7.5 7.5 7.5s7.5-3.358 7.5-7.5c-.001-11.725-9.541-21.265-21.266-21.265z"/></g></g></svg>