<svg id="Capa_1" enable-background="new 0 0 512 512" height="512" viewBox="0 0 512 512" width="512" xmlns="http://www.w3.org/2000/svg"><g><path d="m269.37 213.383c-7.623-6.855-19.119-6.857-26.74 0-11.683 10.507-34.264 32.244-54.232 59.759-25.479 35.108-38.398 68.033-38.398 97.858 0 58.449 47.551 106 106 106 58.448 0 106-47.551 106-106 0-29.825-12.919-62.75-38.398-97.858-19.968-27.516-42.549-49.252-54.232-59.759zm-13.37 243.617c-47.42 0-86-38.58-86-86 0-60.678 65.829-124.601 85.996-142.747 20.175 18.146 86.004 82.069 86.004 142.747 0 47.42-38.579 86-86 86z"/><path d="m266 296.626c0-5.523-4.478-10-10-10-5.523 0-10 4.477-10 10v1.977c-13.206 4.239-22.794 16.633-22.794 31.229 0 .095.001.19.004.285.525 18.381 16.861 26.089 28.79 31.717 11.402 5.38 16.776 8.477 16.794 13.586 0 6.935-5.859 12.793-12.794 12.793-4.257 0-8.225-2.109-10.613-5.642-3.093-4.576-9.31-5.777-13.885-2.685-4.576 3.093-5.777 9.309-2.684 13.885 4.183 6.189 10.264 10.668 17.182 12.881v1.973c0 5.523 4.477 10 10 10 5.522 0 10-4.477 10-10v-1.977c13.207-4.24 22.794-16.639 22.794-31.263-.062-18.336-16.36-26.025-28.26-31.64-11.567-5.457-17.084-8.644-17.327-14.064.083-6.87 5.908-12.645 12.793-12.645 4.257 0 8.225 2.109 10.613 5.642 3.094 4.577 9.31 5.777 13.885 2.684s5.777-9.309 2.684-13.885c-4.183-6.189-10.264-10.668-17.182-12.88z"/><path d="m492 35h-20c-11.028 0-20 8.972-20 20h-91c0-11.028-8.972-20-20-20h-45c-5.522 0-10 4.477-10 10s4.478 10 10 10h45v110h-58.819l-15-30 10.456-20.912 12.052-3.375c3.299-.924 6.324-2.693 8.748-5.117l13.507-13.506c3.905-3.905 3.905-10.237 0-14.142s-10.235-3.905-14.143 0l-13.506 13.506-12.052 3.376c-5.423 1.518-9.977 5.278-12.495 10.314l-29.928 59.856h-58.82v-110h45c5.523 0 10-4.477 10-10s-4.477-10-10-10h-45c-11.028 0-20 8.972-20 20h-91c0-11.028-8.972-20-20-20h-20c-11.028 0-20 8.972-20 20v110c0 11.028 8.972 20 20 20h20c11.028 0 20-8.972 20-20h91c0 11.028 8.972 20 20 20h58.82c7.624 0 14.479-4.236 17.888-11.056l8.292-16.584 8.292 16.583c3.408 6.82 10.264 11.057 17.889 11.057h58.819c11.028 0 20-8.972 20-20h91c0 11.028 8.972 20 20 20h20c11.028 0 20-8.972 20-20v-110c0-11.028-8.972-20-20-20zm-452 130-20 .013s0-.004 0-.013v-110h20zm20-20v-70h91v70zm301 0v-70h91v70zm131 20-19.999.013s-.001-.004-.001-.013v-110h20z"/><circle cx="256" cy="45" r="10"/></g></svg>