<svg enable-background="new 0 0 520 520" height="512" viewBox="0 0 520 520" width="512" xmlns="http://www.w3.org/2000/svg"><g id="_x36_91_x2C__Agile_x2C__Development_x2C__Scrum_x2C__Sprint_x2C__Time"><g><path d="m460 260c0-110.28-89.72-200-200-200-102.56 0-187.321 77.602-198.689 177.169l-14.24-14.24c-3.905-3.905-10.237-3.905-14.143 0-3.905 3.905-3.905 10.237 0 14.143l30 30c3.26 3.212 8.024 3.763 11.786 1.747 1.88-1.008.652-.071 32.357-31.747 3.905-3.905 3.905-10.237 0-14.143-3.905-3.905-10.237-3.905-14.143 0l-11.04 11.04c12.654-86.961 87.699-153.969 178.112-153.969 99.252 0 180 80.748 180 180s-80.748 180-180 180h-220c-5.523 0-10 4.478-10 10s4.477 10 10 10h220c110.28 0 200-89.72 200-200z"/><path d="m74.023 300.354c-5.329 1.45-8.474 6.945-7.024 12.274 13.002 47.787 43.22 88.908 85.087 115.788 4.627 2.97 10.821 1.655 13.818-3.013 2.984-4.647 1.635-10.834-3.012-13.817-37.693-24.199-64.895-61.208-76.594-104.208-1.451-5.33-6.948-8.478-12.275-7.024z"/><path d="m115.417 249.521c-4.832 1.061-8.162 5.496-7.833 10.432l1.357 20.353c.33 4.94 4.224 8.896 9.158 9.302l32.509 2.674c.894 3.019 1.91 6.004 3.043 8.941l-24.115 21.987c-3.659 3.336-4.325 8.848-1.567 12.96l11.372 16.956c2.756 4.111 8.106 5.589 12.58 3.471l29.51-13.955c2.276 2.165 4.645 4.241 7.095 6.221l-9.89 31.122c-1.499 4.716.678 9.819 5.119 12.003l18.274 8.983c4.44 2.184 9.812.79 12.63-3.277l18.578-26.799c3.071.742 6.173 1.354 9.292 1.835l6.998 31.885c1.012 4.612 5.099 7.856 9.761 7.856.524 0 5.862-.374 21.024-1.38 4.94-.329 8.896-4.225 9.302-9.159l2.67-32.521c3.026-.89 6.018-1.908 8.96-3.049l21.97 24.095c3.332 3.654 8.832 4.324 12.945 1.577l16.96-11.332c4.121-2.753 5.604-8.109 3.484-12.59l-13.955-29.511c2.173-2.287 4.253-4.665 6.231-7.122l31.103 9.914c4.723 1.51 9.833-.675 12.016-5.124l8.98-18.313c2.177-4.44.782-9.805-3.281-12.622l-26.799-18.576c.741-3.069 1.354-6.17 1.834-9.287l31.841-6.96c4.837-1.058 8.172-5.495 7.842-10.435l-1.356-20.353c-.328-4.936-4.218-8.89-9.147-9.3l-32.494-2.706c-.891-3.029-1.909-6.021-3.052-8.968l24.096-21.97c3.657-3.334 4.325-8.842 1.571-12.954l-11.33-16.919c-2.753-4.113-8.101-5.591-12.575-3.48l-29.534 13.933c-2.287-2.166-4.66-4.238-7.107-6.207l9.914-31.102c1.504-4.715-.669-9.821-5.109-12.008l-18.315-9.021c-4.442-2.187-9.816-.794-12.637 3.274l-18.592 26.82c-3.063-.733-6.156-1.344-9.267-1.829l-6.966-31.867c-1.058-4.836-5.505-8.157-10.435-7.842l-20.352 1.357c-4.937.329-8.89 4.218-9.3 9.148l-2.708 32.519c-3.021.895-6.008 1.911-8.949 3.045l-21.988-24.115c-3.338-3.662-8.855-4.326-12.967-1.562l-16.917 11.369c-4.102 2.757-5.575 8.097-3.466 12.566l13.932 29.533c-2.157 2.276-4.226 4.64-6.195 7.081l-31.121-9.889c-4.708-1.498-9.807.671-11.995 5.104l-9.023 18.277c-2.193 4.443-.803 9.822 3.27 12.645l26.82 18.592c-.734 3.065-1.345 6.161-1.831 9.273zm50.904-28.685-25.54-17.705 1.401-2.838 29.662 9.425c4.146 1.319 8.67-.197 11.187-3.748 3.868-5.458 8.311-10.535 13.206-15.092 3.185-2.965 4.087-7.65 2.23-11.586l-13.279-28.148 2.627-1.765 20.938 22.964c2.934 3.218 7.612 4.167 11.567 2.348 6.087-2.799 12.482-4.976 19.007-6.467 4.246-.971 7.375-4.578 7.736-8.919l2.58-30.988 3.171-.211 6.638 30.364c.932 4.258 4.514 7.423 8.854 7.822 6.664.613 13.291 1.92 19.696 3.888 4.162 1.276 8.673-.284 11.154-3.862l17.71-25.547 2.862 1.41-9.452 29.651c-1.327 4.161.201 8.702 3.773 11.215 5.445 3.832 10.526 8.267 15.103 13.183 2.964 3.185 7.65 4.087 11.586 2.23l28.135-13.272 1.75 2.613-22.975 20.948c-3.231 2.946-4.174 7.65-2.327 11.614 2.82 6.052 4.985 12.414 6.436 18.91.953 4.27 4.57 7.424 8.93 7.787l30.988 2.58.211 3.171-30.363 6.637c-4.277.936-7.448 4.544-7.827 8.905-.575 6.633-1.876 13.227-3.868 19.599-1.304 4.174.254 8.711 3.848 11.202l25.56 17.717-1.396 2.848-29.638-9.447c-4.161-1.328-8.703.201-11.216 3.773-3.847 5.468-8.287 10.543-13.196 15.083-3.207 2.965-4.118 7.669-2.251 11.617l13.298 28.12-2.638 1.762-20.953-22.98c-2.946-3.232-7.65-4.175-11.613-2.327-6.048 2.818-12.411 4.983-18.912 6.436-4.273.954-7.429 4.578-7.787 8.941l-2.547 31.014-3.168.211-6.675-30.408c-.938-4.273-4.544-7.441-8.903-7.819-6.633-.575-13.227-1.876-19.598-3.868-4.226-1.32-8.741.298-11.202 3.848l-17.713 25.552-2.822-1.387 9.421-29.648c1.318-4.147-.198-8.671-3.749-11.188-5.48-3.884-10.551-8.331-15.071-13.219-2.965-3.206-7.668-4.118-11.617-2.251l-28.134 13.304-1.778-2.65 22.971-20.943c3.217-2.934 4.167-7.611 2.348-11.567-2.799-6.088-4.975-12.482-6.468-19.009-.972-4.248-4.584-7.379-8.928-7.736l-30.976-2.548-.211-3.172 30.371-6.67c4.254-.935 7.415-4.515 7.813-8.852.612-6.664 1.92-13.292 3.887-19.698 1.276-4.165-.286-8.676-3.864-11.157z"/><path d="m259.975 329.927h.006c40.382 0 72.481-34.257 69.794-74.584-2.548-38.209-35.793-67.699-74.428-65.125-38.474 2.565-67.688 35.953-65.124 74.427 2.44 36.604 33.078 65.279 69.752 65.282zm.05-119.864c26.179 0 48.051 20.474 49.794 46.611 1.917 28.758-20.958 53.253-49.839 53.253-.001 0-.003 0-.004 0-26.182-.002-48.056-20.477-49.798-46.611-1.916-28.742 20.937-53.253 49.847-53.253z"/><path d="m488.035 455.935c.294-.398.219-.263.565-.853.254-.426.177-.27.449-.849.228-.486.154-.303.36-.877.803-2.234.815-4.825-.174-7.188-1.022-2.469-.337-1.399-32.165-33.24-3.906-3.904-10.236-3.904-14.143 0-3.905 3.905-3.905 10.237 0 14.143l12.93 12.929h-75.857c-5.522 0-10 4.478-10 10s4.478 10 10 10h75.857l-12.929 12.929c-3.905 3.905-3.905 10.237 0 14.143 3.907 3.905 10.236 3.904 14.143 0 6.95-6.953 29.591-29.58 30.124-30.138.185-.192.614-.692.84-.999z"/><circle cx="130" cy="70" r="10"/><circle cx="450" cy="130" r="10"/><circle cx="370" cy="50" r="10"/><circle cx="460" cy="360" r="10"/><path d="m40 80h60c5.523 0 10-4.477 10-10s-4.477-10-10-10h-60c-5.523 0-10 4.477-10 10s4.477 10 10 10z"/><circle cx="260" cy="480" r="10"/><path d="m230 470h-60c-5.523 0-10 4.478-10 10s4.477 10 10 10h60c5.523 0 10-4.478 10-10s-4.477-10-10-10z"/><path d="m440 100c16.542 0 30-13.458 30-30s-13.458-30-30-30-30 13.458-30 30 13.458 30 30 30zm0-40c5.514 0 10 4.486 10 10s-4.486 10-10 10-10-4.486-10-10 4.486-10 10-10z"/><path d="m55 160c13.785 0 25-11.215 25-25s-11.215-25-25-25-25 11.215-25 25 11.215 25 25 25zm0-30c2.757 0 5 2.243 5 5s-2.243 5-5 5-5-2.243-5-5 2.243-5 5-5z"/><path d="m55 420c13.785 0 25-11.215 25-25s-11.215-25-25-25-25 11.215-25 25 11.215 25 25 25zm0-30c2.757 0 5 2.243 5 5s-2.243 5-5 5-5-2.243-5-5 2.243-5 5-5z"/></g></g></svg>