<?xml version="1.0" encoding="UTF-8"?>
<svg xmlns="http://www.w3.org/2000/svg" id="Icons" viewBox="0 0 60 60" width="512" height="512"><path d="M56,5H50V4a4,4,0,0,0-4-4H4A4,4,0,0,0,0,4V40.005a4,4,0,0,0,4,4H6V52a2.991,2.991,0,0,0,4.818,2.383L17.825,49H35.66L49.18,59.375A2.971,2.971,0,0,0,51,60a3.008,3.008,0,0,0,3-3.006V49h2a4,4,0,0,0,4-4V9A4,4,0,0,0,56,5ZM9.6,52.794a.97.97,0,0,1-1.04.1A.983.983,0,0,1,8,52V43.005a1,1,0,0,0-1-1H4a2,2,0,0,1-2-2V4A2,2,0,0,1,4,2H46a2,2,0,0,1,2,2V40.005a2,2,0,0,1-2,2H24a.989.989,0,0,0-.608.207ZM58,45a2,2,0,0,1-2,2H53a1,1,0,0,0-1,1v8.99a.986.986,0,0,1-.56.9A.974.974,0,0,1,50.4,57.79L36.608,47.21A.991.991,0,0,0,36,47H20.432l3.908-3H46a4,4,0,0,0,4-4V7h6a2,2,0,0,1,2,2Z"/><path d="M25,34A15,15,0,1,0,10,19,15.017,15.017,0,0,0,25,34ZM25,6A13,13,0,1,1,12,19,13.015,13.015,0,0,1,25,6Z"/><path d="M25,11a1,1,0,0,0,1-1V9a1,1,0,0,0-2,0v1A1,1,0,0,0,25,11Z"/><path d="M17.929,13.343a1,1,0,0,0,1.414-1.414l-.707-.707a1,1,0,0,0-1.414,1.414Z"/><path d="M17,19a1,1,0,0,0-1-1H15a1,1,0,0,0,0,2h1A1,1,0,0,0,17,19Z"/><path d="M17.929,24.657l-.707.707a1,1,0,1,0,1.414,1.414l.707-.707a1,1,0,0,0-1.414-1.414Z"/><path d="M25,27a1,1,0,0,0-1,1v1a1,1,0,0,0,2,0V28A1,1,0,0,0,25,27Z"/><path d="M31.364,26.778a1,1,0,0,0,1.414-1.414l-.707-.707a1,1,0,1,0-1.414,1.414Z"/><path d="M34,20h1a1,1,0,0,0,0-2H34a1,1,0,0,0,0,2Z"/><path d="M31.364,13.636a1,1,0,0,0,.707-.293l.707-.707a1,1,0,0,0-1.414-1.414l-.707.707a1,1,0,0,0,.707,1.707Z"/><path d="M22,22a1,1,0,0,0,.554-.168l3-2A1,1,0,0,0,26,19V14a1,1,0,0,0-2,0v4.465l-2.555,1.7A1,1,0,0,0,22,22Z"/><path d="M39,37a1,1,0,0,0,1,1h3a1,1,0,0,0,0-2H40A1,1,0,0,0,39,37Z"/><path d="M37,37a1,1,0,0,0-1-1H7a1,1,0,0,0,0,2H36A1,1,0,0,0,37,37Z"/></svg>
