<svg id="Layer_1" enable-background="new 0 0 510 510" height="512" viewBox="0 0 510 510" width="512" xmlns="http://www.w3.org/2000/svg"><g><path d="m454.525 424.046c9.404-10.195 15.162-23.803 15.162-38.733 0-31.533-25.654-57.188-57.188-57.188s-57.188 25.654-57.188 57.188c0 14.934 5.761 28.544 15.168 38.74-5.947 3.526-11.448 7.791-16.359 12.702-11.488-19.478-28.549-35.293-48.978-45.232 16.721-14.227 27.356-35.4 27.356-59.022 0-37.602-26.922-69.022-62.5-76.03v-32.472c20.19-2.702 38.702-10.778 54.045-22.74l22.465 22.465 21.213-21.213-22.662-22.663c11.344-15.131 18.969-33.203 21.507-52.847h32.434v-30.001h-32.572c-7.576-54.724-54.655-97-111.428-97s-103.852 42.276-111.428 97h-30.572v30h30.433c2.603 20.138 10.556 38.619 22.375 53.979l-21.53 21.531 21.213 21.213 21.597-21.597c15.118 11.484 33.216 19.235 52.913 21.872v32.472c-35.578 7.008-62.5 38.429-62.5 76.03 0 23.622 10.637 44.796 27.356 59.022-20.429 9.939-37.489 25.755-48.977 45.232-4.911-4.911-10.412-9.176-16.359-12.702 9.407-10.196 15.168-23.806 15.168-38.74 0-31.533-25.654-57.188-57.188-57.188s-57.188 25.654-57.188 57.188c0 14.931 5.758 28.538 15.161 38.733-24.208 14.395-40.474 40.805-40.474 70.955v15h480v-15c0-30.15-16.266-56.56-40.475-70.954zm-69.212-38.733c0-14.991 12.196-27.188 27.188-27.188s27.188 12.196 27.188 27.188-12.198 27.187-27.189 27.187-27.187-12.196-27.187-27.187zm-130.313-355.313c45.49 0 82.5 37.009 82.5 82.5s-37.01 82.5-82.5 82.5-82.5-37.009-82.5-82.5 37.01-82.5 82.5-82.5zm-47.5 302.5c0-26.191 21.309-47.5 47.5-47.5s47.5 21.309 47.5 47.5-21.309 47.5-47.5 47.5-47.5-21.309-47.5-47.5zm-137.187 52.813c0-14.991 12.196-27.188 27.188-27.188s27.188 12.196 27.188 27.188-12.198 27.187-27.189 27.187-27.187-12.196-27.187-27.187zm-23.13 94.687c6.47-21.663 26.579-37.5 50.317-37.5 18.839 0 36.194 10.185 45.501 26.325-.829 3.558-1.558 7.58-2.026 11.175zm124.142 0c7.054-39.474 41.673-70 83.675-70 42.049 0 76.629 30.568 83.675 70zm197.7 0c-.469-3.593-1.197-7.615-2.026-11.175 9.307-16.14 26.662-26.325 45.501-26.325 23.738 0 43.848 15.837 50.317 37.5z"/><path d="m308.66 129.428-17.32-24.495-21.34 15.089v-61.022h-30v61.022l-21.34-15.089-17.32 24.495 53.66 37.943z"/></g></svg>