<svg id="Layer_1" enable-background="new 0 0 500 500" viewBox="0 0 500 500" xmlns="http://www.w3.org/2000/svg"><g><path d="m244.91 321.508h-214.853c-2.793 0-5.057-2.262-5.057-5.057v-101.538c0-2.793 2.264-5.057 5.057-5.057h214.853c2.793 0 5.057 2.264 5.057 5.057v101.539c0 2.794-2.265 5.056-5.057 5.056zm-209.796-10.114h204.739v-91.424h-204.739z"/><path d="m236.29 414.33h-58.567c-2.793 0-5.057-2.262-5.057-5.057v-29.586c-8.079-2.395-15.911-5.645-23.369-9.709l-20.942 20.939c-1.975 1.975-5.175 1.975-7.151 0l-41.413-41.408c-.948-.948-1.482-2.233-1.482-3.576s.534-2.627 1.482-3.575l20.941-20.944c-.477-.874-.943-1.758-1.4-2.647-1.277-2.484-.296-5.531 2.188-6.81 2.489-1.279 5.536-.296 6.81 2.188.968 1.886 1.988 3.743 3.057 5.57 1.165 1.985.842 4.504-.785 6.133l-20.084 20.084 34.263 34.258 20.085-20.079c1.627-1.62 4.153-1.951 6.135-.785 8.803 5.165 18.223 9.077 27.996 11.625 2.228.583 3.783 2.593 3.783 4.894v28.371h48.453v-28.371c0-2.301 1.556-4.311 3.783-4.894 9.766-2.543 19.186-6.46 27.996-11.63 1.99-1.165 4.512-.84 6.136.785l20.087 20.084 34.261-34.258-20.085-20.084c-1.627-1.63-1.951-4.148-.785-6.133 5.173-8.815 9.084-18.233 11.629-28.001.581-2.227 2.593-3.783 4.894-3.783h28.371v-48.453h-28.371c-2.302 0-4.314-1.555-4.894-3.783-2.545-9.768-6.457-19.188-11.629-27.996-1.166-1.985-.845-4.509.785-6.136l20.085-20.084-34.261-34.263-20.087 20.084c-1.625 1.632-4.146 1.958-6.136.785-8.812-5.173-18.23-9.087-27.996-11.627-2.227-.581-3.783-2.593-3.783-4.894v-28.371h-48.453v28.371c0 2.301-1.555 4.314-3.783 4.894-9.763 2.54-19.181 6.454-27.996 11.627-1.982 1.173-4.509.847-6.135-.785l-20.085-20.084-34.263 34.264 20.084 20.084c1.627 1.627 1.951 4.148.787 6.133-1.78 3.032-3.432 6.178-4.911 9.351-1.18 2.531-4.193 3.627-6.721 2.444-2.531-1.18-3.625-4.19-2.445-6.721 1.064-2.28 2.208-4.546 3.42-6.773l-20.941-20.944c-1.975-1.975-1.975-5.175 0-7.151l41.413-41.413c1.975-1.975 5.175-1.975 7.151 0l20.942 20.941c7.464-4.064 15.296-7.318 23.369-9.709v-29.586c0-2.793 2.264-5.057 5.057-5.057h58.567c2.793 0 5.057 2.265 5.057 5.057v29.586c8.074 2.39 15.907 5.645 23.369 9.709l20.944-20.941c1.975-1.975 5.175-1.975 7.151 0l41.411 41.413c1.975 1.975 1.975 5.175 0 7.151l-20.942 20.942c4.064 7.459 7.319 15.292 9.712 23.369h29.586c2.793 0 5.057 2.264 5.057 5.057v58.567c0 2.795-2.265 5.057-5.057 5.057h-29.586c-2.393 8.074-5.647 15.907-9.712 23.369l20.942 20.944c.948.948 1.481 2.232 1.481 3.575s-.533 2.628-1.481 3.576l-41.411 41.408c-1.975 1.975-5.175 1.975-7.151 0l-20.944-20.939c-7.459 4.059-15.292 7.314-23.369 9.709v29.586c0 2.794-2.264 5.056-5.057 5.056z"/><path d="m207.007 358.966c-30.509 0-59.399-14.781-77.279-39.547-1.637-2.262-1.126-5.422 1.138-7.057 2.272-1.635 5.432-1.126 7.06 1.141 15.985 22.134 41.811 35.349 69.081 35.349 46.952 0 85.148-38.199 85.148-85.148 0-46.952-38.196-85.149-85.148-85.149-29.083 0-55.861 14.615-71.632 39.095-1.513 2.348-4.645 3.025-6.99 1.514-2.348-1.514-3.025-4.642-1.514-6.99 17.645-27.384 47.602-43.732 80.136-43.732 52.528 0 95.262 42.734 95.262 95.262 0 52.53-42.734 95.262-95.262 95.262z"/><path d="m376.187 330.516h-19.559c-2.793 0-5.057-2.262-5.057-5.057s2.264-5.057 5.057-5.057h14.501v-21.892c0-2.302 1.553-4.311 3.781-4.894 7.795-2.035 15.306-5.15 22.324-9.274 1.99-1.166 4.511-.835 6.136.785l15.501 15.501 26.238-26.238-15.499-15.501c-1.627-1.63-1.95-4.148-.785-6.133 4.124-7.03 7.245-14.541 9.272-22.327.58-2.227 2.593-3.783 4.894-3.783h21.894v-37.107h-21.894c-2.302 0-4.314-1.556-4.894-3.783-2.027-7.786-5.148-15.297-9.272-22.324-1.165-1.985-.842-4.509.785-6.136l15.499-15.499-26.238-26.24-15.501 15.502c-1.625 1.627-4.146 1.956-6.136.785-7.028-4.124-14.539-7.244-22.322-9.272-2.227-.58-3.783-2.593-3.783-4.894v-21.895h-37.107v21.895c0 2.301-1.555 4.314-3.783 4.894-7.785 2.027-15.297 5.148-22.324 9.272-1.985 1.171-4.511.842-6.136-.785l-15.501-15.502-14.025 14.028c-1.975 1.975-5.176 1.975-7.151 0-1.975-1.973-1.975-5.175 0-7.151l17.601-17.603c1.896-1.896 5.254-1.896 7.151 0l16.371 16.368c5.664-3.029 11.588-5.491 17.684-7.346v-23.126c0-2.793 2.265-5.057 5.057-5.057h47.221c2.793 0 5.057 2.264 5.057 5.057v23.126c6.097 1.854 12.018 4.316 17.682 7.346l16.371-16.368c.948-.948 2.235-1.482 3.576-1.482s2.627.534 3.576 1.482l33.388 33.391c1.975 1.975 1.975 5.175 0 7.151l-16.366 16.368c3.03 5.665 5.492 11.588 7.346 17.685h23.126c2.793 0 5.057 2.264 5.057 5.057v47.221c0 2.793-2.265 5.057-5.057 5.057h-23.126c-1.854 6.096-4.316 12.02-7.346 17.685l16.366 16.37c1.975 1.975 1.975 5.176 0 7.151l-33.388 33.388c-1.975 1.975-5.176 1.975-7.151 0l-16.368-16.371c-5.662 3.032-11.583 5.492-17.685 7.353v23.122c-.001 2.795-2.265 5.057-5.058 5.057z"/><path d="m376.133 281.981c-2.104 0-4.067-1.319-4.785-3.418-.904-2.647.506-5.521 3.148-6.425 27.366-9.363 45.752-35.102 45.752-64.046 0-37.315-30.356-67.673-67.671-67.673-8.84 0-17.432 1.677-25.544 4.982-2.595 1.064-5.54-.19-6.59-2.773-1.054-2.585.185-5.536 2.773-6.59 9.329-3.805 19.208-5.733 29.361-5.733 42.89 0 77.785 34.895 77.785 77.787 0 33.268-21.134 62.851-52.592 73.617-.543.183-1.094.272-1.637.272z"/><path d="m103.732 238.174h-19.277v60.713h-13.6v-60.713h-19.142v-9.65h52.019z"/><path d="m144.536 284.714h-24.424l-4.225 14.172h-13.995l23.236-70.362h14.391l23.238 70.362h-13.863zm-2.772-9.449-5.809-18.898c-1.321-4.623-2.773-11.357-3.434-15.077h-.396c-.659 3.72-1.979 10.454-3.432 15.077l-5.677 18.898z"/><path d="m208.579 298.886-14.525-26.033-14.654 26.033h-14.789l22.05-36.487-20.729-33.875h14.657l13.465 23.824 13.337-23.824h14.654l-20.727 33.875 22.05 36.487z"/></g></svg>