<svg id="Out_line" height="512" viewBox="0 0 512 512" width="512" xmlns="http://www.w3.org/2000/svg" data-name="Out line"><path d="m296 440.002h-8v-120.002h-16v136.002h-224v-400h49.13721a32.05775 32.05775 0 0 0 30.98779 24h64a32.05775 32.05775 0 0 0 30.98779-24h48.88721v191.998h16v-175.99805h8v7.99805h16v-39.998a24.0275 24.0275 0 0 0 -24-24h-256a24.0275 24.0275 0 0 0 -24 24v432a24.0275 24.0275 0 0 0 24 24h256a24.0275 24.0275 0 0 0 24-24v-40.002h-16zm-264-408h256a8.00917 8.00917 0 0 1 8 8v16h-8v-8a7.99977 7.99977 0 0 0 -8-8h-63.875a7.99977 7.99977 0 0 0 -8 8 16.01833 16.01833 0 0 1 -16 16h-64a16.01833 16.01833 0 0 1 -16-16 7.99977 7.99977 0 0 0 -8-8h-64.125a7.99977 7.99977 0 0 0 -8 8v8h-8v-16a8.00917 8.00917 0 0 1 8-8zm0 408h-8v-368h8zm256 40h-256a8.00916 8.00916 0 0 1 -8-8v-16h8v8a7.99977 7.99977 0 0 0 8 8h240a7.99977 7.99977 0 0 0 8-8v-8h8v16a8.00916 8.00916 0 0 1 -8 8z"/><path d="m144.125 40.002h32v16h-32z"/><circle cx="192.125" cy="48.002" r="8"/><path d="m248 320h-8.401a80.20006 80.20006 0 0 0 -55.599-68.31714v-11.68286a24 24 0 0 0 -48 0v11.68286a80.20006 80.20006 0 0 0 -55.599 68.31714h-8.401a7.99977 7.99977 0 0 0 -8 8 40.04521 40.04521 0 0 0 40 40h112a40.04521 40.04521 0 0 0 40-40 7.99977 7.99977 0 0 0 -8-8zm-96-80a8 8 0 0 1 16 0v8.401c-2.632-.26257-5.3-.401-8-.401s-5.368.13843-8 .401zm8 24a64.08187 64.08187 0 0 1 63.48218 56h-126.96436a64.08187 64.08187 0 0 1 63.48218-56zm56 88h-112a24.04118 24.04118 0 0 1 -22.62891-16h157.25782a24.04118 24.04118 0 0 1 -22.62891 16z"/><path d="m488 96h-184a7.99977 7.99977 0 0 0 -8 8v156.686l-29.65674 29.65722a7.99981 7.99981 0 0 0 5.65674 13.65678h24v104a7.99977 7.99977 0 0 0 8 8h184a7.99977 7.99977 0 0 0 8-8v-304a7.99977 7.99977 0 0 0 -8-8zm-8 304h-168v-104a7.99977 7.99977 0 0 0 -8-8h-12.686l18.34278-18.34326a7.99877 7.99877 0 0 0 2.34322-5.65674v-152h168z"/><path d="m352 192a32 32 0 1 0 -32-32 32.036 32.036 0 0 0 32 32zm0-48a16 16 0 1 1 -16 16 16.01833 16.01833 0 0 1 16-16z"/><path d="m400 128h32v16h-32z"/><path d="m440 128h32v16h-32z"/><path d="m400 152h16v16h-16z"/><path d="m392 176h48v16h-48z"/><path d="m424 152h48v16h-48z"/><path d="m448 176h24v16h-24z"/><path d="m352 288a32 32 0 1 0 -32-32 32.036 32.036 0 0 0 32 32zm0-48a16 16 0 1 1 -16 16 16.01833 16.01833 0 0 1 16-16z"/><path d="m400 224h32v16h-32z"/><path d="m440 224h32v16h-32z"/><path d="m400 248h16v16h-16z"/><path d="m392 272h48v16h-48z"/><path d="m424 248h48v16h-48z"/><path d="m448 272h24v16h-24z"/><path d="m352 384a32 32 0 1 0 -32-32 32.036 32.036 0 0 0 32 32zm0-48a16 16 0 1 1 -16 16 16.01833 16.01833 0 0 1 16-16z"/><path d="m400 320h32v16h-32z"/><path d="m440 320h32v16h-32z"/><path d="m400 344h16v16h-16z"/><path d="m392 368h48v16h-48z"/><path d="m424 344h48v16h-48z"/><path d="m448 368h24v16h-24z"/></svg>