<svg id="Layer_1" enable-background="new 0 0 500 500" viewBox="0 0 500 500" xmlns="http://www.w3.org/2000/svg"><path clip-rule="evenodd" d="m297.836 340.323c-15.005 55.982-63.385 95.878-120.151 100.7l13.681 13.654c4.084 4.097 1.186 11.176-4.634 11.176-1.655 0-3.365-.64-4.634-1.92l-23.17-23.181c-2.593-2.56-2.593-6.703 0-9.262l23.17-23.181c2.538-2.554 6.73-2.554 9.268 0 2.538 2.56 2.538 6.697 0 9.257l-9.875 9.891c49.153-6.145 90.582-41.512 103.712-90.521.938-3.492 4.524-5.572 7.999-4.628 3.531.932 5.572 4.523 4.634 8.015zm-140.893-136.618c-2.593-2.56-2.593-6.703 0-9.262l12.743-12.782c-52.187-1.545-101.008 30.65-119.379 80.52-1.268 3.408-5.03 5.126-8.44 3.873-3.365-1.247-5.131-5.009-3.862-8.407 20.129-54.253 72.369-90.043 130.081-89.115l-11.143-11.193c-2.593-2.56-2.593-6.708 0-9.262 2.538-2.56 6.675-2.549 9.268 0l23.17 23.186c1.93 1.944 2.312 4.596 1.379 7.144-.497 1.578-1.545 2.863-2.924 3.658l-21.625 21.642c-2.593 2.552-6.73 2.552-9.268-.002zm-16.825 207.611h-93.12v-27.208c0-25.663 20.908-46.538 46.56-46.538s46.56 20.875 46.56 46.538zm-46.56-133.998c12.743 0 23.114 10.371 23.114 23.114 0 12.738-10.371 23.109-23.114 23.109s-23.115-10.371-23.115-23.109c0-12.743 10.371-23.114 23.115-23.114zm22.397 51.53c8.385-6.631 13.791-16.897 13.791-28.416 0-19.965-16.219-36.211-36.189-36.211s-36.189 16.246-36.189 36.211c0 11.519 5.406 21.785 13.791 28.416-21.846 8.871-37.237 30.297-37.237 55.26v33.756c0 3.613 2.924 6.548 6.565 6.548h106.139c3.641 0 6.565-2.935 6.565-6.548v-33.756c.001-24.963-15.445-46.389-37.236-55.26zm310.418-196.097c-12.633 0-23.611-8.479-26.81-20.626l-15.281-64.881h36.74l31.5 66.966c-3.862 11.027-14.289 18.541-26.149 18.541zm-51.36 133.942h47.498v-121.028c-11.916-1.114-22.508-7.387-29.293-16.82-16.29 22.651-50.096 22.62-66.364 0-16.125 22.586-49.989 22.692-66.309 0-6.785 9.433-17.377 15.706-29.293 16.82v121.028h47.498v-16.053c0-19.341 11.474-36.034 27.969-43.68-5.903-5.45-9.599-13.234-9.599-21.868 0-16.423 13.35-29.779 29.734-29.779 16.439 0 29.789 13.356 29.789 29.779 0 8.633-3.696 16.417-9.599 21.868 16.494 7.646 27.969 24.339 27.969 43.68zm-13.074-16.053v16.053h-70.116v-16.053c0-19.325 15.722-35.036 35.03-35.036 19.364 0 35.086 15.711 35.086 35.036zm-35.085-48.866c-9.158 0-16.66-7.481-16.66-16.682 0-9.202 7.502-16.682 16.66-16.682 9.213 0 16.715 7.48 16.715 16.682s-7.503 16.682-16.715 16.682zm114.965 80.465v23.981c0 1.329-1.103 2.455-2.427 2.455h-225.021c-1.324 0-2.427-1.125-2.427-2.455v-23.981c0-1.324 1.103-2.449 2.427-2.449h225.021c1.324-.001 2.427 1.125 2.427 2.449zm-240.578-168.029 31.5-66.966h36.685l-15.226 64.88c-3.2 12.147-14.178 20.626-26.811 20.626-11.86.001-22.286-7.513-26.148-18.54zm119.103-66.966v65.57c-3.42 11.778-14.288 19.937-26.645 19.937-12.081 0-22.728-7.839-26.369-19.231l15.557-66.276zm13.074 0v65.553c3.421 11.789 14.288 19.954 26.645 19.954 12.081 0 22.728-7.839 26.369-19.231l-15.557-66.276zm132.012 63.666-34.313-73c-1.048-2.295-3.365-3.762-5.902-3.762h-196.667c-2.538 0-4.855 1.468-5.903 3.762l-34.313 73.001c-.662 1.39-.828 2.962-.441 4.435 3.917 14.895 15.722 26.049 30.231 29.431v121.916h-3.751c-8.551 0-15.502 6.973-15.502 15.546v23.981c0 8.573 6.951 15.551 15.502 15.551h225.021c8.551 0 15.501-6.978 15.501-15.551v-23.981c0-8.573-6.951-15.546-15.501-15.546h-3.751v-121.916c14.508-3.382 26.314-14.536 30.231-29.431.386-1.473.22-3.045-.442-4.436z" fill-rule="evenodd"/></svg>