<?xml version="1.0"?>
<svg xmlns="http://www.w3.org/2000/svg" viewBox="0 0 48 48"><title/><g data-name="Digital Marketing" id="Digital_Marketing"><path d="M45,0H33a3,3,0,0,0-3,3v8a3,3,0,0,0,3,3H45a3,3,0,0,0,3-3V3A3,3,0,0,0,45,0Zm1,11a1,1,0,0,1-1,1H33a1,1,0,0,1-1-1V3a1,1,0,0,1,1-1H45a1,1,0,0,1,1,1Z"/><path d="M15,14a3,3,0,0,0,3-3V3a3,3,0,0,0-3-3H3A3,3,0,0,0,0,3v8a3,3,0,0,0,3,3ZM14,2,9,5.75,4,2ZM2,11V3C8.89,8.17,8.52,8,9,8s.12.16,7-5v8a1,1,0,0,1-1,1H3A1,1,0,0,1,2,11Z"/><path d="M41.66,5.21c-2.61-1.3-3.48-2-4.71-1.29s-1,2-1,4.46a2,2,0,0,0,2,2c.67,0,.94-.23,3.66-1.59A2,2,0,0,0,41.66,5.21ZM38,8.39V5.62L40.76,7Z"/><path d="M46.23,36a1.94,1.94,0,0,0-.11-2.62l-1.51-1.51A2,2,0,0,0,42,31.77,1.93,1.93,0,0,0,40.07,30H37.93A1.93,1.93,0,0,0,36,31.77a2,2,0,0,0-2.62.11l-1.51,1.51A1.94,1.94,0,0,0,31.77,36,1.93,1.93,0,0,0,30,37.93v2.14A1.93,1.93,0,0,0,31.77,42a1.94,1.94,0,0,0,.11,2.62l1.51,1.51a2,2,0,0,0,2.62.11A1.93,1.93,0,0,0,37.93,48h2.14A1.93,1.93,0,0,0,42,46.23a2,2,0,0,0,2.62-.11c1.63-1.63,2.08-1.9,2.08-2.88A2,2,0,0,0,46.23,42,1.93,1.93,0,0,0,48,40.07V37.93A1.93,1.93,0,0,0,46.23,36ZM46,40a1.93,1.93,0,0,0-1.34,3.24l-1.42,1.42A1.93,1.93,0,0,0,40,46H38a1.93,1.93,0,0,0-3.24-1.34l-1.42-1.42A1.93,1.93,0,0,0,32,40V38a1.93,1.93,0,0,0,1.34-3.24l1.42-1.42A1.93,1.93,0,0,0,38,32h2a1.93,1.93,0,0,0,3.24,1.34l1.42,1.42A1.93,1.93,0,0,0,46,38Zm.07-4Z"/><path d="M39,35a4,4,0,1,0,4,4A4,4,0,0,0,39,35Zm0,6a2,2,0,1,1,2-2A2,2,0,0,1,39,41Z"/><path d="M25.73,27.25a5,5,0,0,0-6.93-6.93c-3.8-3.8-3.8-4-4.49-3.88s-.25-.46-7,13.83c-4,4-5.29,4.76-5.29,7s1.43,3.09,4,5.66a4,4,0,0,0,4.85.61C14.44,47.08,15,48,16.61,48a3,3,0,0,0,2.12-5.12l-3.54-3.54.59-.58c14.32-6.79,13.71-6.3,13.83-7S29.63,31.16,25.73,27.25Zm-1.47-1.46-4-4A3,3,0,0,1,24.26,25.79ZM7.41,41.46c-4.74-4.74-4.72-3.75.71-9.19l5.66,5.66-3.54,3.53A2,2,0,0,1,7.41,41.46Zm6.37-.7,3.53,3.53a1,1,0,0,1-1.41,1.42l-3.54-3.54Zm1.62-4L9.33,30.65l5.45-11.52L26.92,31.27Z"/><path d="M27.21,19.84c.55,0,.57-.16,2.83-2.42A1,1,0,0,0,28.63,16l-2.12,2.12A1,1,0,0,0,27.21,19.84Z"/><path d="M24,17V14a1,1,0,0,0-2,0v3A1,1,0,0,0,24,17Z"/><path d="M29,24h3a1,1,0,0,0,0-2H29A1,1,0,0,0,29,24Z"/></g></svg>
