<svg id="Layer_1_1_" enable-background="new 0 0 64 64" height="512" viewBox="0 0 64 64" width="512" xmlns="http://www.w3.org/2000/svg"><path d="m32 32c8.271 0 15-6.729 15-15s-6.729-15-15-15-15 6.729-15 15 6.729 15 15 15zm-7-4.063v-4.947c0-.808.314-1.564.886-2.13.561-.555 1.301-.86 2.087-.86h.027l1.716.015-.686 2.742c-.04.159-.04.326 0 .485l1.673 6.692c-2.086-.207-4.023-.918-5.703-1.997zm7-15.559c1.26 1.04 2.838 1.622 4.46 1.622.149 0 .294-.02.442-.03-.453 2.294-2.477 4.03-4.902 4.03s-4.449-1.736-4.902-4.03c1.723.101 3.529-.458 4.902-1.592zm-4.891-.407c.476-2.264 2.487-3.971 4.891-3.971s4.415 1.707 4.891 3.971c-.143.013-.285.029-.431.029-1.396 0-2.752-.61-3.721-1.673-.379-.416-1.1-.416-1.479 0-.968 1.063-2.323 1.673-3.72 1.673-.146 0-.288-.016-.431-.029zm4.891 14.906-.969-3.877.741-2.967.456.004.741 2.963zm7 1.06c-1.68 1.079-3.617 1.79-5.703 1.997l1.673-6.692c.04-.159.04-.326 0-.485l-.676-2.702 1.681.015c1.728.008 2.972 1.491 3.024 3.58v4.287zm-7-23.937c7.168 0 13 5.832 13 13 0 3.675-1.54 6.992-4 9.359v-2.735c-.074-2.917-1.835-5.093-4.275-5.475 1.394-1.28 2.275-3.111 2.275-5.149 0-3.86-3.141-7-7-7s-7 3.14-7 7c0 2.003.85 3.807 2.203 5.084-1.013.168-1.975.612-2.726 1.355-.953.945-1.477 2.206-1.477 3.551v3.369c-2.46-2.367-4-5.684-4-9.359 0-7.168 5.832-13 13-13z"/><path d="m35 42c.553 0 1-.448 1-1v-6c0-.552-.447-1-1-1h-6c-.553 0-1 .448-1 1v6c0 .552.447 1 1 1zm-5-6h4v4h-4z"/><path d="m50 29h6c.553 0 1-.448 1-1v-6c0-.552-.447-1-1-1h-6c-.553 0-1 .448-1 1v6c0 .552.447 1 1 1zm1-6h4v4h-4z"/><path d="m8 29h6c.553 0 1-.448 1-1v-6c0-.552-.447-1-1-1h-6c-.553 0-1 .448-1 1v6c0 .552.447 1 1 1zm1-6h4v4h-4z"/><path d="m11 61c4.963 0 9-4.038 9-9s-4.037-9-9-9-9 4.038-9 9 4.037 9 9 9zm3-2.685c-.911.434-1.926.685-3 .685s-2.089-.251-3-.685v-2.315c0-.551.448-1 1-1h4c.552 0 1 .449 1 1zm-5-7.315c0-1.103.897-2 2-2s2 .897 2 2-.897 2-2 2-2-.897-2-2zm2-6c3.859 0 7 3.14 7 7 0 1.902-.765 3.627-2 4.889v-.889c0-1.199-.712-2.228-1.731-2.708.457-.65.731-1.438.731-2.292 0-2.206-1.794-4-4-4s-4 1.794-4 4c0 .854.274 1.641.731 2.292-1.019.48-1.731 1.509-1.731 2.708v.889c-1.235-1.262-2-2.987-2-4.889 0-3.86 3.141-7 7-7z"/><path d="m23 53c0 4.962 4.037 9 9 9s9-4.038 9-9-4.037-9-9-9-9 4.038-9 9zm12 6.315c-.911.434-1.926.685-3 .685s-2.089-.251-3-.685v-2.315c0-.551.448-1 1-1h4c.552 0 1 .449 1 1zm-5-7.315c0-1.103.897-2 2-2s2 .897 2 2-.897 2-2 2-2-.897-2-2zm2-6c3.859 0 7 3.14 7 7 0 1.902-.765 3.627-2 4.889v-.889c0-1.199-.712-2.228-1.731-2.708.457-.65.731-1.438.731-2.292 0-2.206-1.794-4-4-4s-4 1.794-4 4c0 .854.274 1.641.731 2.292-1.019.48-1.731 1.509-1.731 2.708v.889c-1.235-1.263-2-2.988-2-4.889 0-3.86 3.141-7 7-7z"/><path d="m44 52c0 4.962 4.037 9 9 9s9-4.038 9-9-4.037-9-9-9-9 4.038-9 9zm12 6.315c-.911.434-1.926.685-3 .685s-2.089-.251-3-.685v-2.315c0-.551.448-1 1-1h4c.552 0 1 .449 1 1zm-5-7.315c0-1.103.897-2 2-2s2 .897 2 2-.897 2-2 2-2-.897-2-2zm9 1c0 1.902-.765 3.627-2 4.889v-.889c0-1.199-.712-2.228-1.731-2.708.457-.65.731-1.438.731-2.292 0-2.206-1.794-4-4-4s-4 1.794-4 4c0 .854.274 1.641.731 2.292-1.019.48-1.731 1.509-1.731 2.708v.889c-1.235-1.263-2-2.988-2-4.889 0-3.86 3.141-7 7-7s7 3.14 7 7z"/><path d="m10 31v6l-1.2-1.6-1.6 1.2 3 4c.188.252.485.4.8.4s.611-.148.8-.4l3-4-1.6-1.2-1.2 1.6v-6z"/><path d="m52 31v6l-1.2-1.6-1.6 1.2 3 4c.188.252.485.4.8.4s.611-.148.8-.4l3-4-1.6-1.2-1.2 1.6v-6z"/></svg>