<?xml version="1.0" encoding="UTF-8"?>
<svg xmlns="http://www.w3.org/2000/svg" id="Layer_3" data-name="Layer 3" viewBox="0 0 64 64" width="512" height="512"><path d="M36,52a1,1,0,0,1-1-1H33a3,3,0,0,0,2,2.816V55h2V53.816A2.993,2.993,0,0,0,36,48a1,1,0,1,1,1-1h2a3,3,0,0,0-2-2.816V43H35v1.184A2.993,2.993,0,0,0,36,50a1,1,0,0,1,0,2Z"/><path d="M62,35H60.816A2.966,2.966,0,0,0,61,34V4a3,3,0,0,0-3-3H36a3,3,0,0,0-3,3V27H2a1,1,0,0,0-1,1V54a1,1,0,0,0,1,1H5v3a1,1,0,0,0,1,1H9v3a1,1,0,0,0,1,1H62a1,1,0,0,0,1-1V36A1,1,0,0,0,62,35ZM35,4a1,1,0,0,1,1-1H58a1,1,0,0,1,1,1V34a1,1,0,0,1-1,1H36a1,1,0,0,1-1-1ZM5,32V53H3V29H33v2H6A1,1,0,0,0,5,32Zm4,4V57H7V33H33v1a2.966,2.966,0,0,0,.184,1H10A1,1,0,0,0,9,36ZM61,61H11V37H61Z"/><path d="M20,46a3,3,0,1,0,3,3A3,3,0,0,0,20,46Zm0,4a1,1,0,1,1,1-1A1,1,0,0,1,20,50Z"/><path d="M51,46a3,3,0,1,0,3,3A3,3,0,0,0,51,46Zm0,4a1,1,0,1,1,1-1A1,1,0,0,1,51,50Z"/><path d="M56,40a1,1,0,0,0-1-1H17a1,1,0,0,0-1,1,2,2,0,0,1-2,2,1,1,0,0,0-1,1V55a1,1,0,0,0,1,1,2,2,0,0,1,2,2,1,1,0,0,0,1,1H55a1,1,0,0,0,1-1,2,2,0,0,1,2-2,1,1,0,0,0,1-1V43a1,1,0,0,0-1-1A2,2,0,0,1,56,40ZM44,49a8,8,0,1,1-8-8A8.009,8.009,0,0,1,44,49ZM17.873,57A4.014,4.014,0,0,0,15,54.127V43.873A4.014,4.014,0,0,0,17.873,41H30.026a9.961,9.961,0,0,0,0,16ZM57,54.127A4.014,4.014,0,0,0,54.127,57H41.974a9.961,9.961,0,0,0,0-16H54.127A4.014,4.014,0,0,0,57,43.873Z"/><path d="M38,15H56a1,1,0,0,0,1-1V6a1,1,0,0,0-1-1H38a1,1,0,0,0-1,1v8A1,1,0,0,0,38,15Zm1-8H55v6H39Z"/><path d="M38,33H56a1,1,0,0,0,1-1V18a1,1,0,0,0-1-1H38a1,1,0,0,0-1,1V32A1,1,0,0,0,38,33Zm1-7h7v5H39Zm9,5V26h7v5Zm7-7H48V19h7Zm-9-5v5H39V19Z"/><path d="M11,7H5A1,1,0,0,0,4,8v9H2a1,1,0,0,0-.707,1.707l6,6a1,1,0,0,0,1.414,0l6-6A1,1,0,0,0,14,17H12V8A1,1,0,0,0,11,7ZM8,22.586,4.414,19H5a1,1,0,0,0,1-1V9h4v9a1,1,0,0,0,1,1h.586Z"/><path d="M27,7H21a1,1,0,0,0-1,1v9H18a1,1,0,0,0-.707,1.707l6,6a1,1,0,0,0,1.414,0l6-6A1,1,0,0,0,30,17H28V8A1,1,0,0,0,27,7ZM24,22.586,20.414,19H21a1,1,0,0,0,1-1V9h4v9a1,1,0,0,0,1,1h.586Z"/></svg>
