<svg id="Capa_1" enable-background="new 0 0 512 512" height="512" viewBox="0 0 512 512" width="512" xmlns="http://www.w3.org/2000/svg"><g><path d="m206.398 188.307h99.203c11.531 0 20.913-9.382 20.913-20.914v-82.92c0-2.058-.862-3.97-2.196-5.304l-48.721-48.721c-1.338-1.337-3.27-2.196-5.304-2.196h-63.896c-11.531 0-20.913 9.382-20.913 20.913v118.228c.001 11.532 9.383 20.914 20.914 20.914zm71.396-134.449 23.114 23.114h-17.201c-3.261 0-5.913-2.652-5.913-5.913zm-77.309-4.693c0-3.261 2.652-5.913 5.913-5.913h56.396v27.808c0 11.531 9.382 20.913 20.913 20.913h27.808v75.42c0 3.261-2.652 5.914-5.913 5.914h-99.203c-3.261 0-5.913-2.653-5.913-5.914v-118.228z"/><path d="m224.787 90.487h18.478c4.143 0 7.5-3.357 7.5-7.5s-3.357-7.5-7.5-7.5h-18.478c-4.143 0-7.5 3.357-7.5 7.5s3.358 7.5 7.5 7.5z"/><path d="m224.787 120.487h62.426c4.143 0 7.5-3.357 7.5-7.5s-3.357-7.5-7.5-7.5h-62.426c-4.143 0-7.5 3.357-7.5 7.5s3.358 7.5 7.5 7.5z"/><path d="m224.787 150.487h62.426c4.143 0 7.5-3.357 7.5-7.5s-3.357-7.5-7.5-7.5h-62.426c-4.143 0-7.5 3.357-7.5 7.5s3.358 7.5 7.5 7.5z"/><path d="m509.804 79.169-48.721-48.721c-1.361-1.361-3.304-2.196-5.304-2.196h-63.896c-11.531 0-20.913 9.382-20.913 20.913v118.228c0 11.532 9.382 20.914 20.913 20.914h32.102c4.143 0 7.5-3.357 7.5-7.5s-3.357-7.5-7.5-7.5h-32.102c-3.261 0-5.913-2.653-5.913-5.914v-118.228c0-3.261 2.652-5.913 5.913-5.913h56.396v27.808c0 11.531 9.382 20.913 20.913 20.913h27.808v75.42c0 3.261-2.652 5.914-5.913 5.914h-32.102c-4.143 0-7.5 3.357-7.5 7.5s3.357 7.5 7.5 7.5h32.102c11.531 0 20.913-9.382 20.913-20.914v-82.92c0-2.053-.859-3.967-2.196-5.304zm-40.612-2.196c-3.261 0-5.913-2.652-5.913-5.913v-17.202l23.114 23.114h-17.201z"/><path d="m410.272 90.487h18.478c4.143 0 7.5-3.357 7.5-7.5s-3.357-7.5-7.5-7.5h-18.478c-4.143 0-7.5 3.357-7.5 7.5s3.358 7.5 7.5 7.5z"/><path d="m410.272 120.487h62.426c4.143 0 7.5-3.357 7.5-7.5s-3.357-7.5-7.5-7.5h-62.426c-4.143 0-7.5 3.357-7.5 7.5s3.358 7.5 7.5 7.5z"/><path d="m410.272 150.487h62.426c4.143 0 7.5-3.357 7.5-7.5s-3.357-7.5-7.5-7.5h-62.426c-4.143 0-7.5 3.357-7.5 7.5s3.358 7.5 7.5 7.5z"/><path d="m138.833 79.169-48.721-48.721c-1.342-1.342-3.276-2.196-5.304-2.196h-63.895c-11.531 0-20.913 9.382-20.913 20.913v118.228c0 11.532 9.382 20.914 20.913 20.914h99.203c11.531 0 20.913-9.382 20.913-20.914v-82.92c0-2.054-.872-3.98-2.196-5.304zm-46.524-25.311 23.114 23.114h-17.201c-3.261 0-5.913-2.652-5.913-5.913zm33.72 113.535c0 3.261-2.652 5.914-5.913 5.914h-99.203c-3.261 0-5.913-2.653-5.913-5.914v-118.228c0-3.261 2.652-5.913 5.913-5.913h56.396v27.808c0 11.531 9.382 20.913 20.913 20.913h27.808v75.42z"/><path d="m39.302 90.487h18.478c4.143 0 7.5-3.357 7.5-7.5s-3.357-7.5-7.5-7.5h-18.478c-4.143 0-7.5 3.357-7.5 7.5s3.357 7.5 7.5 7.5z"/><path d="m31.802 112.987c0 4.143 3.357 7.5 7.5 7.5h62.427c4.143 0 7.5-3.357 7.5-7.5s-3.357-7.5-7.5-7.5h-62.427c-4.143 0-7.5 3.358-7.5 7.5z"/><path d="m101.729 135.487h-62.427c-4.143 0-7.5 3.357-7.5 7.5s3.357 7.5 7.5 7.5h62.427c4.143 0 7.5-3.357 7.5-7.5s-3.358-7.5-7.5-7.5z"/><path d="m509.804 283.68-48.721-48.722c-1.334-1.334-3.269-2.196-5.304-2.196h-63.896c-11.531 0-20.913 9.382-20.913 20.913v118.229c0 11.531 9.382 20.913 20.913 20.913h99.203c11.531 0 20.913-9.382 20.913-20.913v-82.92c.001-2.048-.851-3.96-2.195-5.304zm-46.525-25.312 11.557 11.557 11.557 11.558h-17.201c-3.261 0-5.913-2.652-5.913-5.913zm33.721 113.535c0 3.261-2.652 5.913-5.913 5.913h-99.203c-3.261 0-5.913-2.652-5.913-5.913v-118.228c0-3.261 2.652-5.913 5.913-5.913h56.396v27.809c0 11.531 9.382 20.913 20.913 20.913h27.807z"/><path d="m410.272 294.997h18.478c4.143 0 7.5-3.357 7.5-7.5s-3.357-7.5-7.5-7.5h-18.478c-4.143 0-7.5 3.357-7.5 7.5s3.358 7.5 7.5 7.5z"/><path d="m402.772 317.497c0 4.143 3.357 7.5 7.5 7.5h62.426c4.143 0 7.5-3.357 7.5-7.5s-3.357-7.5-7.5-7.5h-62.426c-4.142 0-7.5 3.357-7.5 7.5z"/><path d="m472.698 339.997h-62.426c-4.143 0-7.5 3.357-7.5 7.5s3.357 7.5 7.5 7.5h62.426c4.143 0 7.5-3.357 7.5-7.5s-3.357-7.5-7.5-7.5z"/><path d="m138.833 283.68-48.721-48.722c-1.344-1.344-3.278-2.196-5.304-2.196h-63.895c-11.531 0-20.913 9.382-20.913 20.913v118.229c0 11.531 9.382 20.913 20.913 20.913h99.203c11.531 0 20.913-9.382 20.913-20.913v-82.92c0-2.059-.862-3.97-2.196-5.304zm-46.524-25.312 11.557 11.557 11.557 11.558h-17.201c-3.261 0-5.913-2.652-5.913-5.913zm33.72 113.535c0 3.261-2.652 5.913-5.913 5.913h-99.203c-3.261 0-5.913-2.652-5.913-5.913v-118.228c0-3.261 2.652-5.913 5.913-5.913h56.396v27.809c0 11.531 9.382 20.913 20.913 20.913h27.808v75.419z"/><path d="m39.302 294.997h18.478c4.143 0 7.5-3.357 7.5-7.5s-3.357-7.5-7.5-7.5h-18.478c-4.143 0-7.5 3.357-7.5 7.5s3.357 7.5 7.5 7.5z"/><path d="m31.802 317.497c0 4.143 3.357 7.5 7.5 7.5h62.427c4.143 0 7.5-3.357 7.5-7.5s-3.357-7.5-7.5-7.5h-62.427c-4.143 0-7.5 3.357-7.5 7.5z"/><path d="m101.729 339.997h-62.427c-4.143 0-7.5 3.357-7.5 7.5s3.357 7.5 7.5 7.5h62.427c4.143 0 7.5-3.357 7.5-7.5s-3.358-7.5-7.5-7.5z"/><path d="m282.39 368.052h-3.991c15.443-8.097 26.009-24.28 26.009-42.893 0-26.691-21.716-48.407-48.407-48.407s-48.407 21.716-48.407 48.407c0 18.613 10.566 34.795 26.009 42.893h-3.991c-34.379 0-62.348 27.97-62.348 62.349v29.551c0 13.122 10.675 23.797 23.795 23.797h47.441c4.143 0 7.5-3.357 7.5-7.5s-3.357-7.5-7.5-7.5h-47.442c-4.85 0-8.795-3.946-8.795-8.797v-29.552c0-26.108 21.24-47.349 47.348-47.349h52.779c26.108 0 47.349 21.24 47.349 47.349v29.551c0 4.851-3.946 8.797-8.797 8.797h-47.442c-4.143 0-7.5 3.357-7.5 7.5s3.357 7.5 7.5 7.5h47.441c13.122 0 23.797-10.675 23.797-23.797v-29.551c0-34.379-27.969-62.348-62.348-62.348zm-59.797-42.893c0-18.421 14.986-33.407 33.407-33.407s33.407 14.986 33.407 33.407-14.986 33.407-33.407 33.407-33.407-14.986-33.407-33.407z"/></g></svg>