<svg id="Layer_3" height="512" viewBox="0 0 64 64" width="512" xmlns="http://www.w3.org/2000/svg" data-name="Layer 3"><path d="m56 37h-4v-6a10.013 10.013 0 0 0 -9-9.949v-.051a1 1 0 0 0 -.1-.447l-1.9-3.789v-1.764h1a1 1 0 0 0 1-1v-12a1 1 0 0 0 -1-1h-18a1 1 0 0 0 -1 1v12a1 1 0 0 0 1 1h1v1.586l-3.707 3.707a1 1 0 0 0 -.293.707v.051a10.013 10.013 0 0 0 -9 9.949v6h-4a3 3 0 0 0 -3 3v20a3 3 0 0 0 3 3h48a3 3 0 0 0 3-3v-20a3 3 0 0 0 -3-3zm-6-6v6h-2v-6a6.006 6.006 0 0 0 -5-5.91v-2.021a8.008 8.008 0 0 1 7 7.931zm-7 1v-4.858a4 4 0 0 1 3 3.858v6h-28v-6a4.005 4.005 0 0 1 3.209-3.92 3 3 0 0 0 2.791 1.92h1v3a3 3 0 0 0 3 3h12a3 3 0 0 0 3-3zm-18-29h16v10h-16zm-2 18.414 3.707-3.707a1 1 0 0 0 .293-.707v-2h12v2a1 1 0 0 0 .1.447l1.9 3.789v10.764a1 1 0 0 1 -1 1h-1v-8h-2v8h-2v-8h-2v8h-2v-8h-2v8h-1a1 1 0 0 1 -1-1v-9h-2v4h-1a1 1 0 0 1 -1-1zm-9 9.586a8.008 8.008 0 0 1 7-7.931v2.021a6.006 6.006 0 0 0 -5 5.91v6h-2zm43 29a1 1 0 0 1 -1 1h-48a1 1 0 0 1 -1-1v-20a1 1 0 0 1 1-1h48a1 1 0 0 1 1 1z"/><path d="m43 53h-.051a10.026 10.026 0 0 0 -6.949-8.539v-.461a4 4 0 0 0 -8 0v.461a10.026 10.026 0 0 0 -6.949 8.539h-.051a3 3 0 0 0 0 6h22a3 3 0 0 0 0-6zm-13-9a2 2 0 0 1 4 0v.051a10.007 10.007 0 0 0 -1-.051h-2a10.007 10.007 0 0 0 -1 .051zm1 2h2a8.008 8.008 0 0 1 7.931 7h-17.862a8.008 8.008 0 0 1 7.931-7zm12 11h-22a1 1 0 0 1 0-2h22a1 1 0 0 1 0 2z"/><path d="m9 41h14v2h-14z"/><path d="m9 45h10v2h-10z"/><path d="m41 41h14v2h-14z"/><path d="m45 45h10v2h-10z"/></svg>