<svg clip-rule="evenodd" fill-rule="evenodd" height="512" image-rendering="optimizeQuality" shape-rendering="geometricPrecision" text-rendering="geometricPrecision" viewBox="0 0 512 512" width="512" xmlns="http://www.w3.org/2000/svg"><g id="Layer_x0020_1"><g id="_320026648"><g><g><g id="_270082392"><path d="m504 504h-40c-4 0-6-2-6-6v-337c0-4 2-6 6-6 3 0 6 2 6 6v331h28v-362l-243-117-241 117v362h28v-331c0-4 3-6 6-6 4 0 6 2 6 6v337c0 4-2 6-6 6h-40c-4 0-6-2-6-6v-372c0-2 1-5 3-6l248-119c1-1 3-1 5 0l249 119c2 1 3 4 3 6v372c0 4-2 6-6 6z"/></g><g id="_270082056"><path d="m464 244h-416c-3 0-6-3-6-6v-77c0-4 3-6 6-6h416c3 0 6 2 6 6v77c0 3-3 6-6 6zm-410-12h404v-65h-404z"/></g><g id="_270082416"><path d="m293 118h-79c-3 0-6-3-6-6v-40c0-3 3-6 6-6h79c4 0 6 3 6 6v40c0 3-2 6-6 6zm-73-12h67v-28h-67z"/></g><g id="_270082560"><path d="m301 282h-49c-5 0-8-4-8-8v-36c0-3 3-6 6-6s6 3 6 6v32h41v-32c0-3 2-6 6-6 3 0 6 3 6 6v36c0 4-4 8-8 8z"/></g><g id="_270083304"><path d="m402 418h-126c-3 0-6-2-6-5-4-41-38-71-78-71-15 0-29 4-42 12-2 1-4 1-6 0s-3-3-3-6v-110c0-3 3-6 6-6s6 3 6 6v100c12-5 25-8 39-8 22 0 44 8 61 23 15 14 25 33 28 53h119v-168c0-3 2-6 6-6 3 0 6 3 6 6v170c0 6-5 10-10 10z"/></g><g id="_270083376"><path d="m368 351h-62c-3 0-6-2-6-6 0-3 3-6 6-6h62c4 0 6 3 6 6 0 4-2 6-6 6z"/></g><g id="_270082920"><path d="m368 376h-85c-3 0-6-2-6-6 0-3 3-6 6-6h85c4 0 6 3 6 6 0 4-2 6-6 6z"/></g><g id="_270082728"><path d="m227 484h-71c-6 0-10-4-10-10v-59c0-5 4-9 10-9h71c6 0 10 4 10 9v59c0 6-4 10-10 10zm-69-12h67v-54h-67z"/></g><g id="_270083448"><path d="m218 418h-53c-4 0-6-3-6-6v-21c0-19 14-33 33-33 18 0 32 14 32 33v21c0 3-2 6-6 6zm-47-12h41v-15c0-12-9-21-20-21-12 0-21 9-21 21z"/></g><g id="_270083016"><path d="m192 461c-10 0-17-7-17-17 0-9 7-17 17-17 9 0 16 8 16 17 0 10-7 17-16 17zm0-22c-3 0-5 3-5 5 0 3 2 5 5 5 2 0 4-2 4-5 0-2-2-5-4-5z"/></g><g id="_270083160"><path d="m192 484c-4 0-6-3-6-6v-23c0-3 2-6 6-6 3 0 6 3 6 6v23c0 3-3 6-6 6z"/></g><g id="_270083040"><path d="m192 512c-51 0-92-41-92-91s41-91 92-91c50 0 91 41 91 91s-41 91-91 91zm0-170c-44 0-80 35-80 79s36 79 80 79c43 0 79-35 79-79s-36-79-79-79z"/></g></g><g id="_270082992"><path d="m464 205h-416c-3 0-6-2-6-6 0-3 3-6 6-6h416c3 0 6 3 6 6 0 4-3 6-6 6z"/></g></g></g></g></svg>