<svg id="Layer_1" enable-background="new 0 0 512 512" viewBox="0 0 512 512" xmlns="http://www.w3.org/2000/svg"><path d="m291.459 174.884c0 4.418-3.582 8-8 8h-82.667c-4.418 0-8-3.582-8-8s3.582-8 8-8h82.667c4.418 0 8 3.582 8 8zm-90.667-26.926h124.214c4.418 0 8-3.582 8-8s-3.582-8-8-8h-124.214c-4.418 0-8 3.582-8 8s3.582 8 8 8zm-75.76 22.286c1.555 1.516 3.57 2.271 5.583 2.271 2.061 0 4.12-.792 5.684-2.37l14.056-14.188c3.109-3.139 3.086-8.204-.053-11.313-3.138-3.109-8.203-3.086-11.313.053l-8.471 8.551-2.159-2.104c-3.164-3.084-8.229-3.02-11.312.145-3.084 3.164-3.02 8.229.145 11.312zm45.692-37.415v49.185c0 6.841-5.566 12.407-12.408 12.407h-49.185c-6.842 0-12.408-5.566-12.408-12.407v-49.185c0-6.842 5.566-12.408 12.408-12.408h49.185c6.842 0 12.408 5.566 12.408 12.408zm-16 3.592h-42v42h42zm-29.692 116.967c1.555 1.516 3.57 2.271 5.583 2.271 2.061 0 4.12-.792 5.684-2.37l14.056-14.188c3.109-3.139 3.086-8.204-.053-11.313-3.138-3.109-8.203-3.087-11.313.053l-8.471 8.551-2.159-2.104c-3.164-3.084-8.229-3.02-11.312.145-3.084 3.164-3.02 8.229.145 11.312zm45.692-37.415v49.185c0 6.842-5.566 12.408-12.408 12.408h-49.185c-6.842 0-12.408-5.566-12.408-12.408v-49.185c0-6.842 5.566-12.408 12.408-12.408h49.185c6.842 0 12.408 5.566 12.408 12.408zm-16 3.592h-42v42h42zm-29.692 116.967c1.555 1.516 3.57 2.271 5.583 2.271 2.061 0 4.12-.792 5.684-2.37l14.056-14.188c3.109-3.139 3.086-8.204-.053-11.313-3.138-3.109-8.203-3.087-11.313.053l-8.471 8.551-2.159-2.104c-3.164-3.084-8.229-3.02-11.312.145-3.084 3.164-3.02 8.229.145 11.312zm45.692-37.414v49.185c0 6.842-5.566 12.408-12.408 12.408h-49.185c-6.842 0-12.408-5.566-12.408-12.408v-49.185c0-6.842 5.566-12.408 12.408-12.408h49.185c6.842 0 12.408 5.566 12.408 12.408zm-16 3.592h-42v42h42zm-29.692 116.967c1.555 1.516 3.57 2.271 5.583 2.271 2.061 0 4.12-.792 5.684-2.37l14.056-14.188c3.109-3.139 3.086-8.204-.053-11.313-3.138-3.109-8.203-3.087-11.313.053l-8.471 8.551-2.159-2.104c-3.164-3.084-8.229-3.02-11.312.145-3.084 3.164-3.02 8.229.145 11.312zm45.692-37.415v49.185c0 6.842-5.566 12.408-12.408 12.408h-49.185c-6.842 0-12.408-5.566-12.408-12.408v-49.185c0-6.842 5.566-12.408 12.408-12.408h49.185c6.842 0 12.408 5.566 12.408 12.408zm-16 3.592h-42v42h42zm46.068-36.681h82.667c4.418 0 8-3.582 8-8s-3.582-8-8-8h-82.667c-4.418 0-8 3.582-8 8s3.582 8 8 8zm82.667 67.144h-82.667c-4.418 0-8 3.582-8 8s3.582 8 8 8h82.667c4.418 0 8-3.582 8-8s-3.582-8-8-8zm-90.667-26.926c0 4.418 3.582 8 8 8h124.214c4.418 0 8-3.582 8-8s-3.582-8-8-8h-124.214c-4.418 0-8 3.581-8 8zm221.671-26.924v120.155c0 15.648-12.731 28.379-28.379 28.379h-342.438c-15.648 0-28.379-12.731-28.379-28.379v-409.153c0-15.648 12.731-28.379 28.379-28.379h136.32l-11.401-16.12c-3.847-5.44-4.338-12.488-1.282-18.395 3.057-5.906 9.095-9.575 15.758-9.575h63.648c6.663 0 12.701 3.669 15.758 9.575s2.566 12.955-1.281 18.395l-11.402 16.12h136.32c15.648 0 28.379 12.731 28.379 28.379v76.064c47.274 12.327 82.27 55.385 82.27 106.467s-34.996 94.14-82.27 106.467zm-28.379-301.377h-89.275l-3.718 17.207h80.166c4.418 0 8 3.582 8 8v59.827c1.811-.089 3.632-.136 5.465-.136 3.967 0 7.883.216 11.742.628v-73.147c-.001-6.825-5.554-12.379-12.38-12.379zm-20.828 87.006v-53.799h-75.838c-2.854 7.815-10.202 13.072-18.75 13.072h-111.607c-8.548 0-15.895-5.257-18.75-13.072h-75.837v367.496h252.008v-40.773c0-4.418 3.582-8 8-8h40.774v-49.116c-30.205-5.998-55.994-24.401-71.82-49.657h-92.643c-4.418 0-8-3.582-8-8s3.582-8 8-8h84.357c-4.206-10.074-6.951-20.901-7.979-32.218h-76.378c-4.418 0-8-3.582-8-8s3.582-8 8-8h76.08c.348-6.471 1.255-12.796 2.679-18.926h-78.759c-4.418 0-8-3.582-8-8s3.582-8 8-8h83.805c13.679-34.037 43.899-59.707 80.658-67.007zm-32.774 280.924v21.46l21.46-21.46zm-183.191-367.93 5.861 27.124c.414 1.917 1.949 3.155 3.91 3.155h111.608c1.961 0 3.496-1.238 3.91-3.155l5.861-27.125h-46.133c-2.99 0-5.73-1.667-7.104-4.323-1.375-2.655-1.153-5.855.573-8.297l20.327-28.74c.409-.578.454-1.184.135-1.801s-.84-.929-1.548-.929h-63.648c-.708 0-1.229.312-1.548.93-.319.617-.274 1.223.135 1.801l20.327 28.74c1.727 2.441 1.948 5.642.573 8.297-1.374 2.655-4.115 4.323-7.104 4.323zm249.172 304.295c-3.859.411-7.776.628-11.742.628-1.833 0-3.654-.047-5.465-.136v55.144c0 2.122-.843 4.157-2.343 5.657l-48.774 48.773c-1.5 1.5-3.535 2.343-5.657 2.343h-268.008c-4.418 0-8-3.582-8-8v-383.497c0-4.418 3.582-8 8-8h80.165l-3.718-17.207h-89.275c-6.826 0-12.379 5.553-12.379 12.379v409.152c0 6.826 5.553 12.379 12.379 12.379h342.438c6.826 0 12.379-5.553 12.379-12.379zm82.27-109.385c0-51.838-42.173-94.012-94.012-94.012s-94.012 42.174-94.012 94.012 42.174 94.012 94.012 94.012 94.012-42.174 94.012-94.012zm-11.628 0c0 45.427-36.957 82.384-82.384 82.384s-82.384-36.957-82.384-82.384 36.958-82.384 82.384-82.384 82.384 36.957 82.384 82.384zm-16 0c0-36.604-29.78-66.384-66.384-66.384s-66.384 29.78-66.384 66.384 29.78 66.384 66.384 66.384 66.384-29.78 66.384-66.384zm-64.603-8h-3.563c-4.378 0-7.939-3.562-7.939-7.939 0-4.378 3.562-7.939 7.939-7.939h5.018c2.527 0 4.935 1.243 6.44 3.324 2.588 3.58 7.589 4.384 11.17 1.795s4.384-7.59 1.795-11.17c-3.555-4.916-8.821-8.269-14.642-9.464v-2.927c0-4.418-3.582-8-8-8s-8 3.582-8 8v3.261c-10.194 2.745-17.72 12.07-17.72 23.12 0 13.2 10.739 23.939 23.939 23.939h3.563c4.377 0 7.939 3.562 7.939 7.939s-3.562 7.939-7.939 7.939h-5.018c-2.527 0-4.935-1.243-6.44-3.325-2.589-3.58-7.59-4.384-11.17-1.794-3.58 2.589-4.384 7.59-1.794 11.17 3.555 4.916 8.822 8.268 14.642 9.464v2.926c0 4.418 3.582 8 8 8s8-3.582 8-8v-3.26c10.194-2.745 17.721-12.071 17.721-23.121-.002-13.199-10.74-23.938-23.941-23.938z"/></svg>