<svg id="Outline" height="512" viewBox="0 0 64 64" width="512" xmlns="http://www.w3.org/2000/svg"><g><path d="m61 4.5h-58a3 3 0 0 0 -3 3v35a3 3 0 0 0 3 3h21v8a2 2 0 0 0 -2 2v2a2 2 0 0 0 2 2h16a2 2 0 0 0 2-2v-2a2 2 0 0 0 -2-2v-8h21a3 3 0 0 0 3-3v-35a3 3 0 0 0 -3-3zm-58 2h58a1 1 0 0 1 1 1v32h-60v-32a1 1 0 0 1 1-1zm37 51h-16v-2h16zm-2-4h-12v-8h2.5v2.5a3.5 3.5 0 0 0 7 0v-2.5h2.5zm-7.5-8h3v2.5a1.5 1.5 0 0 1 -3 0zm30.5-2h-58a1 1 0 0 1 -1-1v-1h60v1a1 1 0 0 1 -1 1z"/><path d="m10.5 31.75h4v1a3 3 0 0 0 6 0v-1h4a2 2 0 0 0 2-2v-2a2 2 0 0 0 -1.5-1.929v-4.071a7.508 7.508 0 0 0 -4.5-6.87v-1.63a3 3 0 0 0 -6 0v1.63a7.508 7.508 0 0 0 -4.5 6.87v4.071a2 2 0 0 0 -1.5 1.929v2a2 2 0 0 0 2 2zm8 1a1 1 0 0 1 -2 0v-1h2zm1-3h-9v-2h14v2zm-3-16.5a1 1 0 0 1 2 0v1.075a6.7 6.7 0 0 0 -2 0zm-4.5 8.5a5.5 5.5 0 0 1 11 0v4h-11z"/><path d="m17.5 18.25a1 1 0 0 0 0 2 1.5 1.5 0 0 1 1.5 1.5 1 1 0 0 0 2 0 3.5 3.5 0 0 0 -3.5-3.5z"/><path d="m35 17.5h3a2 2 0 0 0 2-2v-3a2 2 0 0 0 -2-2h-3a2 2 0 0 0 -2 2v3a2 2 0 0 0 2 2zm0-5h3v3h-3z"/><path d="m44 17.5h3a2 2 0 0 0 2-2v-3a2 2 0 0 0 -2-2h-3a2 2 0 0 0 -2 2v3a2 2 0 0 0 2 2zm0-5h3v3h-3z"/><path d="m53 17.5h3a2 2 0 0 0 2-2v-3a2 2 0 0 0 -2-2h-3a2 2 0 0 0 -2 2v3a2 2 0 0 0 2 2zm0-5h3v3h-3z"/><path d="m35 26.5h3a2 2 0 0 0 2-2v-3a2 2 0 0 0 -2-2h-3a2 2 0 0 0 -2 2v3a2 2 0 0 0 2 2zm0-5h3v3h-3z"/><path d="m44 26.5h3a2 2 0 0 0 2-2v-3a2 2 0 0 0 -2-2h-3a2 2 0 0 0 -2 2v3a2 2 0 0 0 2 2zm0-5h3v3h-3z"/><path d="m53 26.5h3a2 2 0 0 0 2-2v-3a2 2 0 0 0 -2-2h-3a2 2 0 0 0 -2 2v3a2 2 0 0 0 2 2zm0-5h3v3h-3z"/><path d="m35 35.5h3a2 2 0 0 0 2-2v-3a2 2 0 0 0 -2-2h-3a2 2 0 0 0 -2 2v3a2 2 0 0 0 2 2zm0-5h3v3h-3z"/><path d="m44 35.5h3a2 2 0 0 0 2-2v-3a2 2 0 0 0 -2-2h-3a2 2 0 0 0 -2 2v3a2 2 0 0 0 2 2zm0-5h3v3h-3z"/><path d="m53 35.5h3a2 2 0 0 0 2-2v-3a2 2 0 0 0 -2-2h-3a2 2 0 0 0 -2 2v3a2 2 0 0 0 2 2zm0-5h3v3h-3z"/></g></svg>