<?xml version="1.0" encoding="iso-8859-1"?>
<!-- Generator: Adobe Illustrator 19.0.0, SVG Export Plug-In . SVG Version: 6.00 Build 0)  -->
<svg version="1.1" id="Capa_1" xmlns="http://www.w3.org/2000/svg" xmlns:xlink="http://www.w3.org/1999/xlink" x="0px" y="0px"
	 viewBox="0 0 512 512" style="enable-background:new 0 0 512 512;" xml:space="preserve">
<g>
	<g>
		<path d="M293.688,314.711c-0.13-0.641-0.319-1.27-0.569-1.87c-0.25-0.599-0.561-1.179-0.92-1.73c-0.36-0.541-0.78-1.05-1.24-1.52
			c-0.47-0.46-0.981-0.87-1.521-1.24c-0.549-0.359-1.129-0.67-1.729-0.92c-0.61-0.25-1.23-0.439-1.87-0.57
			c-1.29-0.26-2.62-0.26-3.91,0c-0.64,0.131-1.269,0.32-1.87,0.57c-0.599,0.25-1.179,0.561-1.729,0.92
			c-0.541,0.37-1.061,0.78-1.521,1.24c-0.46,0.47-0.88,0.98-1.24,1.52c-0.359,0.55-0.67,1.13-0.92,1.73
			c-0.25,0.6-0.439,1.229-0.569,1.87c-0.129,0.65-0.19,1.31-0.19,1.96c0,0.649,0.06,1.309,0.19,1.95
			c0.13,0.64,0.319,1.269,0.569,1.87c0.25,0.599,0.561,1.179,0.92,1.729c0.36,0.541,0.78,1.05,1.24,1.521
			c0.46,0.46,0.981,0.88,1.521,1.239c0.549,0.36,1.129,0.67,1.729,0.92c0.6,0.25,1.23,0.44,1.87,0.57c0.65,0.13,1.3,0.2,1.96,0.2
			c0.651,0,1.3-0.07,1.95-0.2c0.639-0.13,1.26-0.32,1.87-0.57c0.599-0.25,1.179-0.56,1.729-0.92c0.54-0.359,1.051-0.779,1.521-1.239
			c0.46-0.471,0.87-0.981,1.24-1.521c0.359-0.549,0.67-1.129,0.92-1.729c0.25-0.6,0.439-1.23,0.569-1.87s0.2-1.301,0.2-1.95
			C293.888,316.011,293.818,315.36,293.688,314.711z"/>
	</g>
</g>
<g>
	<g>
		<path d="M249.044,306.666H94.593c-5.523,0-10,4.478-10,10c0,5.523,4.477,10,10,10h154.451c5.523,0,10-4.477,10-10
			C259.044,311.144,254.567,306.666,249.044,306.666z"/>
	</g>
</g>
<g>
	<g>
		<path d="M104.4,360.609c-0.13-0.64-0.32-1.269-0.57-1.869c-0.25-0.61-0.56-1.19-0.92-1.73c-0.37-0.55-0.78-1.06-1.25-1.52
			c-0.46-0.461-0.97-0.881-1.52-1.24c-0.54-0.361-1.12-0.67-1.72-0.92c-0.61-0.25-1.23-0.44-1.87-0.57c-1.29-0.26-2.62-0.26-3.91,0
			c-0.64,0.129-1.27,0.32-1.87,0.57c-0.61,0.25-1.19,0.56-1.73,0.92c-0.55,0.359-1.06,0.779-1.52,1.24
			c-0.46,0.46-0.88,0.97-1.24,1.52c-0.36,0.54-0.67,1.12-0.92,1.73c-0.25,0.599-0.44,1.229-0.57,1.869
			c-0.13,0.64-0.2,1.301-0.2,1.95c0,0.65,0.07,1.311,0.2,1.96c0.13,0.63,0.32,1.26,0.57,1.87c0.25,0.601,0.56,1.18,0.92,1.72
			c0.36,0.551,0.78,1.061,1.24,1.521c0.46,0.46,0.97,0.88,1.52,1.25c0.54,0.36,1.12,0.67,1.73,0.92c0.6,0.25,1.23,0.44,1.87,0.57
			s1.3,0.19,1.95,0.19c0.66,0,1.31-0.06,1.96-0.19c0.63-0.13,1.26-0.32,1.87-0.57c0.6-0.25,1.18-0.56,1.72-0.92
			c0.55-0.37,1.06-0.79,1.52-1.25c0.47-0.461,0.88-0.97,1.25-1.521c0.36-0.54,0.67-1.119,0.92-1.72c0.25-0.61,0.44-1.24,0.57-1.87
			c0.13-0.65,0.19-1.31,0.19-1.96C104.59,361.91,104.53,361.25,104.4,360.609z"/>
	</g>
</g>
<g>
	<g>
		<path d="M237.9,397.334h-82.005c-5.523,0-10,4.477-10,10c0,5.522,4.477,10,10,10H237.9c5.523,0,10-4.478,10-10
			C247.9,401.811,243.423,397.334,237.9,397.334z"/>
	</g>
</g>
<g>
	<g>
		<path d="M502.816,211.468l-55.154-43.171c-2.089-1.634-4.742-2.369-7.374-2.052c-2.633,0.321-5.03,1.675-6.665,3.763
			l-45.175,57.715V63.238c0-5.522-4.478-10-10-10h-88.661v-3.857c0-5.523-4.478-10-10-10h-32.672
			C241.576,16.672,221.092,0,196.898,0c-24.194,0-44.679,16.672-50.217,39.381h-32.673c-5.523,0-10,4.477-10,10v3.857H15.347
			c-5.523,0-10,4.478-10,10V502c0,5.522,4.477,10,10,10h363.101c5.522,0,10-4.478,10-10V373.807l116.079-148.3
			C507.93,221.157,507.165,214.872,502.816,211.468z M289.787,73.238h78.661v180.036l-20,25.552V103.238c0-5.522-4.478-10-10-10
			h-48.661V73.238z M124.008,59.381h83.325c5.523,0,10-4.478,10-10c0-5.523-4.477-10-10-10h-39.652
			C172.495,27.952,183.811,20,196.898,20c16.827,0,30.726,13.146,31.642,29.926c0.29,5.304,4.674,9.455,9.985,9.455h31.262v49.716
			H124.008V59.381z M114.008,129.097h165.779c5.522,0,10-4.478,10-10v-5.858h38.661v191.139l-37.716,48.184H129.433
			c-5.523,0-10,4.478-10,10c0,5.523,4.477,10,10,10h145.644l-4.701,6.006c-0.948,1.213-1.605,2.628-1.917,4.136l-5.776,27.881
			L254.103,452H65.348V113.238h38.66v5.858C104.008,124.619,108.485,129.097,114.008,129.097z M309.005,428.506l-25.479-19.943
			l3.311-15.979c0.715,0.684,1.466,1.334,2.253,1.951c5.803,4.542,12.978,6.76,20.918,6.563c1.533,7.548,5.393,14.031,11.278,18.638
			c0.787,0.616,1.599,1.189,2.434,1.719L309.005,428.506z M328.448,441.367V452h-22.191l5.793-2.775L328.448,441.367z
			 M288.877,438.15l-12.745,6.107l2.867-13.839L288.877,438.15z M368.448,492H25.347V73.238h78.661v20h-48.66
			c-5.523,0-10,4.478-10,10V462c0,5.522,4.477,10,10,10h283.1c5.522,0,10-4.478,10-10v-37.091l2.008-2.565
			c0.012-0.015,0.024-0.03,0.036-0.045l17.956-22.94V492z M337.904,405.932c-1.443-0.302-2.939-0.889-4.289-1.946
			c-3.376-2.642-4.896-7.51-4.173-13.355c0.418-3.372-0.904-6.725-3.511-8.902c-1.823-1.523-4.1-2.327-6.414-2.327
			c-0.994,0-1.996,0.148-2.971,0.452c-3.68,1.144-10.534,2.527-15.128-1.068c-1.35-1.057-2.28-2.368-2.92-3.697L408.71,234.285
			l39.405,30.844L337.904,405.932z M460.444,249.378l-39.405-30.844l22.17-28.325l39.405,30.844L460.444,249.378z"/>
	</g>
</g>
<g>
	<g>
		<path d="M248.171,170.61h-15.512v-19.049c0-5.522-4.477-10-10-10h-51.024c-5.523,0-10,4.478-10,10v19.049h-16.01
			c-5.523,0-10,4.478-10,10v94.156c0,5.523,4.477,10.001,10,10.001h102.546c5.523,0,10-4.478,10-10V180.61
			C258.171,175.088,253.694,170.61,248.171,170.61z M181.635,161.561h31.024v9.049h-31.024V161.561z M238.171,264.766h-82.546
			V190.61h6.01v11.299c0,5.522,4.477,10,10,10s10-4.478,10-10V190.61h31.024v11.299c0,5.522,4.477,10,10,10s10-4.478,10-10V190.61
			h5.512V264.766z"/>
	</g>
</g>
<g>
</g>
<g>
</g>
<g>
</g>
<g>
</g>
<g>
</g>
<g>
</g>
<g>
</g>
<g>
</g>
<g>
</g>
<g>
</g>
<g>
</g>
<g>
</g>
<g>
</g>
<g>
</g>
<g>
</g>
</svg>
