<?xml version="1.0"?>
<svg xmlns="http://www.w3.org/2000/svg" viewBox="0 0 64 64" width="512" height="512"><g id="receipt_delivery_food_mobilephone_bill" data-name="receipt, delivery, food, mobilephone, bill"><path d="M24,44c-1.221,0-2-.592-2-1a1,1,0,0,0-2,0c0,1.421,1.259,2.571,3,2.9V47a1,1,0,0,0,2,0V45.9c1.741-.327,3-1.477,3-2.9,0-1.682-1.757-3-4-3-1.221,0-2-.592-2-1s.779-1,2-1,2,.592,2,1a1,1,0,0,0,2,0c0-1.421-1.259-2.571-3-2.9V35a1,1,0,0,0-2,0v1.1c-1.741.327-3,1.477-3,2.9,0,1.682,1.757,3,4,3,1.221,0,2,.592,2,1S25.221,44,24,44Z"/><path d="M36,54H28a1,1,0,0,0,0,2h8a1,1,0,0,0,0-2Z"/><path d="M44,36H31a1,1,0,0,0,0,2H44a1,1,0,0,0,0-2Z"/><path d="M44,40H31a1,1,0,0,0,0,2H44a1,1,0,0,0,0-2Z"/><path d="M44,44H31a1,1,0,0,0,0,2H44a1,1,0,0,0,0-2Z"/><path d="M44,50H20a1,1,0,0,0,0,2H44a1,1,0,0,0,0-2Z"/><path d="M44,30H20a1,1,0,0,0,0,2H44a1,1,0,0,0,0-2Z"/><path d="M41,54H40a1,1,0,0,0,0,2h1a1,1,0,0,0,0-2Z"/><path d="M24,54H23a1,1,0,0,0,0,2h1a1,1,0,0,0,0-2Z"/><path d="M57,13V7a5,5,0,0,0-5-5H20a5,5,0,0,0-5,5v6H7a5,5,0,0,0-5,5V46a5,5,0,0,0,5,5h8v8a1.033,1.033,0,0,0,.29.71l2,2a1.008,1.008,0,0,0,1.42,0L20,60.41l1.29,1.3a1.008,1.008,0,0,0,1.42,0L24,60.41l1.29,1.3a1.008,1.008,0,0,0,1.42,0L28,60.41l1.29,1.3a1.008,1.008,0,0,0,1.42,0L32,60.41l1.29,1.3a1.008,1.008,0,0,0,1.42,0L36,60.41l1.29,1.3a1.008,1.008,0,0,0,1.42,0L40,60.41l1.29,1.3a1.008,1.008,0,0,0,1.42,0L44,60.41l1.29,1.3a1.014,1.014,0,0,0,1.42,0l2-2A1.033,1.033,0,0,0,49,59V51h8a5,5,0,0,0,5-5V18A5,5,0,0,0,57,13ZM15,46H8a1,1,0,0,1-1-1V39.07a1.008,1.008,0,0,1,.45-.83l1.21-.82A2.963,2.963,0,0,0,10,34.93V29.07a2.977,2.977,0,0,0-1.33-2.49l-1.23-.82A1.024,1.024,0,0,1,7,24.93V19a1,1,0,0,1,1-1h7Zm0-30H8a3.009,3.009,0,0,0-3,3v5.93a2.977,2.977,0,0,0,1.33,2.49l1.23.82a1.024,1.024,0,0,1,.44.83v5.86a1.008,1.008,0,0,1-.45.83l-1.21.82A2.963,2.963,0,0,0,5,39.07V45a3.009,3.009,0,0,0,3,3h7v1H7a3.009,3.009,0,0,1-3-3V18a3.009,3.009,0,0,1,3-3h8ZM47,7V58.59l-1,1-1.29-1.3a1.008,1.008,0,0,0-1.42,0L42,59.59l-1.29-1.3a1.008,1.008,0,0,0-1.42,0L38,59.59l-1.29-1.3a1.008,1.008,0,0,0-1.42,0L34,59.59l-1.29-1.3a1.008,1.008,0,0,0-1.42,0L30,59.59l-1.29-1.3a1.008,1.008,0,0,0-1.42,0L26,59.59l-1.29-1.3a1.008,1.008,0,0,0-1.42,0L22,59.59l-1.29-1.3a1.008,1.008,0,0,0-1.42,0L18,59.59l-1-1V7a3.009,3.009,0,0,1,3-3H48.03A4.924,4.924,0,0,0,47,7Zm2,0a3,3,0,0,1,6,0v6H49Zm0,11h7a1,1,0,0,1,1,1V45a1,1,0,0,1-1,1H49ZM60,46a3.009,3.009,0,0,1-3,3H49V48h7a3.009,3.009,0,0,0,3-3V19a3.009,3.009,0,0,0-3-3H49V15h8a3.009,3.009,0,0,1,3,3Z"/><path d="M6,34a1,1,0,0,0,1-1V31a1,1,0,0,0-2,0v2A1,1,0,0,0,6,34Z"/><path d="M28,26a1,1,0,0,0,0,2h8a1,1,0,0,0,0-2Z"/><path d="M40,26a1,1,0,0,0,0,2h1a1,1,0,0,0,0-2Z"/><path d="M23,26a1,1,0,0,0,0,2h1a1,1,0,0,0,0-2Z"/><path d="M32,11a1,1,0,0,0,0,2,3.971,3.971,0,0,1,3.2,1.6,1,1,0,0,0,1.6-1.2A5.96,5.96,0,0,0,32,11Z"/><path d="M40.95,16.05a9.005,9.005,0,0,0-6.97-7.82A1.785,1.785,0,0,0,34,8a2,2,0,0,0-4,0,1.785,1.785,0,0,0,.02.23,9.005,9.005,0,0,0-6.97,7.82A2.5,2.5,0,0,0,23.46,21l1.71,2.55A1,1,0,0,0,26,24H38a1,1,0,0,0,.83-.45L40.54,21a2.5,2.5,0,0,0,.41-4.95ZM32,10a7.013,7.013,0,0,1,6.93,6H25.07A7.013,7.013,0,0,1,32,10Zm5.46,12H26.54l-.67-1H38.13Zm3.04-3h-17a.5.5,0,0,1,0-1h17a.5.5,0,0,1,0,1Z"/></g></svg>
