<?xml version="1.0" encoding="iso-8859-1"?>
<!-- Generator: Adobe Illustrator 19.0.0, SVG Export Plug-In . SVG Version: 6.00 Build 0)  -->
<svg version="1.1" id="Capa_1" xmlns="http://www.w3.org/2000/svg" xmlns:xlink="http://www.w3.org/1999/xlink" x="0px" y="0px"
	 viewBox="0 0 512 512" style="enable-background:new 0 0 512 512;" xml:space="preserve">
<g>
	<g>
		<path d="M504.5,192.387c-4.142,0-7.5,3.358-7.5,7.5v8.532h-17.54c-1.84-9.146-9.024-16.581-18.442-18.464l-26.932-5.386
			c-4.58-11.385-10.271-22.392-17.059-32.86c-21.743-33.531-53.021-59.131-89.589-73.758l-5.394-26.968
			c-1.883-9.418-9.319-16.602-18.464-18.442V15h8.532c4.142,0,7.5-3.358,7.5-7.5s-3.358-7.5-7.5-7.5H199.887
			c-4.142,0-7.5,3.358-7.5,7.5s3.358,7.5,7.5,7.5h8.532v17.54c-9.146,1.84-16.581,9.024-18.464,18.442l-5.389,26.946
			c-16.176,6.5-31.538,15.235-45.64,26.085c-27.457,21.126-48.379,48.942-61.032,80.56l-26.912,5.382
			c-9.418,1.884-16.602,9.319-18.442,18.464H15v-8.532c0-4.142-3.358-7.5-7.5-7.5s-7.5,3.358-7.5,7.5v112.226
			c0,4.142,3.358,7.5,7.5,7.5s7.5-3.358,7.5-7.5v-8.532h17.54c1.84,9.146,9.024,16.581,18.442,18.464l26.932,5.386
			c4.58,11.385,10.271,22.392,17.059,32.86c21.743,33.531,53.021,59.132,89.589,73.759l5.394,26.968
			c1.883,9.418,9.319,16.602,18.464,18.442V497h-8.532c-4.142,0-7.5,3.358-7.5,7.5c0,4.142,3.358,7.5,7.5,7.5h112.226
			c4.142,0,7.5-3.358,7.5-7.5c0-4.142-3.358-7.5-7.5-7.5h-8.532v-17.54c9.146-1.84,16.581-9.024,18.464-18.442l5.39-26.95
			c16.176-6.5,31.539-15.232,45.639-26.081c27.457-21.126,48.379-48.942,61.032-80.56l26.912-5.382
			c9.418-1.884,16.602-9.319,18.442-18.464H497v8.532c0,4.142,3.358,7.5,7.5,7.5c4.142,0,7.5-3.358,7.5-7.5V199.887
			C512,195.745,508.642,192.387,504.5,192.387z M32.064,288.58H15v-65.161h17.064V288.58z M72.15,310.982l-18.227-3.646
			c-3.974-0.795-6.859-4.313-6.859-8.366v-85.94c0-4.053,2.885-7.571,6.859-8.366l18.248-3.65
			c-2.196,7.362-3.967,14.889-5.281,22.552C61.831,253.062,63.735,282.906,72.15,310.982z M223.42,15h65.161v17.064H223.42V15z
			 M288.58,497h-65.161v-17.064h65.161V497z M430.323,285.897c-7.529,43.915-31.11,83.052-66.396,110.202
			c-35.079,26.991-78.6,39.823-122.538,36.128c-4.121-0.348-7.755,2.717-8.102,6.845c-0.347,4.128,2.718,7.755,6.846,8.102
			c5.375,0.452,10.738,0.675,16.088,0.675c18.654,0,37.084-2.73,54.765-8.023l-3.65,18.25c-0.794,3.974-4.313,6.859-8.366,6.859
			h-85.94c-4.053,0-7.572-2.885-8.366-6.859l-3.661-18.303c2.073,0.618,4.156,1.214,6.256,1.763
			c0.636,0.167,1.274,0.246,1.903,0.246c3.329,0,6.369-2.233,7.251-5.604c1.048-4.008-1.351-8.105-5.358-9.154
			c-42.66-11.159-79.416-37.757-103.497-74.894c-24.223-37.356-33.416-82.114-25.884-126.028
			c7.531-43.915,31.112-83.052,66.398-110.201c35.079-26.991,78.599-39.822,122.538-36.128c4.12,0.348,7.755-2.717,8.102-6.845
			c0.347-4.128-2.718-7.755-6.846-8.102c-24.111-2.026-48.103,0.54-70.854,7.35l3.65-18.252c0.794-3.974,4.313-6.859,8.366-6.859
			h85.939c4.053,0,7.572,2.885,8.366,6.859l3.661,18.303c-2.073-0.618-4.156-1.214-6.256-1.763
			c-4.004-1.049-8.105,1.351-9.154,5.357c-1.048,4.008,1.351,8.105,5.358,9.154c42.66,11.159,79.416,37.757,103.497,74.894
			C428.662,197.225,437.855,241.983,430.323,285.897z M464.936,298.97c0,4.053-2.885,7.571-6.859,8.366l-18.248,3.65
			c2.196-7.362,3.967-14.889,5.281-22.552c5.059-29.496,3.155-59.34-5.26-87.416l18.227,3.646c3.974,0.795,6.859,4.313,6.859,8.366
			V298.97z M497,288.581h-17.064V223.42H497V288.581z"/>
	</g>
</g>
<g>
	<g>
		<path d="M292.169,253.111c9.857-9.857,13.743-24.45,10.14-38.084c-0.689-2.609-2.727-4.646-5.335-5.335
			c-13.634-3.602-28.227,0.283-38.084,10.14c-1.666,1.665-3.145,3.475-4.463,5.384c-8.426-8.321-20.823-11.593-32.407-8.531
			c-2.608,0.689-4.646,2.727-5.335,5.335c-3.062,11.585,0.21,23.98,8.531,32.407c-1.908,1.317-3.719,2.797-5.384,4.462
			c-9.857,9.857-13.742,24.45-10.139,38.084c0.689,2.609,2.727,4.646,5.335,5.335c3.365,0.889,6.785,1.322,10.181,1.322
			c10.365,0,20.479-4.037,27.903-11.462c1.664-1.665,3.144-3.474,4.461-5.382c6.337,6.256,14.915,9.659,23.709,9.659
			c2.9,0,5.826-0.37,8.699-1.13c2.608-0.689,4.646-2.727,5.335-5.335c3.061-11.584-0.21-23.976-8.527-32.402
			C288.697,256.261,290.503,254.777,292.169,253.111z M243.971,235.965c1.69,1.69,2.995,3.652,3.918,5.819
			c-0.281,1.865-0.442,3.751-0.456,5.65c-1.9,0.014-3.787,0.175-5.653,0.457c-2.167-0.924-4.127-2.231-5.816-3.919
			c-3.618-3.619-5.515-8.426-5.431-13.438C235.555,230.448,240.353,232.347,243.971,235.965z M242.505,281.562
			c-5.098,5.098-12.001,7.578-19.089,7.022c-0.558-7.092,1.924-13.991,7.022-19.089c5.098-5.098,11.992-7.582,19.089-7.022
			C250.085,269.565,247.603,276.464,242.505,281.562z M268.029,276.035c-1.697-1.697-2.994-3.666-3.915-5.837
			c0.279-1.859,0.439-3.741,0.453-5.634c1.9-0.014,3.79-0.162,5.657-0.443c2.162,0.922,4.122,2.218,5.812,3.907
			c3.619,3.619,5.516,8.425,5.432,13.438C276.421,281.538,271.648,279.653,268.029,276.035z M262.474,249.527
			c-0.558-7.093,1.924-13.991,7.022-19.089c5.097-5.098,11.994-7.58,19.088-7.022c0.558,7.093-1.924,13.991-7.022,19.089
			C276.463,247.603,269.571,250.085,262.474,249.527z"/>
	</g>
</g>
<g>
	<g>
		<path d="M288.064,328.661c-21.816,0-39.564,17.749-39.564,39.564c0,21.816,17.749,39.564,39.564,39.564
			s39.564-17.748,39.564-39.564C327.629,346.41,309.88,328.661,288.064,328.661z M288.064,392.79
			c-13.545,0-24.564-11.02-24.564-24.564s11.02-24.564,24.564-24.564s24.564,11.02,24.564,24.564S301.609,392.79,288.064,392.79z"/>
	</g>
</g>
<g>
	<g>
		<path d="M207.903,352.71c-12.976,0-23.532,10.557-23.532,23.532c0,12.975,10.557,23.532,23.532,23.532
			s23.532-10.557,23.532-23.532C231.435,363.267,220.879,352.71,207.903,352.71z M207.903,384.774c-4.705,0-8.532-3.828-8.532-8.532
			c0-4.705,3.828-8.532,8.532-8.532s8.532,3.827,8.532,8.532C216.436,380.946,212.608,384.774,207.903,384.774z"/>
	</g>
</g>
<g>
	<g>
		<path d="M223.936,104.211c-21.815,0-39.564,17.748-39.564,39.564c-0.001,21.815,17.748,39.564,39.564,39.564
			c21.816,0,39.564-17.749,39.564-39.564C263.5,121.959,245.751,104.211,223.936,104.211z M223.936,168.338
			c-13.544,0-24.564-11.02-24.564-24.564s11.019-24.564,24.564-24.564c13.545,0,24.564,11.02,24.564,24.564
			S237.48,168.338,223.936,168.338z"/>
	</g>
</g>
<g>
	<g>
		<path d="M304.097,112.226c-12.976,0-23.532,10.557-23.532,23.532s10.557,23.532,23.532,23.532
			c12.975,0,23.532-10.557,23.532-23.532S317.072,112.226,304.097,112.226z M304.097,144.29c-4.705,0-8.532-3.827-8.532-8.532
			c0-4.704,3.828-8.532,8.532-8.532c4.704,0,8.532,3.828,8.532,8.532C312.629,140.463,308.801,144.29,304.097,144.29z"/>
	</g>
</g>
<g>
	<g>
		<path d="M143.774,248.5c-21.816,0-39.565,17.749-39.565,39.564c0,21.816,17.749,39.564,39.565,39.564
			c21.816,0,39.564-17.748,39.564-39.564C183.339,266.249,165.59,248.5,143.774,248.5z M143.774,312.629
			c-13.545,0-24.565-11.02-24.565-24.564s11.02-24.564,24.565-24.564c13.545,0,24.564,11.02,24.564,24.564
			S157.319,312.629,143.774,312.629z"/>
	</g>
</g>
<g>
	<g>
		<path d="M135.758,184.372c-12.976,0-23.533,10.557-23.533,23.532s10.557,23.532,23.533,23.532s23.532-10.557,23.532-23.532
			S148.733,184.372,135.758,184.372z M135.758,216.435c-4.705,0-8.533-3.828-8.533-8.532c0.001-4.705,3.828-8.532,8.533-8.532
			s8.532,3.827,8.532,8.532C144.29,212.608,140.462,216.435,135.758,216.435z"/>
	</g>
</g>
<g>
	<g>
		<path d="M368.226,184.371c-21.816,0-39.564,17.748-39.564,39.564s17.749,39.564,39.564,39.564
			c21.816,0,39.565-17.749,39.565-39.564C407.791,202.119,390.042,184.371,368.226,184.371z M368.226,248.5
			c-13.545,0-24.564-11.02-24.564-24.564c0-13.544,11.02-24.564,24.564-24.564s24.565,11.02,24.565,24.564
			C392.791,237.48,381.771,248.5,368.226,248.5z"/>
	</g>
</g>
<g>
	<g>
		<path d="M376.242,280.564c-12.976,0-23.532,10.557-23.532,23.532c0,12.975,10.557,23.532,23.532,23.532
			c12.976,0,23.533-10.557,23.533-23.532C399.775,291.121,389.218,280.564,376.242,280.564z M376.242,312.629
			c-4.705,0-8.532-3.827-8.532-8.532s3.828-8.532,8.532-8.532c4.705,0,8.533,3.828,8.533,8.532
			C384.774,308.802,380.947,312.629,376.242,312.629z"/>
	</g>
</g>
<g>
</g>
<g>
</g>
<g>
</g>
<g>
</g>
<g>
</g>
<g>
</g>
<g>
</g>
<g>
</g>
<g>
</g>
<g>
</g>
<g>
</g>
<g>
</g>
<g>
</g>
<g>
</g>
<g>
</g>
</svg>
