<svg id="Lineal" viewBox="0 0 512 512" xmlns="http://www.w3.org/2000/svg"><g id="_36._Three_meals_a_day" data-name="36. Three meals a day"><path d="m216.31 370.87a16 16 0 0 0 2.39 12c9.05 13.72 30.81 6.16 29.22-10.45-1.74-17.91-27.7-19.72-31.61-1.55z"/><path d="m385.72 176.62a16 16 0 0 0 -1.54-22.57 194.76 194.76 0 0 0 -112.18-47.38v-14.67h5a16 16 0 0 0 0-32h-42a16 16 0 0 0 0 32h5v14.66c-99.08 8.09-177.43 90.56-179 191.34h-37a16 16 0 0 0 0 32h20.11l25.58 51.16a16 16 0 0 0 14.31 8.84h99.92a16 16 0 0 0 0-32h-90l-14-28h138.08a16 16 0 0 0 0-32h-125c1.6-88.5 74.08-160 163-160a162.84 162.84 0 0 1 107.14 40.16 16 16 0 0 0 22.58-1.54z"/><path d="m488 315.5a16 16 0 0 0 -16 16 88.51 88.51 0 1 1 -29.11-65.61c11.53 10.44 29.69-.13 26.38-15.28l-9.64-44a16 16 0 1 0 -31.26 6.84l1.5 6.84c-79.43-33.14-166.87 25.62-166.87 111.21a120.5 120.5 0 0 0 241 0 16 16 0 0 0 -16-16z"/><path d="m389.56 364h-26.56a16 16 0 0 0 0 32h26.56a41.44 41.44 0 0 0 8.8-81.94l18.47-20.29a16 16 0 0 0 -11.83-26.77h-42a16 16 0 0 0 0 32h5.79l-17.62 19.34c-9.32 10.24-2.06 26.78 11.83 26.78h26.56a9.44 9.44 0 0 1 0 18.88z"/></g></svg>