<svg id="Layer_5" enable-background="new 0 0 64 64" height="512" viewBox="0 0 64 64" width="512" xmlns="http://www.w3.org/2000/svg"><path d="m60 28c0-1.654-1.346-3-3-3h-4c-1.654 0-3 1.346-3 3v1h-3v6h-3.101c.066-.323.101-.658.101-1v-9c0-4.917-2.976-9.148-7.218-11h6.68c1.277 4.052 5.07 7 9.539 7 5.514 0 10-4.486 10-10s-4.487-10-10.001-10-10 4.486-10 10c0 .338.018.671.051 1h-5.314c.793-1.135 1.263-2.513 1.263-4 0-3.859-3.14-7-7-7s-7 3.141-7 7c0 1.487.47 2.865 1.264 4h-7.264v-8c0-1.654-1.346-3-3-3h-12c-1.654 0-3 1.346-3 3v18c0 1.654 1.346 3 3 3h12c1.654 0 3-1.346 3-3v-8h8.218c-4.242 1.852-7.218 6.083-7.218 11v9c0 .342.035.677.101 1h-3.101v-6h-12.414l-3.586 3.586v10.414h16v-6h4.026c.914 1.207 2.348 2 3.974 2v15h-2v-7h-22v16h22v-7h2v3c0 2.206 1.794 4 4 4 1.2 0 2.266-.542 3-1.382.734.84 1.8 1.382 3 1.382 2.206 0 4-1.794 4-4v-3h6v7h18v-16h-4v-2h-2v2h-6v-2h-2v2h-4v7h-6v-15c1.627 0 3.061-.793 3.974-2h4.026v4h16v-12h-3zm-8-24.931v1.931h2v-1.931c3.612.453 6.477 3.319 6.931 6.931h-1.931v2h1.931c-.453 3.612-3.319 6.477-6.931 6.931v-1.931h-2v1.931c-3.612-.453-6.477-3.319-6.931-6.931h1.931v-2h-1.931c.454-3.612 3.319-6.477 6.931-6.931zm-48-.069h12c.551 0 1 .448 1 1v1h-14v-1c0-.552.449-1 1-1zm13 4v12h-14v-12zm-1 16h-12c-.551 0-1-.448-1-1v-1h14v1c0 .552-.449 1-1 1zm-1 18h-12v-7.586l2.414-2.414h9.586zm-5.707 12.879-4.879-4.879h15.172l-4.879 4.879c-1.446 1.445-3.968 1.445-5.414 0zm-1.414 1.414c.136.136.277.264.424.384l-5.303 4.242v-9.505zm2.328 1.423c.572.184 1.174.284 1.793.284s1.221-.1 1.793-.284l5.356 4.284h-14.298zm5.49-1.039c.146-.121.288-.249.424-.384l4.879-4.879v9.505zm31.303 5.323v-6h14v6zm2-12v2h2v-2h6v2h2v-2h2v4h-14v-4zm-17-46c2.757 0 5 2.243 5 5s-2.243 5-5 5-5-2.243-5-5 2.243-5 5-5zm10 31c0 1.654-1.346 3-3 3v-16h-2v38c0 1.103-.897 2-2 2s-2-.897-2-2v-28h-2v28c0 1.103-.897 2-2 2s-2-.897-2-2v-38h-2v16c-1.654 0-3-1.346-3-3v-9c0-5.514 4.486-10 10-10s10 4.486 10 10zm10-6c0-.552.449-1 1-1h4c.551 0 1 .448 1 1v1h-6zm-3 11v-3.026c.838.635 1.87 1.026 3 1.026h6c1.13 0 2.162-.391 3-1.026v3.026zm12-7c0 1.654-1.346 3-3 3h-6c-1.654 0-3-1.346-3-3v-1h12z"/><path d="m49 57h2v2h-2z"/><path d="m53 57h2v2h-2z"/><path d="m57 57h2v2h-2z"/><path d="m56.707 8.707-1.414-1.414-2.293 2.293-1.293-1.293-1.414 1.414 2.707 2.707z"/><path d="m5 33h8v2h-8z"/><path d="m5 37h8v2h-8z"/></svg>