<svg id="Capa_1" enable-background="new 0 0 510 510" height="512" viewBox="0 0 510 510" width="512" xmlns="http://www.w3.org/2000/svg"><g><path d="m510 5.939h-390v60h-60v60h-60v330h90v48.121l108.186-48.121h191.814v-60h60v-60h60zm-150 420.001h-168.186l-71.814 31.943v-31.943h-90v-270h330zm60-60h-30v-240h-300v-30h330zm60-60h-30v-240h-300v-30h330z"/><path d="m60 185.939h270v30h-270z"/><path d="m60 245.939h105v30h-105z"/><path d="m195 245.939h105v30h-105z"/><path d="m60 305.94h270v30h-270z"/><path d="m60 365.94h76v30h-76z"/><path d="m165 365.94h60v30h-60z"/><path d="m254 365.94h76v30h-76z"/></g></svg>