<svg id="Layer_1" enable-background="new 0 0 512 512" height="512" viewBox="0 0 512 512" width="512" xmlns="http://www.w3.org/2000/svg"><path d="m422.052 56.069h-75.026v-20.034c0-4.418-3.582-8-8-8h-41.558c-6.684-16.783-22.931-28.035-41.468-28.035s-34.784 11.252-41.469 28.035h-41.557c-4.418 0-8 3.582-8 8v20.035h-75.026c-16.302 0-29.565 13.263-29.565 29.565v396.8c0 16.303 13.263 29.565 29.565 29.565h332.104c16.302 0 29.565-13.263 29.565-29.565v-396.8c0-16.303-13.263-29.566-29.565-29.566zm-241.078-12.034h39.388c3.696 0 6.911-2.532 7.777-6.125 3.111-12.9 14.569-21.91 27.861-21.91s24.749 9.01 27.86 21.91c.866 3.593 4.081 6.125 7.777 6.125h39.389v40.069h-150.052zm254.643 438.4c0 7.48-6.085 13.565-13.565 13.565h-332.104c-7.48 0-13.565-6.085-13.565-13.565v-396.8c0-7.48 6.085-13.565 13.565-13.565h75.026v20.035c0 4.418 3.582 8 8 8h166.052c4.418 0 8-3.582 8-8v-20.036h75.026c7.48 0 13.565 6.085 13.565 13.565zm-163.184-236.398c-4.418 0-8 3.582-8 8v152.386c0 4.418 3.582 8 8 8h38.354c4.418 0 8-3.582 8-8v-152.386c0-4.418-3.582-8-8-8zm30.353 152.386h-22.354v-136.387h22.354zm-101.571-112.132c-4.418 0-8 3.582-8 8v112.132c0 4.418 3.582 8 8 8h38.354c4.418 0 8-3.582 8-8v-112.132c0-4.418-3.582-8-8-8zm30.354 112.132h-22.354v-96.132h22.354zm150.432-188.599h-38.354c-4.418 0-8 3.582-8 8v188.598c0 4.418 3.582 8 8 8h38.354c4.418 0 8-3.582 8-8v-188.598c0-4.419-3.581-8-8-8zm-8 188.598h-22.354v-172.598h22.354zm-244.002-73.579c-4.418 0-8 3.582-8 8v73.579c0 4.418 3.582 8 8 8h38.354c4.418 0 8-3.582 8-8v-73.579c0-4.418-3.582-8-8-8zm30.353 73.579h-22.354v-57.579h22.354zm-41.946-99.272c-1.453-4.172.751-8.732 4.924-10.186 90.042-31.358 169.478-76.656 236.427-134.765l-7.996.434c-4.42.225-8.183-3.143-8.422-7.555s3.143-8.183 7.555-8.422l30.673-1.665c2.4-.131 4.723.821 6.34 2.593 1.618 1.771 2.355 4.175 2.01 6.548l-4.426 30.397c-.58 3.981-3.999 6.848-7.907 6.848-.383 0-.771-.028-1.163-.084-4.372-.637-7.4-4.697-6.764-9.069l1.238-8.504c-68.624 59.717-150.041 106.222-242.305 138.353-.871.304-1.758.447-2.631.447-3.307.001-6.403-2.068-7.553-5.37zm283.432 136.348c0 4.418-3.582 8-8 8h-275.676c-4.418 0-8-3.582-8-8s3.582-8 8-8h275.677c4.418 0 7.999 3.582 7.999 8z"/></svg>