<?xml version="1.0"?>
<svg xmlns="http://www.w3.org/2000/svg" id="Icons" viewBox="0 0 60 60"><path d="M38,0H12A5.006,5.006,0,0,0,7,5V55a5.006,5.006,0,0,0,5,5H38a5.006,5.006,0,0,0,5-5V51h6a4,4,0,0,0,4-4V45a2,2,0,0,0-2-2H47V14a4,4,0,0,0-4-4V5A5.006,5.006,0,0,0,38,0ZM17,2H33V4a2,2,0,0,1-2,2H19a2,2,0,0,1-2-2ZM51,47a2,2,0,0,1-2,2H26.463A3.972,3.972,0,0,0,27,47V45H51ZM45,14V43H27a2,2,0,0,0-2,2v2a2,2,0,1,1-4,0V14.168A4.286,4.286,0,0,0,20.409,12H43A2,2,0,0,1,45,14ZM17,12l.107,0A2.119,2.119,0,0,1,19,14.168V30H15V14a2,2,0,0,1,2-2Zm0-2v.016A3.973,3.973,0,0,0,14.246,11.1,4.017,4.017,0,0,0,13,14V30a2,2,0,0,0,2,2h4V47a4,4,0,0,0,4,4H41v4a3,3,0,0,1-3,3H12a3,3,0,0,1-3-3V5a3,3,0,0,1,3-3h3V4a4,4,0,0,0,4,4H31a4,4,0,0,0,4-4V2h3a3,3,0,0,1,3,3v5Z"/><path d="M33,29a7,7,0,1,0-7-7A7.009,7.009,0,0,0,33,29Zm1-2.1V23h3.9A5.015,5.015,0,0,1,34,26.9ZM37.9,21H33.414l-3.167-3.167A4.991,4.991,0,0,1,37.9,21Zm-9.066-1.753L32,22.413V26.9a4.992,4.992,0,0,1-3.167-7.653Z"/><path d="M12,4a1,1,0,0,0-1,1V6a1,1,0,1,0,2,0V5A1,1,0,0,0,12,4Z"/><path d="M38,4a1,1,0,0,0-1,1V6a1,1,0,1,0,2,0V5A1,1,0,0,0,38,4Z"/><path d="M18,56H32a1,1,0,0,0,0-2H18a1,1,0,0,0,0,2Z"/><path d="M41,32H25a1,1,0,0,0,0,2H41a1,1,0,0,0,0-2Z"/><path d="M41,38H25a1,1,0,0,0,0,2H41a1,1,0,0,0,0-2Z"/></svg>
