<?xml version="1.0" encoding="UTF-8"?>
<svg xmlns="http://www.w3.org/2000/svg" viewBox="0 0 64 64" width="512" height="512"><g id="Layer_29" data-name="Layer 29"><rect x="21" y="4" width="4" height="2" style="fill:#fff"/><rect x="27" y="4" width="2" height="2" style="fill:#fff"/><path d="M50.085,41a3.764,3.764,0,0,0-2.932,1.371L47,42.538l-.095-.1A3.814,3.814,0,0,0,43.915,41a3.776,3.776,0,0,0-3.109,1.6,4.444,4.444,0,0,0,.152,5.306l5.255,6.709a1,1,0,0,0,1.574,0l5.255-6.709a4.444,4.444,0,0,0,.153-5.3A3.777,3.777,0,0,0,50.085,41Zm1.383,5.675L47,52.378l-4.468-5.7a2.455,2.455,0,0,1-.085-2.931A1.778,1.778,0,0,1,43.915,43a1.859,1.859,0,0,1,1.471.736l.884.947a1.029,1.029,0,0,0,1.46,0l.941-1.013A1.8,1.8,0,0,1,50.085,43a1.78,1.78,0,0,1,1.469.745A2.455,2.455,0,0,1,51.468,46.675Z" style="fill:#fff"/><path d="M54,37H44V6a5.006,5.006,0,0,0-5-5H11A5.006,5.006,0,0,0,6,6V58a5.006,5.006,0,0,0,5,5H39a5.009,5.009,0,0,0,4.9-4H54a4,4,0,0,0,4-4V41A4,4,0,0,0,54,37ZM39,61H11a3,3,0,0,1-3-3V6a3,3,0,0,1,3-3H39a3,3,0,0,1,3,3V37H40V8a1,1,0,0,0-1-1H11a1,1,0,0,0-1,1V52a1,1,0,0,0,1,1H36v2a4,4,0,0,0,4,4h1.816A3,3,0,0,1,39,61ZM32.293,45.707,36,49.414V51H12V9H38V37.556A3.987,3.987,0,0,0,36,41v3H33a1,1,0,0,0-.707,1.707ZM56,55a2,2,0,0,1-2,2H40a2,2,0,0,1-2-2V49a1,1,0,0,0-.293-.707L35.414,46H37a1,1,0,0,0,1-1V41a2,2,0,0,1,2-2H54a2,2,0,0,1,2,2Z" style="fill:#fff"/><rect x="16" y="37" width="18" height="2" style="fill:#fff"/><rect x="16" y="33" width="18" height="2" style="fill:#fff"/><rect x="16" y="41" width="18" height="2" style="fill:#fff"/><rect x="16" y="45" width="14" height="2" style="fill:#fff"/><path d="M33,30a3,3,0,0,0,3-3V25a1,1,0,0,0-1-1H33.941A9.014,9.014,0,0,0,28,16.525V15a3,3,0,0,0-6,0v1.525A9.014,9.014,0,0,0,16.059,24H15a1,1,0,0,0-1,1v2a3,3,0,0,0,3,3ZM24,15a1,1,0,0,1,2,0v1.059a8.5,8.5,0,0,0-2,0Zm1,3a7,7,0,0,1,6.92,6H18.08A7,7,0,0,1,25,18Zm-9,9V26H34v1a1,1,0,0,1-1,1H17A1,1,0,0,1,16,27Z" style="fill:#fff"/><path d="M27,54H23a3,3,0,0,0,0,6h4a3,3,0,0,0,0-6Zm0,4H23a1,1,0,0,1,0-2h4a1,1,0,0,1,0,2Z" style="fill:#fff"/></g></svg>
