<svg id="Capa_1" enable-background="new 0 0 511.998 511.998" height="512" viewBox="0 0 511.998 511.998" width="512" xmlns="http://www.w3.org/2000/svg"><g><path d="m446.466 338.612h-9.137v-210.583c0-7.995-6.505-14.5-14.5-14.5h-45.096l25.99-28.685 17.31 15.684c3.96 3.588 9.457 4.474 14.344 2.308 4.887-2.165 7.924-6.831 7.926-12.176l.029-77.332c.001-3.756-1.594-7.355-4.377-9.878s-6.525-3.753-10.262-3.386l-76.953 7.631c-5.319.527-9.664 4.009-11.339 9.085s-.254 10.459 3.707 14.047l16.132 14.617-32.177 35.513c-2.781 3.069-2.547 7.812.522 10.594 3.069 2.78 7.812 2.548 10.593-.521l33.302-36.754c2.39-2.638 3.61-6.048 3.435-9.603-.175-3.556-1.724-6.829-4.361-9.218l-14.574-13.205 71.351-7.075-.027 71.7-15.751-14.271c-2.638-2.391-6.047-3.612-9.603-3.435-3.555.175-6.828 1.725-9.218 4.361l-145.772 160.883c-5.308 5.859-14.395 6.307-20.255.998l-55.782-50.543c-2.276-2.062-5.231-3.105-8.287-2.965-3.069.151-5.895 1.488-7.957 3.765l-47.049 51.925c-2.572 2.839-6.095 4.506-9.92 4.694-3.827.188-7.495-1.123-10.334-3.695-2.838-2.572-4.505-6.095-4.693-9.921-.188-3.825 1.124-7.495 3.695-10.333l64.398-71.073c3.512-3.876 8.878-5.529 14.007-4.314 2.293.544 4.56 1.787 6.557 3.597l55.472 50.262c2.276 2.062 5.222 3.105 8.287 2.965 3.069-.151 5.895-1.488 7.957-3.765l71.444-78.85c2.781-3.069 2.548-7.812-.521-10.594-3.071-2.781-7.813-2.548-10.594.521l-69.094 76.256-52.878-47.911c-3.866-3.504-8.419-5.951-13.17-7.077-10.447-2.479-21.4.911-28.582 8.838l-64.398 71.073c-5.262 5.808-7.948 13.316-7.562 21.144s3.796 15.036 9.604 20.298c5.441 4.931 12.375 7.599 19.666 7.599 8.311 0 16.196-3.467 21.775-9.641l44.699-49.331 45.844 41.539v98.739h-42.96v-48.633c0-7.995-6.505-14.5-14.5-14.5h-63.04c-7.995 0-14.5 6.505-14.5 14.5v48.633h-9.757c-20.678 0-37.5 16.822-37.5 37.5v38.426c0 4.143 3.358 7.5 7.5 7.5s7.5-3.357 7.5-7.5v-38.426c0-12.406 10.093-22.5 22.5-22.5h380.935c12.407 0 22.5 10.094 22.5 22.5v98.387c0 12.406-10.093 22.5-22.5 22.5h-380.935c-12.407 0-22.5-10.094-22.5-22.5v-24.961c0-4.143-3.358-7.5-7.5-7.5s-7.5 3.357-7.5 7.5v24.961c0 20.678 16.822 37.5 37.5 37.5h380.935c20.678 0 37.5-16.822 37.5-37.5v-98.387c-.001-20.679-16.823-37.501-37.501-37.501zm-294.137 0h-62.04v-48.133h62.04zm135 0h-62.04v-87.078c11.287 5.071 25.041 2.604 33.787-7.048l28.253-31.182zm57.96 0h-42.96v-141.863l42.96-47.413zm77.04 0h-62.04v-205.831l3.853-4.252h58.187zm-229.187 71.66c0-13.108-11.077-23.772-24.692-23.772h-16.638c-.003 0-.007 0-.01 0s-.007 0-.01 0c-4.142 0-7.5 3.357-7.5 7.5v62.611c0 4.143 3.358 7.5 7.5 7.5s7.5-3.357 7.5-7.5v-18.588l20.721 23.543c2.745 3.119 7.487 3.402 10.585.675 3.109-2.736 3.412-7.476.675-10.585l-16.257-18.472c10.437-2.776 18.126-11.993 18.126-22.912zm-24.692 8.771c-2.111 0-5.74.015-9.065.031-.017-3.246-.041-14.174-.05-17.575h9.115c5.254 0 9.692 4.018 9.692 8.772s-4.438 8.772-9.692 8.772zm200.771 37.568v-62.611c0-4.143-3.358-7.5-7.5-7.5s-7.5 3.357-7.5 7.5v62.611c0 4.143 3.358 7.5 7.5 7.5s7.5-3.358 7.5-7.5zm39.426 7.5c4.142 0 7.5-3.357 7.5-7.5v-55.111h9.858c4.142 0 7.5-3.357 7.5-7.5s-3.358-7.5-7.5-7.5h-34.577c-4.142 0-7.5 3.357-7.5 7.5s3.358 7.5 7.5 7.5h9.719v55.111c0 4.142 3.358 7.5 7.5 7.5zm-315.154-7.5v-19.737c3.592-.019 7.63-.037 9.934-.037 14.069 0 25.515-11.291 25.515-25.169s-11.446-25.169-25.515-25.169h-17.434c-3.341.152-7.649 2.767-7.5 7.5v62.611c0 4.143 3.358 7.5 7.5 7.5s7.5-3.357 7.5-7.499zm9.933-55.112c5.7 0 10.515 4.657 10.515 10.169s-4.815 10.169-10.515 10.169c-2.288 0-6.276.018-9.854.036-.019-3.696-.047-16.505-.058-20.374zm228.184.23c4.142 0 7.5-3.357 7.5-7.5s-3.358-7.5-7.5-7.5h-25.191c-4.142 0-7.5 3.357-7.5 7.5v62.152c0 4.143 3.358 7.5 7.5 7.5s7.5-3.357 7.5-7.5v-24.164h15.69c4.142 0 7.5-3.357 7.5-7.5s-3.358-7.5-7.5-7.5h-15.69v-15.488zm-48.087 23.576c0-21.397-17.408-38.806-38.806-38.806s-38.805 17.408-38.805 38.806 17.408 38.806 38.805 38.806 38.806-17.409 38.806-38.806zm-62.611 0c0-13.127 10.679-23.806 23.805-23.806s23.806 10.679 23.806 23.806-10.679 23.806-23.806 23.806c-13.126 0-23.805-10.679-23.805-23.806z"/></g></svg>