<svg id="Layer_1" enable-background="new 0 0 66 66" height="512" viewBox="0 0 66 66" width="512" xmlns="http://www.w3.org/2000/svg"><g><g><g><g><path d="m62 56.1h-57.9c-.6 0-1-.4-1-1v-36.2c0-2.8 2.2-5 5-5h.7c.6 0 1 .4 1 1s-.4 1-1 1h-.7c-1.7 0-3 1.3-3 3v35.2h55.9v-35.2c0-1.7-1.3-3-3-3h-.6c-.6 0-1-.4-1-1s.4-1 1-1h.6c2.8 0 5 2.2 5 5v36.2c0 .6-.4 1-1 1z"/></g><g><path d="m61.3 64.9h-56.6c-2 0-3.7-1.7-3.7-3.7v-3.3c0-2 1.7-3.7 3.7-3.7h56.6c2 0 3.7 1.7 3.7 3.7v3.3c0 2-1.7 3.7-3.7 3.7zm-56.6-8.7c-1 0-1.7.7-1.7 1.7v3.3c0 1 .7 1.7 1.7 1.7h56.6c1 0 1.7-.7 1.7-1.7v-3.3c0-1-.7-1.7-1.7-1.7z"/></g></g><g><path d="m36.2 60.5h-6.3c-1.4 0-2.5-1.1-2.5-2.5v-2.9c0-.6.4-1 1-1h9.3c.6 0 1 .4 1 1v2.9.1c-.2 1.4-1.2 2.4-2.5 2.4zm-6.8-4.4v1.9c0 .2.3.5.5.5h6.3c.2 0 .4-.3.5-.6v-1.8z"/></g></g><g><path d="m56.9 56.1c-.6 0-1-.4-1-1v-49c0-1.7-1.3-3-3-3h-39.7c-1.7 0-3 1.3-3 3v49c0 .6-.4 1-1 1s-1-.4-1-1v-49c0-2.8 2.2-5 5-5h39.7c2.8 0 5 2.2 5 5v49c0 .6-.4 1-1 1z"/></g><g><path d="m56.8 10.7h-47.6c-.6 0-1-.4-1-1s.4-1 1-1h47.6c.6 0 1 .4 1 1s-.4 1-1 1z"/></g><g><g><path d="m51.5 33.8h-24.7c-.6 0-1-.4-1-1s.4-1 1-1h24.7c.6 0 1 .4 1 1s-.4 1-1 1z"/></g><g><path d="m20 33.8h-5.5c-.6 0-1-.4-1-1s.4-1 1-1h5.5c.6 0 1 .4 1 1s-.4 1-1 1z"/></g><g><path d="m51.5 39.3h-8.5c-.6 0-1-.4-1-1s.4-1 1-1h8.5c.6 0 1 .4 1 1s-.4 1-1 1z"/></g><g><path d="m36.7 39.3h-22.2c-.6 0-1-.4-1-1s.4-1 1-1h22.2c.6 0 1 .4 1 1s-.4 1-1 1z"/></g><g><path d="m51.5 44.8h-20.4c-.6 0-1-.4-1-1s.4-1 1-1h20.4c.6 0 1 .4 1 1s-.4 1-1 1z"/></g><g><path d="m25 44.8h-10.5c-.6 0-1-.4-1-1s.4-1 1-1h10.5c.6 0 1 .4 1 1s-.4 1-1 1z"/></g><g><path d="m51.5 50.2h-4.5c-.6 0-1-.4-1-1s.4-1 1-1h4.5c.6 0 1 .4 1 1s-.4 1-1 1z"/></g><g><path d="m41 50.2h-26.5c-.6 0-1-.4-1-1s.4-1 1-1h26.5c.6 0 1 .4 1 1s-.4 1-1 1z"/></g><g><path d="m24.7 35.9h-2.2c-1.3 0-2.4-1.1-2.4-2.4v-1.3c0-1.3 1.1-2.4 2.4-2.4h2.2c1.3 0 2.4 1.1 2.4 2.4v1.3c0 1.3-1.1 2.4-2.4 2.4zm-2.2-4.1c-.2 0-.4.2-.4.4v1.3c0 .2.2.4.4.4h2.2c.2 0 .4-.2.4-.4v-1.3c0-.2-.2-.4-.4-.4z"/></g><g><path d="m40.6 41.3h-2.2c-1.3 0-2.4-1.1-2.4-2.4v-1.3c0-1.3 1.1-2.4 2.4-2.4h2.2c1.3 0 2.4 1.1 2.4 2.4v1.2c.1.6-.1 1.2-.5 1.6-.5.6-1.2.9-1.9.9zm-2.2-4.1c-.2 0-.4.2-.4.4v1.3c0 .2.2.4.4.4h2.2c.2 0 .3-.1.4-.1v-.1-.1-1.3c0-.2-.2-.4-.4-.4h-2.2z"/></g><g><path d="m29.4 46.8h-2.2c-1.3 0-2.4-1.1-2.4-2.4v-1.3c0-1.3 1.1-2.4 2.4-2.4h2.2c1.3 0 2.4 1.1 2.4 2.4v1.3c0 1.3-1.1 2.4-2.4 2.4zm-2.2-4.1c-.2 0-.4.2-.4.4v1.3c0 .2.2.4.4.4h2.2c.2 0 .4-.2.4-.4v-1.3c0-.2-.2-.4-.4-.4z"/></g><g><path d="m45 52.3h-2.2c-1.3 0-2.4-1.1-2.4-2.4v-1.3c0-1.3 1.1-2.4 2.4-2.4h2.2c1.3 0 2.4 1.1 2.4 2.4v1.2c.1.6-.1 1.2-.5 1.6-.5.6-1.2.9-1.9.9zm-2.2-4.1c-.2 0-.4.2-.4.4v1.3c0 .2.2.4.4.4h2.2c.2 0 .3-.1.4-.1v-.1-.1-1.3c0-.2-.2-.4-.4-.4h-2.2z"/></g></g><g><g><path d="m21.3 28.4c-.1 0-.3 0-.4-.1l-6.8-2.9c-.4-.2-.6-.5-.6-.9v-8.4c0-.3.2-.6.4-.8.3-.2.6-.2.9-.1l6.8 2.9c.4.2.6.5.6.9v8.4c0 .3-.2.6-.4.8-.1.1-.3.2-.5.2zm-5.8-4.6 4.8 2v-6.2l-4.8-2z"/></g><g><path d="m21.3 28.4c-.2 0-.4-.1-.5-.2-.3-.2-.5-.5-.5-.8v-8.4c0-.4.2-.8.6-.9l6.7-2.9c.3-.1.7-.1.9.1.3.2.5.5.5.8v8.4c0 .4-.2.8-.6.9l-6.7 2.9c-.1.1-.3.1-.4.1zm1-8.7v6.2l4.7-2v-6.2z"/></g><g><path d="m21.3 20c-.1 0-.3 0-.4-.1l-6.7-2.9c-.4-.2-.6-.5-.6-.9s.2-.8.6-.9l6.7-2.9c.3-.1.5-.1.8 0l6.7 2.9c.4.2.6.5.6.9s-.2.8-.6.9l-6.7 2.9c-.1.1-.3.1-.4.1zm-4.2-3.9 4.2 1.8 4.2-1.8-4.2-1.8z"/></g><g><path d="m21.3 28.4c-.1 0-.3 0-.4-.1l-6.8-2.9c-.4-.2-.6-.5-.6-.9v-8.4c0-.3.2-.6.4-.8.3-.2.6-.2.9-.1l6.8 2.9c.4.2.6.5.6.9v8.4c0 .3-.2.6-.4.8-.1.1-.3.2-.5.2zm-5.8-4.6 4.8 2v-6.2l-4.8-2z"/></g></g><g><g><path d="m51.5 16.4h-18.5c-.6 0-1-.4-1-1s.4-1 1-1h18.5c.6 0 1 .4 1 1s-.4 1-1 1z"/></g><g><path d="m51.5 21.7h-18.5c-.6 0-1-.4-1-1s.4-1 1-1h18.5c.6 0 1 .4 1 1s-.4 1-1 1z"/></g><g><path d="m51.5 27h-18.5c-.6 0-1-.4-1-1s.4-1 1-1h18.5c.6 0 1 .4 1 1s-.4 1-1 1z"/></g></g><g><g><path d="m35.2 6.9h-20.8c-.6 0-1-.4-1-1s.4-1 1-1h20.8c.6 0 1 .4 1 1s-.4 1-1 1z"/></g><g><path d="m43.6 6.9h-3.3c-.6 0-1-.4-1-1s.4-1 1-1h3.3c.6 0 1 .4 1 1s-.4 1-1 1z"/></g><g><path d="m51.6 6.9h-3.2c-.6 0-1-.4-1-1s.4-1 1-1h3.2c.6 0 1 .4 1 1s-.4 1-1 1z"/></g></g></g><g><g><g><g><path d="m62 56.1h-57.9c-.6 0-1-.4-1-1v-36.2c0-2.8 2.2-5 5-5h.7c.6 0 1 .4 1 1s-.4 1-1 1h-.7c-1.7 0-3 1.3-3 3v35.2h55.9v-35.2c0-1.7-1.3-3-3-3h-.6c-.6 0-1-.4-1-1s.4-1 1-1h.6c2.8 0 5 2.2 5 5v36.2c0 .6-.4 1-1 1z"/></g><g><path d="m61.3 64.9h-56.6c-2 0-3.7-1.7-3.7-3.7v-3.3c0-2 1.7-3.7 3.7-3.7h56.6c2 0 3.7 1.7 3.7 3.7v3.3c0 2-1.7 3.7-3.7 3.7zm-56.6-8.7c-1 0-1.7.7-1.7 1.7v3.3c0 1 .7 1.7 1.7 1.7h56.6c1 0 1.7-.7 1.7-1.7v-3.3c0-1-.7-1.7-1.7-1.7z"/></g></g><g><path d="m36.2 60.5h-6.3c-1.4 0-2.5-1.1-2.5-2.5v-2.9c0-.6.4-1 1-1h9.3c.6 0 1 .4 1 1v2.9.1c-.2 1.4-1.2 2.4-2.5 2.4zm-6.8-4.4v1.9c0 .2.3.5.5.5h6.3c.2 0 .4-.3.5-.6v-1.8z"/></g></g><g><path d="m56.9 56.1c-.6 0-1-.4-1-1v-49c0-1.7-1.3-3-3-3h-39.7c-1.7 0-3 1.3-3 3v49c0 .6-.4 1-1 1s-1-.4-1-1v-49c0-2.8 2.2-5 5-5h39.7c2.8 0 5 2.2 5 5v49c0 .6-.4 1-1 1z"/></g><g><path d="m56.8 10.7h-47.6c-.6 0-1-.4-1-1s.4-1 1-1h47.6c.6 0 1 .4 1 1s-.4 1-1 1z"/></g><g><g><path d="m51.5 33.8h-24.7c-.6 0-1-.4-1-1s.4-1 1-1h24.7c.6 0 1 .4 1 1s-.4 1-1 1z"/></g><g><path d="m20 33.8h-5.5c-.6 0-1-.4-1-1s.4-1 1-1h5.5c.6 0 1 .4 1 1s-.4 1-1 1z"/></g><g><path d="m51.5 39.3h-8.5c-.6 0-1-.4-1-1s.4-1 1-1h8.5c.6 0 1 .4 1 1s-.4 1-1 1z"/></g><g><path d="m36.7 39.3h-22.2c-.6 0-1-.4-1-1s.4-1 1-1h22.2c.6 0 1 .4 1 1s-.4 1-1 1z"/></g><g><path d="m51.5 44.8h-20.4c-.6 0-1-.4-1-1s.4-1 1-1h20.4c.6 0 1 .4 1 1s-.4 1-1 1z"/></g><g><path d="m25 44.8h-10.5c-.6 0-1-.4-1-1s.4-1 1-1h10.5c.6 0 1 .4 1 1s-.4 1-1 1z"/></g><g><path d="m51.5 50.2h-4.5c-.6 0-1-.4-1-1s.4-1 1-1h4.5c.6 0 1 .4 1 1s-.4 1-1 1z"/></g><g><path d="m41 50.2h-26.5c-.6 0-1-.4-1-1s.4-1 1-1h26.5c.6 0 1 .4 1 1s-.4 1-1 1z"/></g><g><path d="m24.7 35.9h-2.2c-1.3 0-2.4-1.1-2.4-2.4v-1.3c0-1.3 1.1-2.4 2.4-2.4h2.2c1.3 0 2.4 1.1 2.4 2.4v1.3c0 1.3-1.1 2.4-2.4 2.4zm-2.2-4.1c-.2 0-.4.2-.4.4v1.3c0 .2.2.4.4.4h2.2c.2 0 .4-.2.4-.4v-1.3c0-.2-.2-.4-.4-.4z"/></g><g><path d="m40.6 41.3h-2.2c-1.3 0-2.4-1.1-2.4-2.4v-1.3c0-1.3 1.1-2.4 2.4-2.4h2.2c1.3 0 2.4 1.1 2.4 2.4v1.2c.1.6-.1 1.2-.5 1.6-.5.6-1.2.9-1.9.9zm-2.2-4.1c-.2 0-.4.2-.4.4v1.3c0 .2.2.4.4.4h2.2c.2 0 .3-.1.4-.1v-.1-.1-1.3c0-.2-.2-.4-.4-.4h-2.2z"/></g><g><path d="m29.4 46.8h-2.2c-1.3 0-2.4-1.1-2.4-2.4v-1.3c0-1.3 1.1-2.4 2.4-2.4h2.2c1.3 0 2.4 1.1 2.4 2.4v1.3c0 1.3-1.1 2.4-2.4 2.4zm-2.2-4.1c-.2 0-.4.2-.4.4v1.3c0 .2.2.4.4.4h2.2c.2 0 .4-.2.4-.4v-1.3c0-.2-.2-.4-.4-.4z"/></g><g><path d="m45 52.3h-2.2c-1.3 0-2.4-1.1-2.4-2.4v-1.3c0-1.3 1.1-2.4 2.4-2.4h2.2c1.3 0 2.4 1.1 2.4 2.4v1.2c.1.6-.1 1.2-.5 1.6-.5.6-1.2.9-1.9.9zm-2.2-4.1c-.2 0-.4.2-.4.4v1.3c0 .2.2.4.4.4h2.2c.2 0 .3-.1.4-.1v-.1-.1-1.3c0-.2-.2-.4-.4-.4h-2.2z"/></g></g><g><g><path d="m21.3 28.4c-.1 0-.3 0-.4-.1l-6.8-2.9c-.4-.2-.6-.5-.6-.9v-8.4c0-.3.2-.6.4-.8.3-.2.6-.2.9-.1l6.8 2.9c.4.2.6.5.6.9v8.4c0 .3-.2.6-.4.8-.1.1-.3.2-.5.2zm-5.8-4.6 4.8 2v-6.2l-4.8-2z"/></g><g><path d="m21.3 28.4c-.2 0-.4-.1-.5-.2-.3-.2-.5-.5-.5-.8v-8.4c0-.4.2-.8.6-.9l6.7-2.9c.3-.1.7-.1.9.1.3.2.5.5.5.8v8.4c0 .4-.2.8-.6.9l-6.7 2.9c-.1.1-.3.1-.4.1zm1-8.7v6.2l4.7-2v-6.2z"/></g><g><path d="m21.3 20c-.1 0-.3 0-.4-.1l-6.7-2.9c-.4-.2-.6-.5-.6-.9s.2-.8.6-.9l6.7-2.9c.3-.1.5-.1.8 0l6.7 2.9c.4.2.6.5.6.9s-.2.8-.6.9l-6.7 2.9c-.1.1-.3.1-.4.1zm-4.2-3.9 4.2 1.8 4.2-1.8-4.2-1.8z"/></g><g><path d="m21.3 28.4c-.1 0-.3 0-.4-.1l-6.8-2.9c-.4-.2-.6-.5-.6-.9v-8.4c0-.3.2-.6.4-.8.3-.2.6-.2.9-.1l6.8 2.9c.4.2.6.5.6.9v8.4c0 .3-.2.6-.4.8-.1.1-.3.2-.5.2zm-5.8-4.6 4.8 2v-6.2l-4.8-2z"/></g></g><g><g><path d="m51.5 16.4h-18.5c-.6 0-1-.4-1-1s.4-1 1-1h18.5c.6 0 1 .4 1 1s-.4 1-1 1z"/></g><g><path d="m51.5 21.7h-18.5c-.6 0-1-.4-1-1s.4-1 1-1h18.5c.6 0 1 .4 1 1s-.4 1-1 1z"/></g><g><path d="m51.5 27h-18.5c-.6 0-1-.4-1-1s.4-1 1-1h18.5c.6 0 1 .4 1 1s-.4 1-1 1z"/></g></g><g><g><path d="m35.2 6.9h-20.8c-.6 0-1-.4-1-1s.4-1 1-1h20.8c.6 0 1 .4 1 1s-.4 1-1 1z"/></g><g><path d="m43.6 6.9h-3.3c-.6 0-1-.4-1-1s.4-1 1-1h3.3c.6 0 1 .4 1 1s-.4 1-1 1z"/></g><g><path d="m51.6 6.9h-3.2c-.6 0-1-.4-1-1s.4-1 1-1h3.2c.6 0 1 .4 1 1s-.4 1-1 1z"/></g></g></g></svg>