<svg id="Line" viewBox="0 0 64 64" xmlns="http://www.w3.org/2000/svg"><path d="m52.51 11.49c-5.49-5.48-12.77-8.49-20.51-8.49s-15.02 3.02-20.51 8.49c-5.48 5.49-8.49 12.77-8.49 20.51 0 .55.45 1 1 1h8c.55 0 1-.45 1-1 0-10.48 8.52-19 19-19 2.12 0 4.19.36 6.17 1.05l-7.45 11.02c-9.33.66-16.72 8.44-16.72 17.94s8.07 18 18 18 18-8.08 18-18c0-7.37-4.45-13.71-10.81-16.49l3.54-10.18c.96.66 1.87 1.41 2.7 2.24 3.59 3.59 5.57 8.36 5.57 13.43 0 .55.45 1 1 1h8c.55 0 1-.45 1-1 0-7.74-3.02-15.02-8.49-20.51zm-41.49 19.51h-6.01c.24-6.48 2.76-12.57 7.17-17.34l4.26 4.26c-3.17 3.5-5.19 8.05-5.43 13.08zm6.84-14.49-4.26-4.26c4.78-4.45 10.89-6.98 17.4-7.22v6.02c-5.05.24-9.63 2.26-13.14 5.46zm4.42 39.18c.07-.17.15-.35.25-.52.35-.61.85-1.12 1.47-1.48.53-.32 1.12-.52 1.74-.61l2.19-.3c.16.78.6 1.48 1.29 1.92.82.54 1.78.82 2.78.82s1.96-.29 2.77-.82c.69-.45 1.14-1.14 1.29-1.92l2.19.3c.62.08 1.21.29 1.74.61.78.46 1.37 1.18 1.7 2-2.7 2.07-6.05 3.31-9.7 3.31s-7.02-1.25-9.71-3.32zm4.2-16.42h-.77s0 0 0 0h-.03c.06-3.43 2.87-6.21 6.32-6.21s6.26 2.78 6.32 6.21h-.03s0 0 0 0h-.77c-1.77 0-3.49-.48-4.99-1.39-.32-.19-.72-.19-1.04 0-1.5.91-3.23 1.39-4.99 1.39zm.23 2c1.85-.04 3.67-.51 5.29-1.39 1.62.87 3.43 1.35 5.29 1.39v2.08c0 1.37-.55 2.66-1.54 3.64-1.03 1.01-2.41 1.55-3.85 1.52-2.86-.05-5.19-2.46-5.19-5.36zm5.15 9.24s.09 0 .14 0c.74 0 1.45-.11 2.14-.31v2c0 .34-.17.65-.46.83-.99.65-2.37.65-3.37 0-.29-.18-.46-.5-.46-.83v-2.02c.64.2 1.31.32 2 .33zm16.14-7.51c0 4.42-1.81 8.43-4.72 11.33-.52-.97-1.3-1.79-2.26-2.36-.77-.46-1.61-.75-2.5-.87l-2.38-.32v-1.54c.36-.24.7-.52 1.01-.82 1.15-1.13 1.87-2.58 2.07-4.15 1.1-.28 1.92-1.27 1.92-2.45 0-.71-.31-1.38-.81-1.85v-.57c0-4.59-3.74-8.33-8.33-8.33s-8.33 3.74-8.33 8.33v.57c-.51.47-.81 1.14-.81 1.85 0 1.2.83 2.2 1.95 2.46.31 2.02 1.45 3.79 3.05 4.92v1.59l-2.38.32c-.89.12-1.73.41-2.49.87-.9.53-1.66 1.29-2.18 2.2-.03.06-.05.11-.08.17-2.91-2.9-4.72-6.91-4.72-11.34 0-8.82 7.18-16 16-16s16 7.18 16 16zm-14.86-17.94 8.61-12.73s.07-.02.12 0c.08.04.1.1.11.11l-4.65 13.37c-1.33-.41-2.74-.66-4.18-.75zm10.27-10.67.45-1.29c.1-.27.11-.51.11-.66 0-.78-.45-1.5-1.2-1.9-.97-.47-2.12-.19-2.68.66l-.77 1.14c-2.03-.76-4.15-1.19-6.32-1.29v-6.02c6.51.24 12.62 2.77 17.4 7.22l-4.25 4.25c-.85-.78-1.77-1.48-2.73-2.11zm9.56 16.61c-.23-4.88-2.14-9.45-5.43-13.08l4.26-4.26c4.42 4.77 6.94 10.86 7.17 17.34h-6.01z"/></svg>