<svg id="Layer_1" enable-background="new 0 0 512 512" viewBox="0 0 512 512" xmlns="http://www.w3.org/2000/svg"><path d="m288.245 497.216h-183.391c-22.702 0-41.172-18.456-41.172-41.142v-360.076c0-22.686 18.469-41.142 41.172-41.142h65.834v9.02h-69.043c-15.958 0-28.942 12.984-28.942 28.942v366.465c0 15.958 12.983 28.942 28.942 28.942h181.425c3.944 0 7.141-3.197 7.141-7.142 0-3.944-3.197-7.142-7.141-7.142h-181.426c-8.083 0-14.659-6.575-14.659-14.658v-366.465c0-8.083 6.576-14.658 14.659-14.658h70.102c3.24 11.224 13.589 19.458 25.829 19.458h88.01c12.254 0 22.614-8.234 25.858-19.458h73.572c8.083 0 14.659 6.575 14.659 14.658v185.184c0 3.944 3.197 7.142 7.141 7.142s7.141-3.197 7.141-7.142v-185.184c0-15.958-12.983-28.942-28.942-28.942h-72.512v-9.02h69.332c22.686 0 41.143 18.456 41.143 41.142v228.756c0 3.944 3.197 7.142 7.141 7.142s7.141-3.197 7.141-7.142v-228.756c0-30.562-24.864-55.426-55.425-55.426h-69.332v-4.886c0-3.944-3.197-7.142-7.141-7.142h-29.323c-3.309-15.988-17.502-28.044-34.457-28.044-16.942 0-31.123 12.056-34.43 28.045h-29.322c-3.944 0-7.141 3.197-7.141 7.142v4.886h-65.834c-30.578 0-55.454 24.864-55.454 55.426v360.076c0 30.562 24.877 55.426 55.454 55.426h183.392c3.944 0 7.141-3.197 7.141-7.142s-3.198-7.143-7.142-7.143zm-103.275-454.387h28.594c3.944 0 7.141-3.197 7.141-7.142 0-11.526 9.364-20.903 20.875-20.903 11.526 0 20.904 9.377 20.904 20.903 0 3.944 3.197 7.142 7.141 7.142h28.594v27.871c0 6.967-5.668 12.635-12.635 12.635h-88.01c-6.951 0-12.606-5.668-12.606-12.635v-27.871zm162.645 75.027-212.535 126.671c-1.145.682-2.406 1.008-3.649 1.008-2.434 0-4.805-1.244-6.141-3.486-2.02-3.389-.91-7.772 2.478-9.791l211.688-126.167-20.154-5.391c-3.81-1.019-6.073-4.933-5.054-8.744 1.019-3.809 4.935-6.073 8.744-5.053l37.615 10.061c1.831.489 3.392 1.686 4.339 3.328.947 1.641 1.204 3.591.713 5.422l-10.091 37.615c-.856 3.189-3.741 5.292-6.893 5.292-.613 0-1.235-.079-1.855-.245-3.809-1.022-6.069-4.938-5.048-8.748zm-62.088 238.297c0 3.944-3.197 7.142-7.141 7.142h-108.537c-3.944 0-7.141-3.197-7.141-7.142 0-3.944 3.197-7.142 7.141-7.142h108.537c3.944 0 7.141 3.198 7.141 7.142zm0 27.438c0 3.944-3.197 7.142-7.141 7.142h-108.537c-3.944 0-7.141-3.197-7.141-7.142 0-3.944 3.197-7.142 7.141-7.142h108.537c3.944 0 7.141 3.197 7.141 7.142zm0 27.437c0 3.944-3.197 7.142-7.141 7.142h-108.537c-3.944 0-7.141-3.197-7.141-7.142s3.197-7.142 7.141-7.142h108.537c3.944 0 7.141 3.198 7.141 7.142zm0 27.468c0 3.944-3.197 7.142-7.141 7.142h-108.537c-3.944 0-7.141-3.197-7.141-7.142 0-3.944 3.197-7.142 7.141-7.142h108.537c3.944 0 7.141 3.197 7.141 7.142zm-141.873-82.343c0-3.944-3.197-7.142-7.141-7.142h-27.466c-3.944 0-7.141 3.197-7.141 7.142v27.438c0 3.944 3.197 7.142 7.141 7.142h27.466c3.944 0 7.141-3.197 7.141-7.142zm-14.283 20.296h-13.184v-13.154h13.184zm7.142 27.437h-27.466c-3.944 0-7.141 3.197-7.141 7.142v27.467c0 3.944 3.197 7.142 7.141 7.142h27.466c3.944 0 7.141-3.197 7.141-7.142v-27.467c0-3.944-3.198-7.142-7.141-7.142zm-7.142 27.468h-13.184v-13.184h13.184zm25.125-111.978v-45.421h-20.384v45.421c0 3.944-3.197 7.142-7.141 7.142s-7.141-3.197-7.141-7.142v-52.563c0-3.944 3.197-7.142 7.141-7.142h34.666c3.944 0 7.141 3.197 7.141 7.142v52.563c0 3.944-3.197 7.142-7.141 7.142s-7.141-3.197-7.141-7.142zm64.36 0v-74.941h-20.412v74.941c0 3.944-3.197 7.142-7.141 7.142s-7.141-3.197-7.141-7.142v-82.083c0-3.944 3.197-7.142 7.141-7.142h34.695c3.944 0 7.141 3.197 7.141 7.142v82.083c0 3.944-3.197 7.142-7.141 7.142s-7.142-3.197-7.142-7.142zm71.471 7.142c-3.944 0-7.141-3.197-7.141-7.142v-121.056h-20.383v121.056c0 3.944-3.197 7.142-7.141 7.142s-7.141-3.197-7.141-7.142v-128.198c0-3.944 3.197-7.142 7.141-7.142h34.666c3.944 0 7.141 3.197 7.141 7.142v128.198c-.001 3.945-3.198 7.142-7.142 7.142zm62.249-54.414v-105.067h-20.413v152.34c0 3.944-3.197 7.142-7.141 7.142s-7.141-3.197-7.141-7.142v-159.482c0-3.944 3.197-7.142 7.141-7.142h34.695c3.944 0 7.141 3.197 7.141 7.142v112.209c0 3.944-3.197 7.142-7.141 7.142s-7.141-3.197-7.141-7.142zm109.841 210.121-17.174-137.942c-.445-3.575-3.484-6.259-7.086-6.259h-20.181v-17.925c0-21.283-17.328-38.598-38.627-38.598-21.283 0-38.598 17.316-38.598 38.598v17.925h-20.21c-3.603 0-6.642 2.684-7.086 6.259l-17.175 137.941c-.865 6.936 1.344 13.795 6.219 19.317 5.507 6.236 13.775 9.96 22.118 9.96h109.463c8.354 0 16.623-3.716 22.122-9.941 4.873-5.518 7.08-12.384 6.215-19.335zm-107.384-162.126c0-13.407 10.908-24.315 24.315-24.315 13.423 0 24.344 10.908 24.344 24.315v17.925h-48.66v-17.925zm90.464 172.005c-2.785 3.154-7.16 5.113-11.416 5.113h-109.464c-4.245 0-8.617-1.965-11.412-5.13-1.504-1.703-3.202-4.49-2.752-8.097l16.395-131.682h105.001l16.395 131.681c.45 3.626-1.245 6.414-2.747 8.115z"/></svg>