<svg id="Layer_1" enable-background="new 0 0 512 512" viewBox="0 0 512 512" xmlns="http://www.w3.org/2000/svg"><path d="m499.9 385.1-29-4c-6.9-1-13.2 3.9-14.2 10.7l-.8 5.7-17.4-10.4 13.5-97.4c.3-2-.6-4.1-2.4-5.2-22-14.2-45.3-20.2-69-22.1v-146.7c14.9-2.6 15.2-25 0-27.6v-35.1c0-13.7-11.2-24.9-24.9-24.9h-24.1v-6.5c0-8.2-6.6-14.8-14.8-14.8s-14.8 6.7-14.8 14.8v6.4h-50.6v-6.5c0-8.2-6.7-14.8-14.8-14.8s-14.8 6.7-14.8 14.8v6.5h-50.6v-6.5c0-8.2-6.6-14.8-14.8-14.8s-14.8 6.7-14.8 14.8v6.5h-50.5v-6.5c0-8.2-6.6-14.8-14.8-14.8s-14.8 6.7-14.8 14.8v6.5h-24.1c-13.7 0-24.9 11.2-24.9 25v35c-14.9 2.6-15.2 25 0 27.6v244.8c0 14 11.4 25.3 25.3 25.3h106l-1.9 13.8c-.5 6.8 10.4 8.6 14.9 11.6l19.4 64.8c.6 2.1 2.4 3.5 4.6 3.8 24.9 2.7 50-2.2 72.4-11l37 21.6c9.9 5.8 21.3 8.8 33 8.8 2.7 0 5.5-.2 8.2-.5l112.5-14.2c-2 7.4 2.5 15.7 10.4 16.6 0 0 29 4 29 4 6.7 1 13.3-3.8 14.2-10.7l13.2-95.1c.9-6.8-3.9-13.1-10.8-14.1zm-187.2-363.6c0-5.5 8.3-5.5 8.3 0v21c0 5.4-8.3 5.4-8.3 0zm-80.2 0c0-5.5 8.3-5.5 8.3 0v21c0 2.3-1.9 4.1-4.2 4.1s-4.1-1.9-4.1-4.1zm-80.2 0c0-5.5 8.3-5.5 8.3 0v21c0 5.4-8.3 5.4-8.3 0zm-80.1 0c0-5.5 8.3-5.5 8.3 0v21c0 5.4-8.3 5.4-8.3 0zm-49.1 31.5c0-7.9 6.4-14.3 14.3-14.3h24.1c-2.4 24.8 32 24.8 29.5 0h50.6c-2.4 24.8 32 24.8 29.5 0h50.6c-2.4 24.8 32 24.7 29.6 0h50.7c-2.4 24.8 32 24.8 29.6 0h24.1c7.9 0 14.3 6.4 14.3 14.3v34.8h-346.9zm-5.3 52.3h-2.8c-4 .1-4.6-6.9 0-6.9h363.2c1.8 0 3.3 1.5 3.3 3.6-.2 3.5-3.4 3.4-6.1 3.3zm20 269.8c-8.1 0-14.7-6.6-14.7-14.7v-244.5h346.9v145.9c-63.2-2.1-131 22-190.3-6.1v-34.8c0-2.9-2.4-5.3-5.3-5.3h-35.9c-2.9 0-5.3 2.4-5.3 5.3v35.9c0 2.9 2.4 5.3 5.3 5.3h22.4c-3.7 26.6-11.9 86-15.6 113.1h-107.5zm131.3-148.9v24.1c-1.9-.8-4.3-.3-5.7 1.2h-19.6v-25.3zm-16.2 171.3c5-35.8 13.6-98.3 18.5-133.9 86.3 44.8 185.4-21.4 269.6 28.1l-12.4 89.6-8.3-5 7.5-54.5c.3-2.4-1-4.7-3.2-5.6-10.5-4.5-17.1-14.7-15.8-24.2.4-2.8-1.6-5.5-4.4-6-67.7-11.3-131.3 11.3-198.7.4-2.9-.5-5.8 1.6-6.1 4.5-1.6 8.8-7.9 14.8-17.8 11.1-3.1-1.4-7 .8-7.4 4.1l-8.5 61.4c-.3 2.4 1 4.7 3.2 5.6 10.5 4.5 17.1 14.7 15.8 24.2-.4 2.9 1.6 5.5 4.4 6 50.7 8.5 100.7-2.3 151.2-3.3 5.2 4.3 17.2 6.1 23.5 7.9-69.4-7.1-146.5 25.1-211.1-10.4zm179-7.9c-45.7 1.8-90 10.5-136.2 4-.6-11.2-7.7-22.2-18.6-28.4l7.1-51.6c10.8 1.6 21.3-5.6 24.7-16 64.4 9.2 125-10.8 189.2-1.8.6 11.2 7.8 22.2 18.6 28.3l-6.5 47c-12.3-4.5-25.8-3.5-38.7-4.1-11.4.4-24.6-4.3-34.8 2.1-6.4 4.5-7.9 13.4-4.8 20.5zm43.2 30.4-43.2 7.4c6-3.4 12-6.7 18.1-9.9 8.5.3 16.9 1.1 25.1 2.5zm-90.2 1.4c-19.6 10.6-40.1 20.4-62.2 26.9-5.2-10.1-16.1-17.1-28.7-18.1l-2.4-8.1c30.8 5.4 62.5 2.6 93.3-.7zm-99.6 48.1-15.9-53.2c3.3 1.2 6.8 2.1 10.2 3.1l5.2 17.5c.7 2.2 2.7 3.8 5.2 3.8 11.2-.2 21.6 6.4 24.4 15.6.7 2.3 2.8 3.8 5.1 3.8 33.8-8.3 63.4-25.3 91.8-41.1 5.7-.5 11-.9 16-1.1-43.7 24.8-89.3 55.9-142 51.6zm260.1 4.2-115.3 14.5c-11.9 1.5-24.5-1.1-34.5-7l-30-17.6c16.2-7.5 32.4-16.5 47.7-25.4 4.9 1.3 10 1.5 15 .6l65.4-11.2c3.9-.6 6.8-3.4 7.4-6.7 1.7-10.7-14.9-18.3-23.8-20.7 0 0-25-6.3-25-6.3-8.6-1.6-18.6-16.9-4.1-17.6 21.1 2.6 44.3-1.7 63.9 7.3 11.4 6.4 30.6 18.5 42.2 25.2zm41.6 19.3c-.2 1.1-1.1 1.8-2.2 1.7l-29-4c-1.3-.4-1.6-.9-1.7-2.2 0-.1 1.2-9.2 1.3-9.3 1.3-9.7 10.8-78 11.9-85.9.1-1.1 1.2-1.8 2.2-1.7l29 4c1.1.2 1.8 1.1 1.7 2.2zm-187-179.7c-17.5 2-33.1 16.8-35.4 33.6-2.6 16.2 9.5 29.7 25.7 29.5 18.9-.1 36.6-15.8 39.1-33.8 2.8-17.8-11.8-31.7-29.4-29.3zm18.8 27.7c-1.7 12-13.4 23-26.1 24.5-11 1.4-19.3-6.2-17.6-17.2 1.7-12 13.4-23 26.1-24.5 10.6-1.6 19.5 6.2 17.6 17.2zm-224.5-194.1h-35.9c-2.9 0-5.3 2.4-5.3 5.3v35.9c0 2.9 2.4 5.3 5.3 5.3h35.9c2.9 0 5.3-2.4 5.3-5.3v-35.9c0-3-2.4-5.3-5.3-5.3zm-5.4 35.8h-25.2v-25.3h25.3v25.3zm49.6 10.7h35.9c2.9 0 5.3-2.4 5.3-5.3v-35.9c0-2.9-2.4-5.3-5.3-5.3h-35.9c-2.9 0-5.3 2.4-5.3 5.3v35.9c0 2.9 2.4 5.3 5.3 5.3zm5.3-35.9h25.3v25.3h-25.3zm74.9 35.9h35.9c2.9 0 5.3-2.4 5.3-5.3v-35.9c0-2.9-2.4-5.3-5.3-5.3h-35.9c-2.9 0-5.3 2.4-5.3 5.3v35.9c0 2.9 2.4 5.3 5.3 5.3zm5.3-35.9h25.3v25.3h-25.3zm74.9 35.9h35.9c2.9 0 5.3-2.4 5.3-5.3v-35.9c0-2.9-2.4-5.3-5.3-5.3h-35.9c-2.9 0-5.3 2.4-5.3 5.3v35.9c0 2.9 2.4 5.3 5.3 5.3zm5.3-35.9h25.3v25.3h-25.3zm-209.9 58.1h-35.9c-2.9 0-5.3 2.4-5.3 5.3v35.9c0 2.9 2.4 5.3 5.3 5.3h35.9c2.9 0 5.3-2.4 5.3-5.3v-35.9c0-3-2.4-5.3-5.3-5.3zm-5.4 35.9h-25.2v-25.3h25.3v25.3zm129.8 10.6h35.9c2.9 0 5.3-2.4 5.3-5.3v-35.9c0-2.9-2.4-5.3-5.3-5.3h-35.9c-2.9 0-5.3 2.4-5.3 5.3v35.9c0 2.9 2.4 5.3 5.3 5.3zm5.3-35.9h25.3v25.3h-25.3zm74.9 35.9h35.9c2.9 0 5.3-2.4 5.3-5.3v-35.9c0-2.9-2.4-5.3-5.3-5.3h-35.9c-2.9 0-5.3 2.4-5.3 5.3v35.9c0 2.9 2.4 5.3 5.3 5.3zm5.3-35.9h25.3v25.3h-25.3zm-209.9 58.1h-35.9c-2.9 0-5.3 2.4-5.3 5.3v35.9c0 2.9 2.4 5.3 5.3 5.3h35.9c2.9 0 5.3-2.4 5.3-5.3v-35.9c0-2.9-2.4-5.3-5.3-5.3zm-5.4 35.9h-25.2v-25.3h25.3v25.3z" fill="rgb(0,0,0)"/></svg>