<svg height="512" viewBox="0 0 54 60" width="512" xmlns="http://www.w3.org/2000/svg"><g id="003---User-Data-Dashboard"><path id="Shape" d="m7 60h40c3.8639376-.0049584 6.9950416-3.1360624 7-7v-46c-.0044086-3.86416566-3.1358343-6.99559136-7-7h-40c-3.86416566.00440864-6.99559136 3.13583434-7 7v46c.00495836 3.8639376 3.13606244 6.9950416 7 7zm-5-53c.00330612-2.76005315 2.23994685-4.99669388 5-5h40c2.7600532.00330612 4.9966939 2.23994685 5 5v46c-.0033061 2.7600532-2.2399468 4.9966939-5 5h-40c-2.76005315-.0033061-4.99669388-2.2399468-5-5z"/><path id="Shape" d="m13 24h4c1.1045695 0 2-.8954305 2-2v-6c0-1.1045695-.8954305-2-2-2h-4c-1.1045695 0-2 .8954305-2 2v6c0 1.1045695.8954305 2 2 2zm0-8h4v6h-4z"/><path id="Shape" d="m23 24h4c1.1045695 0 2-.8954305 2-2v-14c0-1.1045695-.8954305-2-2-2h-4c-1.1045695 0-2 .8954305-2 2v14c0 1.1045695.8954305 2 2 2zm0-16h4v14h-4z"/><path id="Shape" d="m33 24h4c1.1045695 0 2-.8954305 2-2v-6c0-1.1045695-.8954305-2-2-2h-4c-1.1045695 0-2 .8954305-2 2v6c0 1.1045695.8954305 2 2 2zm0-8h4v6h-4z"/><path id="Shape" d="m43 24h4c1.1045695 0 2-.8954305 2-2v-10c0-1.1045695-.8954305-2-2-2h-4c-1.1045695 0-2 .8954305-2 2v10c0 1.1045695.8954305 2 2 2zm0-12h4v10h-4z"/><path id="Shape" d="m16 31c.0001866 1.0754329.4351405 2.1051123 1.206 2.855-1.3787072.9289994-2.2054971 2.4825099-2.206 4.145 0 1.1045695.8954305 2 2 2h6c1.1045695 0 2-.8954305 2-2-.0005029-1.6624901-.8272928-3.2160006-2.206-4.145 1.3005054-1.2694167 1.5818172-3.2560026.6848883-4.8365884-.8969288-1.5805859-2.7466502-2.3578827-4.503375-1.8924251-1.7567249.4654576-2.9788906 2.0566743-2.9755133 3.8740135zm7 7h-6c0-1.6568542 1.3431458-3 3-3s3 1.3431458 3 3zm-3-9c1.1045695 0 2 .8954305 2 2s-.8954305 2-2 2-2-.8954305-2-2 .8954305-2 2-2z"/><path id="Shape" d="m29.206 33.855c-1.3787072.9289994-2.2054971 2.4825099-2.206 4.145 0 1.1045695.8954305 2 2 2h6c1.1045695 0 2-.8954305 2-2-.0005029-1.6624901-.8272928-3.2160006-2.206-4.145 1.1640551-1.1362229 1.5241042-2.8642129.9107106-4.3707902-.6133936-1.5065772-2.0780494-2.49165-3.7047106-2.49165s-3.091317.9850728-3.7047106 2.49165c-.6133936 1.5065773-.2533445 3.2345673.9107106 4.3707902zm5.794 4.145h-6c0-1.6568542 1.3431458-3 3-3s3 1.3431458 3 3zm-3-9c1.1045695 0 2 .8954305 2 2s-.8954305 2-2 2-2-.8954305-2-2 .8954305-2 2-2z"/><path id="Shape" d="m41.206 33.855c-1.3787072.9289994-2.2054971 2.4825099-2.206 4.145 0 1.1045695.8954305 2 2 2h6c1.1045695 0 2-.8954305 2-2-.0005029-1.6624901-.8272928-3.2160006-2.206-4.145 1.1640551-1.1362229 1.5241042-2.8642129.9107106-4.3707902-.6133936-1.5065772-2.0780494-2.49165-3.7047106-2.49165s-3.091317.9850728-3.7047106 2.49165c-.6133936 1.5065773-.2533445 3.2345673.9107106 4.3707902zm5.794 4.1450001h-6c.0000001-1.6568543 1.3431458-3 3-3s2.9999999 1.3431457 3 3zm-3-9.0000001c1.1045695 0 2 .8954305 2 2s-.8954305 2-2 2-2-.8954305-2-2 .8954305-2 2-2z"/><path id="Shape" d="m22.794 48.855c1.1640551-1.1362229 1.5241042-2.8642129.9107106-4.3707902-.6133936-1.5065772-2.0780494-2.49165-3.7047106-2.49165s-3.091317.9850728-3.7047106 2.49165c-.6133936 1.5065773-.2533445 3.2345673.9107106 4.3707902-1.3787072.9289994-2.2054971 2.4825099-2.206 4.145 0 1.1045695.8954305 2 2 2h6c1.1045695 0 2-.8954305 2-2-.0005029-1.6624901-.8272928-3.2160006-2.206-4.145zm-4.794-2.855c0-1.1045695.8954305-2 2-2s2 .8954305 2 2-.8954305 2-2 2-2-.8954305-2-2zm-1 7c0-1.6568542 1.3431458-3 3-3s3 1.3431458 3 3z"/><path id="Shape" d="m34.794 48.855c1.1640551-1.1362229 1.5241042-2.8642129.9107106-4.3707902-.6133936-1.5065772-2.0780494-2.49165-3.7047106-2.49165s-3.091317.9850728-3.7047106 2.49165c-.6133936 1.5065773-.2533445 3.2345673.9107106 4.3707902-1.3787072.9289994-2.2054971 2.4825099-2.206 4.145 0 1.1045695.8954305 2 2 2h6c1.1045695 0 2-.8954305 2-2-.0005029-1.6624901-.8272928-3.2160006-2.206-4.145zm-4.794-2.855c0-1.1045695.8954305-2 2-2s2 .8954305 2 2-.8954305 2-2 2-2-.8954305-2-2zm-1 7c0-1.6568542 1.3431458-3 3-3s3 1.3431458 3 3z"/><path id="Path" d="m6 38c.26519481-.0000566.51950727-.1054506.707-.293l6-6c.3789722-.3923789.3735524-1.0160848-.0121814-1.4018186s-1.0094397-.3911536-1.4018186-.0121814l-6 6c-.28590792.2859943-.37142191.7160366-.21667798 1.0896546.15474393.3736179.51928208.6172591.92367798.6173454z"/><path id="Path" d="m6 33c.26519481-.0000566.51950727-.1054506.707-.293l1-1c.37897221-.3923789.37355237-1.0160848-.01218142-1.4018186-.3857338-.3857338-1.00943969-.3911536-1.40181858-.0121814l-1 1c-.28590792.2859943-.37142191.7160366-.21667798 1.0896546.15474393.3736179.51928208.6172591.92367798.6173454z"/><path id="Path" d="m11.293 35.293-1 1c-.2599566.2510745-.3642126.6228779-.2726972.9725073.0915155.3496295.3645604.6226744.7141899.7141899.3496294.0915154.7214328-.0127406.9725073-.2726972l1-1c.3789722-.3923789.3735524-1.0160848-.0121814-1.4018186s-1.0094397-.3911536-1.4018186-.0121814z"/><path id="Path" d="m6 53c.26519481-.0000566.51950727-.1054506.707-.293l6-6c.3789722-.3923789.3735524-1.0160848-.0121814-1.4018186s-1.0094397-.3911536-1.4018186-.0121814l-6 6c-.28590792.2859943-.37142191.7160366-.21667798 1.0896546.15474393.3736179.51928208.6172591.92367798.6173454z"/><path id="Path" d="m6 48c.26519481-.0000566.51950727-.1054506.707-.293l1-1c.37897221-.3923789.37355237-1.0160848-.01218142-1.4018186-.3857338-.3857338-1.00943969-.3911536-1.40181858-.0121814l-1 1c-.28590792.2859943-.37142191.7160366-.21667798 1.0896546.15474393.3736179.51928208.6172591.92367798.6173454z"/><path id="Path" d="m11.293 50.293-1 1c-.2599566.2510745-.3642126.6228779-.2726972.9725073.0915155.3496295.3645604.6226744.7141899.7141899.3496294.0915154.7214328-.0127406.9725073-.2726972l1-1c.3789722-.3923789.3735524-1.0160848-.0121814-1.4018186s-1.0094397-.3911536-1.4018186-.0121814z"/><path id="Path" d="m6 8h2c.55228475 0 1-.44771525 1-1s-.44771525-1-1-1h-2c-.55228475 0-1 .44771525-1 1s.44771525 1 1 1z"/><path id="Path" d="m6 12h2c.55228475 0 1-.4477153 1-1s-.44771525-1-1-1h-2c-.55228475 0-1 .4477153-1 1s.44771525 1 1 1z"/><path id="Path" d="m6 16h2c.55228475 0 1-.4477153 1-1s-.44771525-1-1-1h-2c-.55228475 0-1 .4477153-1 1s.44771525 1 1 1z"/><path id="Path" d="m6 20h2c.55228475 0 1-.4477153 1-1s-.44771525-1-1-1h-2c-.55228475 0-1 .4477153-1 1s.44771525 1 1 1z"/><path id="Path" d="m6 24h2c.55228475 0 1-.4477153 1-1s-.44771525-1-1-1h-2c-.55228475 0-1 .4477153-1 1s.44771525 1 1 1z"/></g></svg>