<svg id="Layer_1" enable-background="new 0 0 66 66" height="512" viewBox="0 0 66 66" width="512" xmlns="http://www.w3.org/2000/svg"><g><g><path d="m40.8 46.9c-.4-.4-1-.4-1.4 0l-3.7 3.7c-.4.4-.4 1 0 1.4s1 .4 1.4 0l2-2v7.9c0 .6.4 1 1 1s1-.4 1-1v-7.9l2 2c.4.4 1 .4 1.4 0s.4-1 0-1.4z"/></g><g><path d="m56.3 46.9c-.4-.4-1-.4-1.4 0l-3.7 3.7c-.4.4-.4 1 0 1.4s1 .4 1.4 0l2-2v7.9c0 .6.4 1 1 1s1-.4 1-1v-7.9l2 2c.4.4 1 .4 1.4 0s.4-1 0-1.4z"/></g><g><path d="m66 39.2v-7.6c0-.6-.4-1-1-1h-12.5-3.4v-19.1c0-.6-.4-1-1-1h-12c-1-1.8-2.6-3.2-4.6-4.2-.2-3.5-3.3-6.4-7-6.4s-6.8 2.8-7 6.4c-2 .9-3.5 2.4-4.6 4.2h-11.9c-.6 0-1 .4-1 1v53.5c0 .6.4 1 1 1h47.1c.6 0 1-.4 1-1v-1.9h15.9c.6 0 1-.4 1-1zm-2-1h-10.5v-5.6h10.5zm-21.8 0h-10.5v-5.6h10.5zm2-5.6h7.3v8.9h-7.3zm-25.3-24.7c.4-.2.7-.6.6-1 0-.1 0-.1 0-.2 0-2.6 2.2-4.7 5-4.7s5 2.1 5 4.7v.2c0 .4.2.8.6 1 3.2 1.2 5.2 4.1 5.3 7.4h-21.7c0-3.2 2.1-6.1 5.2-7.4zm28.2 56.1h-45.1v-51.5h10.1c-.3.9-.4 1.9-.4 2.9v.9c0 .6.4 1 1 1h23.8c.6 0 1-.4 1-1v-.9c0-1-.2-1.9-.4-2.9h10.1v18.1h-3.9-12.6c-.6 0-1 .4-1 1v7.6 22.8c0 .6.4 1 1 1h16.4zm-15.4-2.9v-20.9h10.5v2.3c0 .6.4 1 1 1h9.3c.6 0 1-.4 1-1v-2.3h10.5v20.8h-32.3z"/></g><g><path d="m24.5 11.7c2.1 0 3.9-1.7 3.9-3.9s-1.7-3.9-3.9-3.9-3.9 1.7-3.9 3.9 1.8 3.9 3.9 3.9zm0-5.8c1 0 1.9.8 1.9 1.9s-.8 1.9-1.9 1.9c-1 0-1.9-.8-1.9-1.9s.9-1.9 1.9-1.9z"/></g><g><path d="m13.7 22.3h-6.8c-.6 0-1 .4-1 1v7.3c0 .6.4 1 1 1h6.8c.6 0 1-.4 1-1v-7.3c0-.6-.5-1-1-1zm-1 7.2h-4.8v-5.3h4.8z"/></g><g><path d="m13.7 35.7h-6.8c-.6 0-1 .4-1 1v7.3c0 .6.4 1 1 1h6.8c.6 0 1-.4 1-1v-7.3c0-.5-.5-1-1-1zm-1 7.3h-4.8v-5.3h4.8z"/></g><g><path d="m13.7 49.2h-6.8c-.6 0-1 .4-1 1v7.3c0 .6.4 1 1 1h6.8c.6 0 1-.4 1-1v-7.3c0-.6-.5-1-1-1zm-1 7.3h-4.8v-5.3h4.8z"/></g><g><path d="m26.2 35.7h-6.8c-.6 0-1 .4-1 1v7.3c0 .6.4 1 1 1h6.8c.6 0 1-.4 1-1v-7.3c0-.5-.4-1-1-1zm-1 7.3h-4.8v-5.3h4.8z"/></g><g><path d="m26.2 49.2h-6.8c-.6 0-1 .4-1 1v7.3c0 .6.4 1 1 1h6.8c.6 0 1-.4 1-1v-7.3c0-.6-.4-1-1-1zm-1 7.3h-4.8v-5.3h4.8z"/></g><g><path d="m29.5 21.8c-.4-.4-1-.4-1.4 0l-5.4 5.4-2.2-3.2c-.3-.5-.9-.6-1.4-.3s-.6.9-.3 1.4l2.9 4.2c.2.2.4.4.7.4s.6-.1.8-.3l6.2-6.3c.4-.3.4-.9.1-1.3z"/></g><g><path d="m35.1 29.1c.2.2.4.4.7.4h.1c.3 0 .5-.1.7-.3l6.2-6.3c.4-.4.4-1 0-1.4s-1-.4-1.4 0l-5.4 5.5-2.2-3.2c-.3-.5-.9-.6-1.4-.3s-.6.9-.3 1.4z"/></g></g></svg>