<svg id="Capa_1" enable-background="new 0 0 512 512" height="512" viewBox="0 0 512 512" width="512" xmlns="http://www.w3.org/2000/svg"><g><path d="m151.309 369.269v41.749c0 5.522 4.477 10 10 10s10-4.478 10-10v-103.498c0-28.006-22.784-50.79-50.79-50.79h-55.593c-1.188 0-2.153-.966-2.153-2.152v-124.754c0-21.417-17.424-38.842-38.842-38.842h-13.931c-5.523 0-10 4.478-10 10v310.035c0 5.522 4.477 10 10 10s10-4.478 10-10v-41.749h131.309zm-131.309-20v-31.749h131.309v31.749zm0-238.287h3.931c10.389 0 18.842 8.452 18.842 18.842v124.753c0 12.215 9.938 22.152 22.153 22.152h55.593c13.479 0 24.962 8.705 29.123 20.79h-129.642z"/><path d="m502 90.982h-13.931c-21.417 0-38.842 17.425-38.842 38.842v124.753c0 1.187-.966 2.152-2.153 2.152h-55.594c-28.005 0-50.79 22.784-50.79 50.79v103.498c0 5.522 4.477 10 10 10s10-4.478 10-10v-41.749h131.31v41.749c0 5.522 4.477 10 10 10s10-4.478 10-10v-310.035c0-5.522-4.477-10-10-10zm-110.52 185.747h55.593c12.215 0 22.153-9.938 22.153-22.152v-124.753c0-10.39 8.453-18.842 18.842-18.842h3.932v186.538h-129.643c4.161-12.085 15.644-20.791 29.123-20.791zm-30.789 72.54v-31.749h131.309v31.749z"/><path d="m106.555 177.144v42.552c0 5.522 4.477 10 10 10h80.561l19.608 19.179c4.953 5.697 7.677 12.976 7.677 20.533v4.707c0 5.522 4.477 10 10 10s10-4.478 10-10v-4.707c0-12.262-4.52-25.846-13.423-34.567l-5.259-5.145h60.563l-5.259 5.145c-8.903 8.721-13.423 22.305-13.423 34.567v98.161c0 12.327 4.393 24.139 12.404 33.449h-48.007c8.011-9.311 12.404-21.122 12.404-33.449v-5.469c0-5.522-4.477-10-10-10s-10 4.478-10 10v5.469c0 7.713-2.818 15.095-7.946 20.84l-16.868 15.175c-3.079 2.77-4.132 7.15-2.648 11.017 1.483 3.866 5.195 6.418 9.336 6.418h99.45c4.141 0 7.854-2.552 9.336-6.418 1.483-3.866.43-8.247-2.648-11.017l-16.868-15.175c-5.127-5.745-7.946-13.127-7.946-20.84v-98.161c0-7.558 2.724-14.836 7.677-20.533l19.608-19.179h80.561c5.523 0 10-4.478 10-10v-42.552c0-5.522-4.477-10-10-10h-68.981c4.492-4.304 8.45-9.213 11.718-14.65l11.079-18.433c1.857-3.089 1.908-6.938.133-10.075s-5.1-5.076-8.704-5.076h-169.381c-3.604 0-6.929 1.939-8.704 5.076s-1.724 6.986.133 10.075l11.079 18.433c3.268 5.437 7.226 10.347 11.718 14.65h-68.981c-5.522 0-9.999 4.477-9.999 10zm84.403-34.954-1.972-3.281h134.026l-1.972 3.281c-9.251 15.392-26.154 24.953-44.113 24.953h-41.856c-17.958.001-34.861-9.561-44.113-24.953zm-64.403 44.954h258.891v22.552h-258.891z"/><path d="m226.37 323.66c3.026 4.535 9.327 5.767 13.86 2.76 4.547-3.016 5.764-9.335 2.76-13.86-3.014-4.541-9.33-5.787-13.86-2.77-4.529 3.017-5.794 9.35-2.76 13.87z"/></g></svg>