<svg id="Bahan_copy" viewBox="0 0 64 64" xmlns="http://www.w3.org/2000/svg" data-name="Bahan copy"><g fill="rgb(0,0,0)"><path d="m27.2627 4.9209a.99974.99974 0 0 0 -1-1h-14.5557c-3.22705 0-5.852 2.2168-5.852 4.9414v38.0957a1 1 0 0 0 2 0v-38.0957c0-1.62207 1.728-2.9414 3.852-2.9414h14.5557a.99974.99974 0 0 0 1-1z"/><path d="m20.97754 20.42578v7.75684a1.00011 1.00011 0 0 0 2-.00005v-7.75679h2.4751a1 1 0 0 0 0-2h-6.95064a1.0001 1.0001 0 0 0 0 2z"/><path d="m36.29443 28.98828a1.00088 1.00088 0 0 0 1.395-.23144l2.0849-2.91156 2.08167 2.91839a1.00027 1.00027 0 0 0 1.62789-1.16216l-2.47866-3.475 2.48358-3.46826a.99986.99986 0 1 0 -1.626-1.16406l-2.0849 2.91156-2.0816-2.9184a1.00008 1.00008 0 1 0 -1.62793 1.16211l2.4787 3.4751-2.48358 3.46826a1 1 0 0 0 .23093 1.39546z"/><path d="m27.58405 24.02478-1.64313 3.75745a.99979.99979 0 0 0 1.83208.80077l1.3867-3.17086h2.496l1.3902 3.17186a1.00008 1.00008 0 0 0 1.832-.80274l-1.6456-3.75447c.00344-.01283-1.91226-4.34774-1.911-4.35982a.99984.99984 0 0 0 -1.832.001zm2.8222-1.46326.3728.85059h-.74475z"/><path d="m52.58691 44.55859a1.00081 1.00081 0 0 0 -1.40966-.10937l-9.21825 7.88578a.99981.99981 0 1 0 1.29981 1.51953l9.21826-7.88574a.99965.99965 0 0 0 .10984-1.4102z"/><path d="m44.07813 48.63184a2.57313 2.57313 0 1 0 -.025-5.14063 2.57313 2.57313 0 1 0 .025 5.14063zm-.5586-2.9209c.49436-.55889 1.70442.05422 1.1162.70121-.49436.55885-1.70433-.05515-1.1162-.70121z"/><path d="m50.23779 49.55371a2.57313 2.57313 0 1 0 .025 5.14063 2.57313 2.57313 0 1 0 -.025-5.14063zm.5586 2.9209c-.5078.5716-1.73009-.08168-1.09667-.71977.50761-.53123 1.67664.08808 1.09667.71977z"/><path d="m35.1582 34.48145h-16a1.0001 1.0001 0 0 0 0 2h16a1.00011 1.00011 0 0 0 0-2z"/><path d="m35.1582 39.46875h-16a1.00011 1.00011 0 0 0 0 2h16a1.00011 1.00011 0 0 0 0-2z"/><path d="m31.1582 44.457h-12a1.00011 1.00011 0 0 0 0 2h12a1.00011 1.00011 0 0 0 0-2z"/><path d="m49.42578 38.44916v-22.09271a1.068 1.068 0 0 0 -.20429-.57324c-.04012-.06889-7.40124-6.4925-7.40124-6.4925a1.22736 1.22736 0 0 0 -.7143-.30339h-24.85009a4.34956 4.34956 0 0 0 -4.5 4.16993v36.93943a4.34492 4.34492 0 0 0 4.5 4.16016h21.30786a10.93324 10.93324 0 0 0 9.65454 5.82226c13.1831-.37517 14.92712-18.67538 2.20752-21.62994zm-7.31978-26.26068 3.694 3.21008-3.01477.04871c-.34074-.01106-.64747-.16216-.67922-.53026zm-25.85014 40.06836a2.35133 2.35133 0 0 1 -2.5-2.16016v-36.93945a2.35546 2.35546 0 0 1 2.5-2.16993h23.85014v3.9297a2.62376 2.62376 0 0 0 2.71633 2.53025l4.60349-.07419v20.86205a10.96148 10.96148 0 0 0 -10.679 14.02182zm30.9624 5.82226a8.93742 8.93742 0 0 1 -8.92726-8.92676c.49039-11.84362 17.36559-11.84066 17.854.00007a8.937 8.937 0 0 1 -8.92674 8.92669z"/></g></svg>