<svg id="OBJECT" height="512" viewBox="0 0 512 512" width="512" xmlns="http://www.w3.org/2000/svg"><path d="m457 0h-402a55.06 55.06 0 0 0 -55 55v280a55.06 55.06 0 0 0 55 55h100.19l90.81 116.24a15 15 0 0 0 11.52 5.76h.34a15 15 0 0 0 11.38-5.23l100.16-116.77h87.6a55.06 55.06 0 0 0 55-55v-280a55.06 55.06 0 0 0 -55-55zm-198.6 473.33-65.14-83.33h136.61zm223.6-138.33a25 25 0 0 1 -25 25h-402a25 25 0 0 1 -25-25v-280a25 25 0 0 1 25-25h402a25 25 0 0 1 25 25z"/><path d="m249.77 172.4a15 15 0 0 0 -12.11-10.21l-47.48-6.89-21.23-43a15 15 0 0 0 -26.9 0l-21.23 43-47.48 6.89a15 15 0 0 0 -12.11 10.21 14.82 14.82 0 0 0 -.72 4.14 15 15 0 0 0 4.49 11.24l34.35 33.49-8.11 47.28a15 15 0 0 0 21.76 15.81l42.5-22.36 42.5 22.36a15 15 0 0 0 22-13.7 15.08 15.08 0 0 0 -.21-2.11l-8.11-47.28 34.32-33.49a15 15 0 0 0 4.52-11.24 14.82 14.82 0 0 0 -.75-4.14zm-69.05 46.16 4.3 25.1-22.54-11.85a15 15 0 0 0 -14 0l-22.48 11.85 4.3-25.1a14.79 14.79 0 0 0 .22-2.73 15 15 0 0 0 -4.52-10.54l-18.24-17.78 25.21-3.66a15 15 0 0 0 11.29-8.2l11.27-22.84 11.27 22.84a15 15 0 0 0 11.29 8.2l25.21 3.66-18.3 17.78a15 15 0 0 0 -4.53 10.54 14.79 14.79 0 0 0 .25 2.73z"/><path d="m401.35 175.65c-9.55-5.7-21.51-8.72-34.59-8.72-1 0-1.94 0-2.82 0l3.13-20.9h48.1a7.5 7.5 0 0 0 7.5-7.5v-16.24a7.5 7.5 0 0 0 -7.5-7.5h-68.43a7.5 7.5 0 0 0 -7.43 6.5l-9.24 68.64a7.5 7.5 0 0 0 8.37 8.44l1.1-.14a133.37 133.37 0 0 1 17.76-1.34c22.14 0 33.45 8.17 33.64 24.18 0 16.16-13.67 23.52-26.38 23.52a57.05 57.05 0 0 1 -26.75-6.87 7.5 7.5 0 0 0 -10.95 4.11l-4.86 14.74a7.5 7.5 0 0 0 3.06 8.64c7.49 4.84 21.85 10 39.7 10 16.84 0 32.23-5.66 43.35-15.93a54.31 54.31 0 0 0 17.39-40.41c.02-18.7-8.79-34.44-24.15-43.22z"/></svg>