<svg height="512" viewBox="0 0 176 176" width="512" xmlns="http://www.w3.org/2000/svg"><g id="Layer_2" data-name="Layer 2"><g id="_09.whatsapp" data-name="09.whatsapp"><g id="icon"><path d="m118.43 57.57-.22-.22a42.72 42.72 0 0 0 -68.28 49.59l1.88 3.7-3.5 17-.05.22 16.89-4 3.85 1.95a42.78 42.78 0 0 0 49.22-8 42.72 42.72 0 0 0 .22-60.19zm-1.72 47.72c-2.07 3.26-5.34 7.24-9.45 8.23-7.2 1.75-18.25.06-32-12.75l-.17-.16c-12.09-11.2-15.23-20.53-14.47-27.93.42-4.21 3.92-8 6.87-10.49a3.94 3.94 0 0 1 6.15 1.41l4.45 10.06a3.89 3.89 0 0 1 -.49 4l-2.25 2.92a3.88 3.88 0 0 0 -.35 4.27c1.26 2.2 4.28 5.45 7.63 8.47 3.76 3.39 7.93 6.5 10.57 7.57a3.85 3.85 0 0 0 4.19-.89l2.61-2.63a4 4 0 0 1 3.9-1l10.57 3a4 4 0 0 1 2.24 5.92z"/><path d="m171.63 40.84c-3.95-15.84-20.63-32.53-36.48-36.48a262 262 0 0 0 -47.15-4.36 262.18 262.18 0 0 0 -47.15 4.36c-15.85 3.95-32.53 20.64-36.48 36.48a256.46 256.46 0 0 0 0 94.31c3.95 15.85 20.63 32.55 36.48 36.48 8.89 1.61 17.54 2.77 26.11 3.48 7.05.6 14 .89 21 .89 4.48 0 8.94-.13 13.4-.36a268.5 268.5 0 0 0 33.75-4c15.89-3.94 32.57-20.64 36.52-36.49a267.91 267.91 0 0 0 4.16-37q.24-5.86.21-11.71a262.21 262.21 0 0 0 -4.37-45.6zm-29.1 48.46a54.57 54.57 0 0 1 -78.82 47.11l-27.55 6.53a2.13 2.13 0 0 1 -2.24-.87 2.09 2.09 0 0 1 -.33-1.63l5.79-28.11a54.56 54.56 0 1 1 103.15-23z"/></g></g></g></svg>